<?xml version="1.0" encoding="utf-8" standalone="no"?>
<!DOCTYPE svg PUBLIC "-//W3C//DTD SVG 1.1//EN"
  "http://www.w3.org/Graphics/SVG/1.1/DTD/svg11.dtd">
<svg xmlns:xlink="http://www.w3.org/1999/xlink" width="460.8pt" height="345.6pt" viewBox="0 0 460.8 345.6" xmlns="http://www.w3.org/2000/svg" version="1.1">
 <metadata>
  <rdf:RDF xmlns:dc="http://purl.org/dc/elements/1.1/" xmlns:cc="http://creativecommons.org/ns#" xmlns:rdf="http://www.w3.org/1999/02/22-rdf-syntax-ns#">
   <cc:Work>
    <dc:type rdf:resource="http://purl.org/dc/dcmitype/StillImage"/>
    <dc:date>2025-09-09T23:35:58.376544</dc:date>
    <dc:format>image/svg+xml</dc:format>
    <dc:creator>
     <cc:Agent>
      <dc:title>Matplotlib v3.10.3, https://matplotlib.org/</dc:title>
     </cc:Agent>
    </dc:creator>
   </cc:Work>
  </rdf:RDF>
 </metadata>
 <defs>
  <style type="text/css">*{stroke-linejoin: round; stroke-linecap: butt}</style>
 </defs>
 <g id="figure_1">
  <g id="patch_1">
   <path d="M 0 345.6 
L 460.8 345.6 
L 460.8 0 
L 0 0 
z
" style="fill: #ffffff"/>
  </g>
  <g id="axes_1">
   <g id="patch_2">
    <path d="M 57.6 307.584 
L 414.72 307.584 
L 414.72 41.472 
L 57.6 41.472 
z
" style="fill: #ffffff"/>
   </g>
   <g id="matplotlib.axis_1">
    <g id="xtick_1">
     <g id="line2d_1">
      <path d="M 73.832727 307.584 
L 73.832727 41.472 
" clip-path="url(#p2474987694)" style="fill: none; stroke: #b0b0b0; stroke-width: 0.8; stroke-linecap: square"/>
     </g>
     <g id="line2d_2">
      <defs>
       <path id="m08d8cbe8d2" d="M 0 0 
L 0 3.5 
" style="stroke: #000000; stroke-width: 0.8"/>
      </defs>
      <g>
       <use xlink:href="#m08d8cbe8d2" x="73.832727" y="307.584" style="stroke: #000000; stroke-width: 0.8"/>
      </g>
     </g>
     <g id="text_1">
      <!-- 0 -->
      <g transform="translate(70.651477 322.182437) scale(0.1 -0.1)">
       <defs>
        <path id="DejaVuSans-30" d="M 2034 4250 
Q 1547 4250 1301 3770 
Q 1056 3291 1056 2328 
Q 1056 1369 1301 889 
Q 1547 409 2034 409 
Q 2525 409 2770 889 
Q 3016 1369 3016 2328 
Q 3016 3291 2770 3770 
Q 2525 4250 2034 4250 
z
M 2034 4750 
Q 2819 4750 3233 4129 
Q 3647 3509 3647 2328 
Q 3647 1150 3233 529 
Q 2819 -91 2034 -91 
Q 1250 -91 836 529 
Q 422 1150 422 2328 
Q 422 3509 836 4129 
Q 1250 4750 2034 4750 
z
" transform="scale(0.015625)"/>
       </defs>
       <use xlink:href="#DejaVuSans-30"/>
      </g>
     </g>
    </g>
    <g id="xtick_2">
     <g id="line2d_3">
      <path d="M 114.414545 307.584 
L 114.414545 41.472 
" clip-path="url(#p2474987694)" style="fill: none; stroke: #b0b0b0; stroke-width: 0.8; stroke-linecap: square"/>
     </g>
     <g id="line2d_4">
      <g>
       <use xlink:href="#m08d8cbe8d2" x="114.414545" y="307.584" style="stroke: #000000; stroke-width: 0.8"/>
      </g>
     </g>
     <g id="text_2">
      <!-- 50 -->
      <g transform="translate(108.052045 322.182437) scale(0.1 -0.1)">
       <defs>
        <path id="DejaVuSans-35" d="M 691 4666 
L 3169 4666 
L 3169 4134 
L 1269 4134 
L 1269 2991 
Q 1406 3038 1543 3061 
Q 1681 3084 1819 3084 
Q 2600 3084 3056 2656 
Q 3513 2228 3513 1497 
Q 3513 744 3044 326 
Q 2575 -91 1722 -91 
Q 1428 -91 1123 -41 
Q 819 9 494 109 
L 494 744 
Q 775 591 1075 516 
Q 1375 441 1709 441 
Q 2250 441 2565 725 
Q 2881 1009 2881 1497 
Q 2881 1984 2565 2268 
Q 2250 2553 1709 2553 
Q 1456 2553 1204 2497 
Q 953 2441 691 2322 
L 691 4666 
z
" transform="scale(0.015625)"/>
       </defs>
       <use xlink:href="#DejaVuSans-35"/>
       <use xlink:href="#DejaVuSans-30" transform="translate(63.623047 0)"/>
      </g>
     </g>
    </g>
    <g id="xtick_3">
     <g id="line2d_5">
      <path d="M 154.996364 307.584 
L 154.996364 41.472 
" clip-path="url(#p2474987694)" style="fill: none; stroke: #b0b0b0; stroke-width: 0.8; stroke-linecap: square"/>
     </g>
     <g id="line2d_6">
      <g>
       <use xlink:href="#m08d8cbe8d2" x="154.996364" y="307.584" style="stroke: #000000; stroke-width: 0.8"/>
      </g>
     </g>
     <g id="text_3">
      <!-- 100 -->
      <g transform="translate(145.452614 322.182437) scale(0.1 -0.1)">
       <defs>
        <path id="DejaVuSans-31" d="M 794 531 
L 1825 531 
L 1825 4091 
L 703 3866 
L 703 4441 
L 1819 4666 
L 2450 4666 
L 2450 531 
L 3481 531 
L 3481 0 
L 794 0 
L 794 531 
z
" transform="scale(0.015625)"/>
       </defs>
       <use xlink:href="#DejaVuSans-31"/>
       <use xlink:href="#DejaVuSans-30" transform="translate(63.623047 0)"/>
       <use xlink:href="#DejaVuSans-30" transform="translate(127.246094 0)"/>
      </g>
     </g>
    </g>
    <g id="xtick_4">
     <g id="line2d_7">
      <path d="M 195.578182 307.584 
L 195.578182 41.472 
" clip-path="url(#p2474987694)" style="fill: none; stroke: #b0b0b0; stroke-width: 0.8; stroke-linecap: square"/>
     </g>
     <g id="line2d_8">
      <g>
       <use xlink:href="#m08d8cbe8d2" x="195.578182" y="307.584" style="stroke: #000000; stroke-width: 0.8"/>
      </g>
     </g>
     <g id="text_4">
      <!-- 150 -->
      <g transform="translate(186.034432 322.182437) scale(0.1 -0.1)">
       <use xlink:href="#DejaVuSans-31"/>
       <use xlink:href="#DejaVuSans-35" transform="translate(63.623047 0)"/>
       <use xlink:href="#DejaVuSans-30" transform="translate(127.246094 0)"/>
      </g>
     </g>
    </g>
    <g id="xtick_5">
     <g id="line2d_9">
      <path d="M 236.16 307.584 
L 236.16 41.472 
" clip-path="url(#p2474987694)" style="fill: none; stroke: #b0b0b0; stroke-width: 0.8; stroke-linecap: square"/>
     </g>
     <g id="line2d_10">
      <g>
       <use xlink:href="#m08d8cbe8d2" x="236.16" y="307.584" style="stroke: #000000; stroke-width: 0.8"/>
      </g>
     </g>
     <g id="text_5">
      <!-- 200 -->
      <g transform="translate(226.61625 322.182437) scale(0.1 -0.1)">
       <defs>
        <path id="DejaVuSans-32" d="M 1228 531 
L 3431 531 
L 3431 0 
L 469 0 
L 469 531 
Q 828 903 1448 1529 
Q 2069 2156 2228 2338 
Q 2531 2678 2651 2914 
Q 2772 3150 2772 3378 
Q 2772 3750 2511 3984 
Q 2250 4219 1831 4219 
Q 1534 4219 1204 4116 
Q 875 4013 500 3803 
L 500 4441 
Q 881 4594 1212 4672 
Q 1544 4750 1819 4750 
Q 2544 4750 2975 4387 
Q 3406 4025 3406 3419 
Q 3406 3131 3298 2873 
Q 3191 2616 2906 2266 
Q 2828 2175 2409 1742 
Q 1991 1309 1228 531 
z
" transform="scale(0.015625)"/>
       </defs>
       <use xlink:href="#DejaVuSans-32"/>
       <use xlink:href="#DejaVuSans-30" transform="translate(63.623047 0)"/>
       <use xlink:href="#DejaVuSans-30" transform="translate(127.246094 0)"/>
      </g>
     </g>
    </g>
    <g id="xtick_6">
     <g id="line2d_11">
      <path d="M 276.741818 307.584 
L 276.741818 41.472 
" clip-path="url(#p2474987694)" style="fill: none; stroke: #b0b0b0; stroke-width: 0.8; stroke-linecap: square"/>
     </g>
     <g id="line2d_12">
      <g>
       <use xlink:href="#m08d8cbe8d2" x="276.741818" y="307.584" style="stroke: #000000; stroke-width: 0.8"/>
      </g>
     </g>
     <g id="text_6">
      <!-- 250 -->
      <g transform="translate(267.198068 322.182437) scale(0.1 -0.1)">
       <use xlink:href="#DejaVuSans-32"/>
       <use xlink:href="#DejaVuSans-35" transform="translate(63.623047 0)"/>
       <use xlink:href="#DejaVuSans-30" transform="translate(127.246094 0)"/>
      </g>
     </g>
    </g>
    <g id="xtick_7">
     <g id="line2d_13">
      <path d="M 317.323636 307.584 
L 317.323636 41.472 
" clip-path="url(#p2474987694)" style="fill: none; stroke: #b0b0b0; stroke-width: 0.8; stroke-linecap: square"/>
     </g>
     <g id="line2d_14">
      <g>
       <use xlink:href="#m08d8cbe8d2" x="317.323636" y="307.584" style="stroke: #000000; stroke-width: 0.8"/>
      </g>
     </g>
     <g id="text_7">
      <!-- 300 -->
      <g transform="translate(307.779886 322.182437) scale(0.1 -0.1)">
       <defs>
        <path id="DejaVuSans-33" d="M 2597 2516 
Q 3050 2419 3304 2112 
Q 3559 1806 3559 1356 
Q 3559 666 3084 287 
Q 2609 -91 1734 -91 
Q 1441 -91 1130 -33 
Q 819 25 488 141 
L 488 750 
Q 750 597 1062 519 
Q 1375 441 1716 441 
Q 2309 441 2620 675 
Q 2931 909 2931 1356 
Q 2931 1769 2642 2001 
Q 2353 2234 1838 2234 
L 1294 2234 
L 1294 2753 
L 1863 2753 
Q 2328 2753 2575 2939 
Q 2822 3125 2822 3475 
Q 2822 3834 2567 4026 
Q 2313 4219 1838 4219 
Q 1578 4219 1281 4162 
Q 984 4106 628 3988 
L 628 4550 
Q 988 4650 1302 4700 
Q 1616 4750 1894 4750 
Q 2613 4750 3031 4423 
Q 3450 4097 3450 3541 
Q 3450 3153 3228 2886 
Q 3006 2619 2597 2516 
z
" transform="scale(0.015625)"/>
       </defs>
       <use xlink:href="#DejaVuSans-33"/>
       <use xlink:href="#DejaVuSans-30" transform="translate(63.623047 0)"/>
       <use xlink:href="#DejaVuSans-30" transform="translate(127.246094 0)"/>
      </g>
     </g>
    </g>
    <g id="xtick_8">
     <g id="line2d_15">
      <path d="M 357.905455 307.584 
L 357.905455 41.472 
" clip-path="url(#p2474987694)" style="fill: none; stroke: #b0b0b0; stroke-width: 0.8; stroke-linecap: square"/>
     </g>
     <g id="line2d_16">
      <g>
       <use xlink:href="#m08d8cbe8d2" x="357.905455" y="307.584" style="stroke: #000000; stroke-width: 0.8"/>
      </g>
     </g>
     <g id="text_8">
      <!-- 350 -->
      <g transform="translate(348.361705 322.182437) scale(0.1 -0.1)">
       <use xlink:href="#DejaVuSans-33"/>
       <use xlink:href="#DejaVuSans-35" transform="translate(63.623047 0)"/>
       <use xlink:href="#DejaVuSans-30" transform="translate(127.246094 0)"/>
      </g>
     </g>
    </g>
    <g id="xtick_9">
     <g id="line2d_17">
      <path d="M 398.487273 307.584 
L 398.487273 41.472 
" clip-path="url(#p2474987694)" style="fill: none; stroke: #b0b0b0; stroke-width: 0.8; stroke-linecap: square"/>
     </g>
     <g id="line2d_18">
      <g>
       <use xlink:href="#m08d8cbe8d2" x="398.487273" y="307.584" style="stroke: #000000; stroke-width: 0.8"/>
      </g>
     </g>
     <g id="text_9">
      <!-- 400 -->
      <g transform="translate(388.943523 322.182437) scale(0.1 -0.1)">
       <defs>
        <path id="DejaVuSans-34" d="M 2419 4116 
L 825 1625 
L 2419 1625 
L 2419 4116 
z
M 2253 4666 
L 3047 4666 
L 3047 1625 
L 3713 1625 
L 3713 1100 
L 3047 1100 
L 3047 0 
L 2419 0 
L 2419 1100 
L 313 1100 
L 313 1709 
L 2253 4666 
z
" transform="scale(0.015625)"/>
       </defs>
       <use xlink:href="#DejaVuSans-34"/>
       <use xlink:href="#DejaVuSans-30" transform="translate(63.623047 0)"/>
       <use xlink:href="#DejaVuSans-30" transform="translate(127.246094 0)"/>
      </g>
     </g>
    </g>
    <g id="text_10">
     <!-- Tiempo [s] -->
     <g transform="translate(209.5975 335.860562) scale(0.1 -0.1)">
      <defs>
       <path id="DejaVuSans-54" d="M -19 4666 
L 3928 4666 
L 3928 4134 
L 2272 4134 
L 2272 0 
L 1638 0 
L 1638 4134 
L -19 4134 
L -19 4666 
z
" transform="scale(0.015625)"/>
       <path id="DejaVuSans-69" d="M 603 3500 
L 1178 3500 
L 1178 0 
L 603 0 
L 603 3500 
z
M 603 4863 
L 1178 4863 
L 1178 4134 
L 603 4134 
L 603 4863 
z
" transform="scale(0.015625)"/>
       <path id="DejaVuSans-65" d="M 3597 1894 
L 3597 1613 
L 953 1613 
Q 991 1019 1311 708 
Q 1631 397 2203 397 
Q 2534 397 2845 478 
Q 3156 559 3463 722 
L 3463 178 
Q 3153 47 2828 -22 
Q 2503 -91 2169 -91 
Q 1331 -91 842 396 
Q 353 884 353 1716 
Q 353 2575 817 3079 
Q 1281 3584 2069 3584 
Q 2775 3584 3186 3129 
Q 3597 2675 3597 1894 
z
M 3022 2063 
Q 3016 2534 2758 2815 
Q 2500 3097 2075 3097 
Q 1594 3097 1305 2825 
Q 1016 2553 972 2059 
L 3022 2063 
z
" transform="scale(0.015625)"/>
       <path id="DejaVuSans-6d" d="M 3328 2828 
Q 3544 3216 3844 3400 
Q 4144 3584 4550 3584 
Q 5097 3584 5394 3201 
Q 5691 2819 5691 2113 
L 5691 0 
L 5113 0 
L 5113 2094 
Q 5113 2597 4934 2840 
Q 4756 3084 4391 3084 
Q 3944 3084 3684 2787 
Q 3425 2491 3425 1978 
L 3425 0 
L 2847 0 
L 2847 2094 
Q 2847 2600 2669 2842 
Q 2491 3084 2119 3084 
Q 1678 3084 1418 2786 
Q 1159 2488 1159 1978 
L 1159 0 
L 581 0 
L 581 3500 
L 1159 3500 
L 1159 2956 
Q 1356 3278 1631 3431 
Q 1906 3584 2284 3584 
Q 2666 3584 2933 3390 
Q 3200 3197 3328 2828 
z
" transform="scale(0.015625)"/>
       <path id="DejaVuSans-70" d="M 1159 525 
L 1159 -1331 
L 581 -1331 
L 581 3500 
L 1159 3500 
L 1159 2969 
Q 1341 3281 1617 3432 
Q 1894 3584 2278 3584 
Q 2916 3584 3314 3078 
Q 3713 2572 3713 1747 
Q 3713 922 3314 415 
Q 2916 -91 2278 -91 
Q 1894 -91 1617 61 
Q 1341 213 1159 525 
z
M 3116 1747 
Q 3116 2381 2855 2742 
Q 2594 3103 2138 3103 
Q 1681 3103 1420 2742 
Q 1159 2381 1159 1747 
Q 1159 1113 1420 752 
Q 1681 391 2138 391 
Q 2594 391 2855 752 
Q 3116 1113 3116 1747 
z
" transform="scale(0.015625)"/>
       <path id="DejaVuSans-6f" d="M 1959 3097 
Q 1497 3097 1228 2736 
Q 959 2375 959 1747 
Q 959 1119 1226 758 
Q 1494 397 1959 397 
Q 2419 397 2687 759 
Q 2956 1122 2956 1747 
Q 2956 2369 2687 2733 
Q 2419 3097 1959 3097 
z
M 1959 3584 
Q 2709 3584 3137 3096 
Q 3566 2609 3566 1747 
Q 3566 888 3137 398 
Q 2709 -91 1959 -91 
Q 1206 -91 779 398 
Q 353 888 353 1747 
Q 353 2609 779 3096 
Q 1206 3584 1959 3584 
z
" transform="scale(0.015625)"/>
       <path id="DejaVuSans-20" transform="scale(0.015625)"/>
       <path id="DejaVuSans-5b" d="M 550 4863 
L 1875 4863 
L 1875 4416 
L 1125 4416 
L 1125 -397 
L 1875 -397 
L 1875 -844 
L 550 -844 
L 550 4863 
z
" transform="scale(0.015625)"/>
       <path id="DejaVuSans-73" d="M 2834 3397 
L 2834 2853 
Q 2591 2978 2328 3040 
Q 2066 3103 1784 3103 
Q 1356 3103 1142 2972 
Q 928 2841 928 2578 
Q 928 2378 1081 2264 
Q 1234 2150 1697 2047 
L 1894 2003 
Q 2506 1872 2764 1633 
Q 3022 1394 3022 966 
Q 3022 478 2636 193 
Q 2250 -91 1575 -91 
Q 1294 -91 989 -36 
Q 684 19 347 128 
L 347 722 
Q 666 556 975 473 
Q 1284 391 1588 391 
Q 1994 391 2212 530 
Q 2431 669 2431 922 
Q 2431 1156 2273 1281 
Q 2116 1406 1581 1522 
L 1381 1569 
Q 847 1681 609 1914 
Q 372 2147 372 2553 
Q 372 3047 722 3315 
Q 1072 3584 1716 3584 
Q 2034 3584 2315 3537 
Q 2597 3491 2834 3397 
z
" transform="scale(0.015625)"/>
       <path id="DejaVuSans-5d" d="M 1947 4863 
L 1947 -844 
L 622 -844 
L 622 -397 
L 1369 -397 
L 1369 4416 
L 622 4416 
L 622 4863 
L 1947 4863 
z
" transform="scale(0.015625)"/>
      </defs>
      <use xlink:href="#DejaVuSans-54"/>
      <use xlink:href="#DejaVuSans-69" transform="translate(57.958984 0)"/>
      <use xlink:href="#DejaVuSans-65" transform="translate(85.742188 0)"/>
      <use xlink:href="#DejaVuSans-6d" transform="translate(147.265625 0)"/>
      <use xlink:href="#DejaVuSans-70" transform="translate(244.677734 0)"/>
      <use xlink:href="#DejaVuSans-6f" transform="translate(308.154297 0)"/>
      <use xlink:href="#DejaVuSans-20" transform="translate(369.335938 0)"/>
      <use xlink:href="#DejaVuSans-5b" transform="translate(401.123047 0)"/>
      <use xlink:href="#DejaVuSans-73" transform="translate(440.136719 0)"/>
      <use xlink:href="#DejaVuSans-5d" transform="translate(492.236328 0)"/>
     </g>
    </g>
   </g>
   <g id="matplotlib.axis_2">
    <g id="ytick_1">
     <g id="line2d_19">
      <path d="M 57.6 283.116689 
L 414.72 283.116689 
" clip-path="url(#p2474987694)" style="fill: none; stroke: #b0b0b0; stroke-width: 0.8; stroke-linecap: square"/>
     </g>
     <g id="line2d_20">
      <defs>
       <path id="m83c1b89339" d="M 0 0 
L -3.5 0 
" style="stroke: #000000; stroke-width: 0.8"/>
      </defs>
      <g>
       <use xlink:href="#m83c1b89339" x="57.6" y="283.116689" style="stroke: #000000; stroke-width: 0.8"/>
      </g>
     </g>
     <g id="text_11">
      <!-- −0.75 -->
      <g transform="translate(19.954687 286.915908) scale(0.1 -0.1)">
       <defs>
        <path id="DejaVuSans-2212" d="M 678 2272 
L 4684 2272 
L 4684 1741 
L 678 1741 
L 678 2272 
z
" transform="scale(0.015625)"/>
        <path id="DejaVuSans-2e" d="M 684 794 
L 1344 794 
L 1344 0 
L 684 0 
L 684 794 
z
" transform="scale(0.015625)"/>
        <path id="DejaVuSans-37" d="M 525 4666 
L 3525 4666 
L 3525 4397 
L 1831 0 
L 1172 0 
L 2766 4134 
L 525 4134 
L 525 4666 
z
" transform="scale(0.015625)"/>
       </defs>
       <use xlink:href="#DejaVuSans-2212"/>
       <use xlink:href="#DejaVuSans-30" transform="translate(83.789062 0)"/>
       <use xlink:href="#DejaVuSans-2e" transform="translate(147.412109 0)"/>
       <use xlink:href="#DejaVuSans-37" transform="translate(179.199219 0)"/>
       <use xlink:href="#DejaVuSans-35" transform="translate(242.822266 0)"/>
      </g>
     </g>
    </g>
    <g id="ytick_2">
     <g id="line2d_21">
      <path d="M 57.6 246.376104 
L 414.72 246.376104 
" clip-path="url(#p2474987694)" style="fill: none; stroke: #b0b0b0; stroke-width: 0.8; stroke-linecap: square"/>
     </g>
     <g id="line2d_22">
      <g>
       <use xlink:href="#m83c1b89339" x="57.6" y="246.376104" style="stroke: #000000; stroke-width: 0.8"/>
      </g>
     </g>
     <g id="text_12">
      <!-- −0.50 -->
      <g transform="translate(19.954687 250.175323) scale(0.1 -0.1)">
       <use xlink:href="#DejaVuSans-2212"/>
       <use xlink:href="#DejaVuSans-30" transform="translate(83.789062 0)"/>
       <use xlink:href="#DejaVuSans-2e" transform="translate(147.412109 0)"/>
       <use xlink:href="#DejaVuSans-35" transform="translate(179.199219 0)"/>
       <use xlink:href="#DejaVuSans-30" transform="translate(242.822266 0)"/>
      </g>
     </g>
    </g>
    <g id="ytick_3">
     <g id="line2d_23">
      <path d="M 57.6 209.63552 
L 414.72 209.63552 
" clip-path="url(#p2474987694)" style="fill: none; stroke: #b0b0b0; stroke-width: 0.8; stroke-linecap: square"/>
     </g>
     <g id="line2d_24">
      <g>
       <use xlink:href="#m83c1b89339" x="57.6" y="209.63552" style="stroke: #000000; stroke-width: 0.8"/>
      </g>
     </g>
     <g id="text_13">
      <!-- −0.25 -->
      <g transform="translate(19.954687 213.434739) scale(0.1 -0.1)">
       <use xlink:href="#DejaVuSans-2212"/>
       <use xlink:href="#DejaVuSans-30" transform="translate(83.789062 0)"/>
       <use xlink:href="#DejaVuSans-2e" transform="translate(147.412109 0)"/>
       <use xlink:href="#DejaVuSans-32" transform="translate(179.199219 0)"/>
       <use xlink:href="#DejaVuSans-35" transform="translate(242.822266 0)"/>
      </g>
     </g>
    </g>
    <g id="ytick_4">
     <g id="line2d_25">
      <path d="M 57.6 172.894935 
L 414.72 172.894935 
" clip-path="url(#p2474987694)" style="fill: none; stroke: #b0b0b0; stroke-width: 0.8; stroke-linecap: square"/>
     </g>
     <g id="line2d_26">
      <g>
       <use xlink:href="#m83c1b89339" x="57.6" y="172.894935" style="stroke: #000000; stroke-width: 0.8"/>
      </g>
     </g>
     <g id="text_14">
      <!-- 0.00 -->
      <g transform="translate(28.334375 176.694154) scale(0.1 -0.1)">
       <use xlink:href="#DejaVuSans-30"/>
       <use xlink:href="#DejaVuSans-2e" transform="translate(63.623047 0)"/>
       <use xlink:href="#DejaVuSans-30" transform="translate(95.410156 0)"/>
       <use xlink:href="#DejaVuSans-30" transform="translate(159.033203 0)"/>
      </g>
     </g>
    </g>
    <g id="ytick_5">
     <g id="line2d_27">
      <path d="M 57.6 136.154351 
L 414.72 136.154351 
" clip-path="url(#p2474987694)" style="fill: none; stroke: #b0b0b0; stroke-width: 0.8; stroke-linecap: square"/>
     </g>
     <g id="line2d_28">
      <g>
       <use xlink:href="#m83c1b89339" x="57.6" y="136.154351" style="stroke: #000000; stroke-width: 0.8"/>
      </g>
     </g>
     <g id="text_15">
      <!-- 0.25 -->
      <g transform="translate(28.334375 139.95357) scale(0.1 -0.1)">
       <use xlink:href="#DejaVuSans-30"/>
       <use xlink:href="#DejaVuSans-2e" transform="translate(63.623047 0)"/>
       <use xlink:href="#DejaVuSans-32" transform="translate(95.410156 0)"/>
       <use xlink:href="#DejaVuSans-35" transform="translate(159.033203 0)"/>
      </g>
     </g>
    </g>
    <g id="ytick_6">
     <g id="line2d_29">
      <path d="M 57.6 99.413766 
L 414.72 99.413766 
" clip-path="url(#p2474987694)" style="fill: none; stroke: #b0b0b0; stroke-width: 0.8; stroke-linecap: square"/>
     </g>
     <g id="line2d_30">
      <g>
       <use xlink:href="#m83c1b89339" x="57.6" y="99.413766" style="stroke: #000000; stroke-width: 0.8"/>
      </g>
     </g>
     <g id="text_16">
      <!-- 0.50 -->
      <g transform="translate(28.334375 103.212985) scale(0.1 -0.1)">
       <use xlink:href="#DejaVuSans-30"/>
       <use xlink:href="#DejaVuSans-2e" transform="translate(63.623047 0)"/>
       <use xlink:href="#DejaVuSans-35" transform="translate(95.410156 0)"/>
       <use xlink:href="#DejaVuSans-30" transform="translate(159.033203 0)"/>
      </g>
     </g>
    </g>
    <g id="ytick_7">
     <g id="line2d_31">
      <path d="M 57.6 62.673182 
L 414.72 62.673182 
" clip-path="url(#p2474987694)" style="fill: none; stroke: #b0b0b0; stroke-width: 0.8; stroke-linecap: square"/>
     </g>
     <g id="line2d_32">
      <g>
       <use xlink:href="#m83c1b89339" x="57.6" y="62.673182" style="stroke: #000000; stroke-width: 0.8"/>
      </g>
     </g>
     <g id="text_17">
      <!-- 0.75 -->
      <g transform="translate(28.334375 66.472401) scale(0.1 -0.1)">
       <use xlink:href="#DejaVuSans-30"/>
       <use xlink:href="#DejaVuSans-2e" transform="translate(63.623047 0)"/>
       <use xlink:href="#DejaVuSans-37" transform="translate(95.410156 0)"/>
       <use xlink:href="#DejaVuSans-35" transform="translate(159.033203 0)"/>
      </g>
     </g>
    </g>
    <g id="text_18">
     <!-- quaternion -->
     <g transform="translate(13.875 201.725656) rotate(-90) scale(0.1 -0.1)">
      <defs>
       <path id="DejaVuSans-71" d="M 947 1747 
Q 947 1113 1208 752 
Q 1469 391 1925 391 
Q 2381 391 2643 752 
Q 2906 1113 2906 1747 
Q 2906 2381 2643 2742 
Q 2381 3103 1925 3103 
Q 1469 3103 1208 2742 
Q 947 2381 947 1747 
z
M 2906 525 
Q 2725 213 2448 61 
Q 2172 -91 1784 -91 
Q 1150 -91 751 415 
Q 353 922 353 1747 
Q 353 2572 751 3078 
Q 1150 3584 1784 3584 
Q 2172 3584 2448 3432 
Q 2725 3281 2906 2969 
L 2906 3500 
L 3481 3500 
L 3481 -1331 
L 2906 -1331 
L 2906 525 
z
" transform="scale(0.015625)"/>
       <path id="DejaVuSans-75" d="M 544 1381 
L 544 3500 
L 1119 3500 
L 1119 1403 
Q 1119 906 1312 657 
Q 1506 409 1894 409 
Q 2359 409 2629 706 
Q 2900 1003 2900 1516 
L 2900 3500 
L 3475 3500 
L 3475 0 
L 2900 0 
L 2900 538 
Q 2691 219 2414 64 
Q 2138 -91 1772 -91 
Q 1169 -91 856 284 
Q 544 659 544 1381 
z
M 1991 3584 
L 1991 3584 
z
" transform="scale(0.015625)"/>
       <path id="DejaVuSans-61" d="M 2194 1759 
Q 1497 1759 1228 1600 
Q 959 1441 959 1056 
Q 959 750 1161 570 
Q 1363 391 1709 391 
Q 2188 391 2477 730 
Q 2766 1069 2766 1631 
L 2766 1759 
L 2194 1759 
z
M 3341 1997 
L 3341 0 
L 2766 0 
L 2766 531 
Q 2569 213 2275 61 
Q 1981 -91 1556 -91 
Q 1019 -91 701 211 
Q 384 513 384 1019 
Q 384 1609 779 1909 
Q 1175 2209 1959 2209 
L 2766 2209 
L 2766 2266 
Q 2766 2663 2505 2880 
Q 2244 3097 1772 3097 
Q 1472 3097 1187 3025 
Q 903 2953 641 2809 
L 641 3341 
Q 956 3463 1253 3523 
Q 1550 3584 1831 3584 
Q 2591 3584 2966 3190 
Q 3341 2797 3341 1997 
z
" transform="scale(0.015625)"/>
       <path id="DejaVuSans-74" d="M 1172 4494 
L 1172 3500 
L 2356 3500 
L 2356 3053 
L 1172 3053 
L 1172 1153 
Q 1172 725 1289 603 
Q 1406 481 1766 481 
L 2356 481 
L 2356 0 
L 1766 0 
Q 1100 0 847 248 
Q 594 497 594 1153 
L 594 3053 
L 172 3053 
L 172 3500 
L 594 3500 
L 594 4494 
L 1172 4494 
z
" transform="scale(0.015625)"/>
       <path id="DejaVuSans-72" d="M 2631 2963 
Q 2534 3019 2420 3045 
Q 2306 3072 2169 3072 
Q 1681 3072 1420 2755 
Q 1159 2438 1159 1844 
L 1159 0 
L 581 0 
L 581 3500 
L 1159 3500 
L 1159 2956 
Q 1341 3275 1631 3429 
Q 1922 3584 2338 3584 
Q 2397 3584 2469 3576 
Q 2541 3569 2628 3553 
L 2631 2963 
z
" transform="scale(0.015625)"/>
       <path id="DejaVuSans-6e" d="M 3513 2113 
L 3513 0 
L 2938 0 
L 2938 2094 
Q 2938 2591 2744 2837 
Q 2550 3084 2163 3084 
Q 1697 3084 1428 2787 
Q 1159 2491 1159 1978 
L 1159 0 
L 581 0 
L 581 3500 
L 1159 3500 
L 1159 2956 
Q 1366 3272 1645 3428 
Q 1925 3584 2291 3584 
Q 2894 3584 3203 3211 
Q 3513 2838 3513 2113 
z
" transform="scale(0.015625)"/>
      </defs>
      <use xlink:href="#DejaVuSans-71"/>
      <use xlink:href="#DejaVuSans-75" transform="translate(63.476562 0)"/>
      <use xlink:href="#DejaVuSans-61" transform="translate(126.855469 0)"/>
      <use xlink:href="#DejaVuSans-74" transform="translate(188.134766 0)"/>
      <use xlink:href="#DejaVuSans-65" transform="translate(227.34375 0)"/>
      <use xlink:href="#DejaVuSans-72" transform="translate(288.867188 0)"/>
      <use xlink:href="#DejaVuSans-6e" transform="translate(328.230469 0)"/>
      <use xlink:href="#DejaVuSans-69" transform="translate(391.609375 0)"/>
      <use xlink:href="#DejaVuSans-6f" transform="translate(419.392578 0)"/>
      <use xlink:href="#DejaVuSans-6e" transform="translate(480.574219 0)"/>
     </g>
    </g>
   </g>
   <g id="line2d_33">
    <path d="M 73.832727 68.976869 
L 75.050182 69.087914 
L 75.99168 69.386868 
L 76.738385 69.859547 
L 77.403927 70.551834 
L 78.061353 71.578369 
L 79.075898 73.631627 
L 80.195956 76.428793 
L 81.429644 80.135832 
L 82.695796 84.647938 
L 83.970065 90.078392 
L 85.390429 97.146854 
L 86.989353 106.276543 
L 88.815535 118.041334 
L 90.99072 133.580996 
L 93.790865 155.307228 
L 102.556538 224.4898 
L 104.780422 239.654576 
L 106.663418 251.03047 
L 108.31104 259.679935 
L 109.763869 266.173417 
L 111.054371 270.974923 
L 112.198778 274.424494 
L 113.213324 276.819135 
L 114.11424 278.405754 
L 114.893411 279.358382 
L 115.583302 279.872542 
L 116.200145 280.066831 
L 116.784524 280.017977 
L 117.377018 279.736048 
L 118.010095 279.175731 
L 118.716218 278.235213 
L 119.503505 276.794351 
L 120.388189 274.686937 
L 121.378385 271.7229 
L 122.482211 267.681983 
L 123.715898 262.278503 
L 125.087564 255.226698 
L 126.629673 246.083178 
L 128.390924 234.237474 
L 130.444364 218.847756 
L 133.057833 197.472252 
L 142.010182 122.780895 
L 144.071738 108.244113 
L 145.832989 97.331082 
L 147.391331 89.007014 
L 148.779229 82.744928 
L 150.021033 78.119126 
L 151.132975 74.791977 
L 152.115055 72.51156 
L 152.983505 71.018317 
L 153.75456 70.109158 
L 154.428218 69.637164 
L 155.036945 69.470387 
L 155.621324 69.542197 
L 156.213818 69.84654 
L 156.855011 70.437537 
L 157.569251 71.41444 
L 158.372771 72.91137 
L 159.273687 75.083472 
L 160.288233 78.141937 
L 161.416407 82.283214 
L 162.674444 87.783467 
L 164.078575 94.960396 
L 165.653149 104.207626 
L 167.454982 116.168631 
L 169.589585 131.913714 
L 172.357265 154.117671 
L 179.678225 213.681989 
L 181.739782 228.16966 
L 183.452335 238.712559 
L 184.945745 246.588028 
L 186.260596 252.389048 
L 187.429353 256.592531 
L 188.460131 259.522025 
L 189.369164 261.484815 
L 190.172684 262.729421 
L 190.878807 263.440154 
L 191.503767 263.771224 
L 192.071913 263.829918 
L 192.631942 263.663374 
L 193.224436 263.246827 
L 193.881862 262.498837 
L 194.628567 261.291774 
L 195.472669 259.479185 
L 196.4304 256.866335 
L 197.517993 253.212927 
L 198.743564 248.273653 
L 200.123345 241.751835 
L 201.706036 233.153566 
L 203.556567 221.814028 
L 205.829149 206.416307 
L 209.043229 182.951291 
L 214.578589 142.512098 
L 216.87552 127.478193 
L 218.717935 116.819022 
L 220.284393 109.004678 
L 221.639825 103.325323 
L 222.816698 99.301531 
L 223.847476 96.525103 
L 224.748393 94.70187 
L 225.519447 93.605791 
L 226.193105 93.007092 
L 226.777484 92.763672 
L 227.32128 92.77014 
L 227.865076 93.002636 
L 228.449455 93.505344 
L 229.10688 94.38419 
L 229.853585 95.7818 
L 230.689571 97.846642 
L 231.639185 100.818927 
L 232.710545 104.947676 
L 233.919884 110.546128 
L 235.275316 117.916506 
L 236.849891 127.770465 
L 238.708538 140.885509 
L 241.127215 159.668821 
L 248.724131 219.834616 
L 250.639593 232.605006 
L 252.262865 241.997647 
L 253.675113 248.931379 
L 254.925033 254.012159 
L 256.028858 257.619425 
L 257.002822 260.086106 
L 257.85504 261.675777 
L 258.593629 262.61429 
L 259.234822 263.093379 
L 259.802967 263.254466 
L 260.338647 263.177818 
L 260.89056 262.865717 
L 261.491171 262.256349 
L 262.164829 261.237665 
L 262.927767 259.657252 
L 263.788102 257.33389 
L 264.753949 254.050482 
L 265.833425 249.552244 
L 267.034647 243.552016 
L 268.373847 235.687586 
L 269.891607 225.38901 
L 271.628509 212.000759 
L 273.681949 194.357075 
L 276.392815 168.989171 
L 282.950836 106.878572 
L 284.955578 90.431899 
L 286.595084 78.727173 
L 287.999215 70.225217 
L 289.216669 64.143915 
L 290.279913 59.897743 
L 291.205178 57.057242 
L 292.008698 55.260147 
L 292.690473 54.23596 
L 293.274851 53.729232 
L 293.778065 53.569783 
L 294.248815 53.653818 
L 294.735796 53.978603 
L 295.279593 54.62722 
L 295.904553 55.744083 
L 296.618793 57.503233 
L 297.438545 60.150501 
L 298.363811 63.928163 
L 299.410822 69.183504 
L 300.595811 76.332273 
L 301.926895 85.787151 
L 303.444655 98.237648 
L 305.214022 114.68719 
L 307.381091 137.035751 
L 310.773731 174.676693 
L 314.564073 216.03094 
L 316.698676 236.910247 
L 318.427462 251.742307 
L 319.912756 262.667164 
L 321.219491 270.713291 
L 322.372015 276.497874 
L 323.38656 280.520512 
L 324.271244 283.184566 
L 325.042298 284.852644 
L 325.699724 285.788389 
L 326.259753 286.230322 
L 326.746735 286.348719 
L 327.209367 286.23227 
L 327.696349 285.869392 
L 328.248262 285.161808 
L 328.889455 283.947835 
L 329.628044 282.03518 
L 330.464029 279.219024 
L 331.42176 275.169695 
L 332.509353 269.552265 
L 333.74304 261.951991 
L 335.155287 251.793175 
L 336.794793 238.304329 
L 338.775185 220.065037 
L 341.469818 193.001201 
L 347.305484 133.884185 
L 349.269644 116.549519 
L 350.860451 104.374814 
L 352.199651 95.738986 
L 353.360291 89.629276 
L 354.358604 85.496432 
L 355.210822 82.844109 
L 355.941295 81.241907 
L 356.550022 80.392606 
L 357.061353 80.027236 
L 357.499636 79.969827 
L 357.921687 80.138873 
L 358.38432 80.577964 
L 358.92 81.418552 
L 359.54496 82.848257 
L 360.267316 85.09794 
L 361.095185 88.452222 
L 362.036684 93.245067 
L 363.108044 99.910693 
L 364.325498 108.948031 
L 365.729629 121.115068 
L 367.385367 137.49935 
L 369.471273 160.498069 
L 373.764829 211.11004 
L 376.256553 238.789579 
L 378.034036 256.18801 
L 379.511215 268.563551 
L 380.769251 277.331031 
L 381.86496 283.494833 
L 382.814575 287.652935 
L 383.634327 290.321509 
L 384.332335 291.902707 
L 384.916713 292.73061 
L 385.403695 293.071897 
L 385.825745 293.110127 
L 386.23968 292.914898 
L 386.694196 292.434701 
L 387.22176 291.528912 
L 387.838604 289.997066 
L 388.56096 287.561146 
L 389.380713 283.968555 
L 390.322211 278.780821 
L 391.385455 271.603448 
L 392.586676 261.899627 
L 393.950225 248.996753 
L 395.549149 231.631134 
L 397.513309 207.701854 
L 398.487273 195.088523 
L 398.487273 195.088523 
" clip-path="url(#p2474987694)" style="fill: none; stroke: #1f77b4; stroke-width: 1.5; stroke-linecap: square"/>
   </g>
   <g id="line2d_34">
    <path d="M 73.832727 172.894935 
L 74.197964 173.008485 
L 74.587549 173.379694 
L 75.050182 174.154713 
L 75.602095 175.552644 
L 76.251404 177.855721 
L 77.006225 181.414667 
L 77.874676 186.65418 
L 82.127651 214.513929 
L 84.538211 228.902604 
L 86.510487 239.395045 
L 88.206807 247.273889 
L 89.683985 253.136428 
L 90.99072 257.463625 
L 92.15136 260.57706 
L 93.174022 262.719043 
L 94.074938 264.119897 
L 94.870342 264.966499 
L 95.560233 265.398467 
L 96.193309 265.543677 
L 96.802036 265.454854 
L 97.41888 265.13493 
L 98.084422 264.528915 
L 98.823011 263.538708 
L 99.65088 262.034619 
L 100.576145 259.863776 
L 101.606924 256.847634 
L 102.751331 252.781694 
L 104.033716 247.367034 
L 105.462196 240.334745 
L 107.085469 231.180348 
L 108.952233 219.328865 
L 111.224815 203.38692 
L 114.365847 179.624473 
L 120.45312 133.387819 
L 122.86368 116.966675 
L 124.844073 104.941606 
L 126.556625 95.847662 
L 128.066269 88.973693 
L 129.405469 83.856198 
L 130.598575 80.125024 
L 131.653702 77.507939 
L 132.587084 75.746284 
L 133.406836 74.638637 
L 134.137309 74.004763 
L 134.778502 73.726156 
L 135.370996 73.702155 
L 135.963491 73.903788 
L 136.588451 74.36195 
L 137.278342 75.160629 
L 138.04128 76.40243 
L 138.901615 78.251683 
L 139.859345 80.865294 
L 140.922589 84.43942 
L 142.107578 89.233872 
L 143.430545 95.553483 
L 144.907724 103.73974 
L 146.579695 114.309228 
L 148.519505 128.063483 
L 150.889484 146.548959 
L 154.590545 177.4397 
L 158.802938 212.100556 
L 161.140451 229.498921 
L 163.031564 241.984605 
L 164.671069 251.389104 
L 166.107665 258.399572 
L 167.390051 263.605393 
L 168.534458 267.366207 
L 169.549004 269.977821 
L 170.44992 271.714708 
L 171.237207 272.777476 
L 171.927098 273.357955 
L 172.535825 273.596639 
L 173.103971 273.587985 
L 173.680233 273.351419 
L 174.297076 272.845029 
L 174.986967 271.970946 
L 175.758022 270.612682 
L 176.634589 268.587486 
L 177.616669 265.722843 
L 178.712378 261.806268 
L 179.937949 256.562113 
L 181.309615 249.674263 
L 182.85984 240.696637 
L 184.629207 229.076947 
L 186.69888 213.936708 
L 189.320465 193.007051 
L 198.256582 120.225083 
L 200.196393 107.027252 
L 201.835898 97.3322 
L 203.256262 90.203615 
L 204.506182 85.015936 
L 205.601891 81.365848 
L 206.559622 78.896343 
L 207.395607 77.30778 
L 208.12608 76.360769 
L 208.759156 75.87697 
L 209.327302 75.710976 
L 209.862982 75.787146 
L 210.414895 76.101695 
L 211.023622 76.725452 
L 211.705396 77.765712 
L 212.476451 79.372714 
L 213.353018 81.743096 
L 214.343215 85.097097 
L 215.455156 89.682765 
L 216.721309 95.897367 
L 218.149789 104.069971 
L 219.805527 114.895898 
L 221.777804 129.339841 
L 224.366924 150.07763 
L 232.05312 212.709106 
L 234.139025 227.327235 
L 235.89216 238.118611 
L 237.426153 246.235528 
L 238.773469 252.221567 
L 239.958458 256.527794 
L 241.005469 259.541005 
L 241.922618 261.543393 
L 242.718022 262.782173 
L 243.407913 263.474402 
L 244.008524 263.782568 
L 244.560436 263.821577 
L 245.104233 263.629507 
L 245.680495 263.174879 
L 246.321687 262.364631 
L 247.035927 261.084526 
L 247.847564 259.147876 
L 248.756596 256.377032 
L 249.779258 252.513154 
L 250.923665 247.279776 
L 252.206051 240.32729 
L 253.650764 231.21341 
L 255.298385 219.339265 
L 257.254429 203.538253 
L 259.794851 181.065952 
L 266.482735 121.017851 
L 268.39008 106.395478 
L 269.972771 95.897153 
L 271.344436 88.222621 
L 272.537542 82.741564 
L 273.592669 78.883272 
L 274.517935 76.296121 
L 275.321455 74.669326 
L 276.011345 73.738485 
L 276.60384 73.285863 
L 277.123287 73.153092 
L 277.618385 73.256117 
L 278.137833 73.604516 
L 278.714095 74.2775 
L 279.37152 75.409912 
L 280.126342 77.182808 
L 280.986676 79.808714 
L 281.96064 83.537059 
L 283.056349 88.652504 
L 284.290036 95.515344 
L 285.694167 104.637943 
L 287.301207 116.604157 
L 289.200436 132.503252 
L 291.586647 154.472522 
L 296.375302 201.253673 
L 299.37024 229.176476 
L 301.456145 246.631089 
L 303.160582 259.117361 
L 304.621527 268.253255 
L 305.88768 274.826791 
L 306.983389 279.40628 
L 307.933004 282.483501 
L 308.752756 284.44178 
L 309.450764 285.581875 
L 310.043258 286.160708 
L 310.546473 286.367405 
L 311.009105 286.324354 
L 311.479855 286.050044 
L 311.999302 285.476603 
L 312.599913 284.459185 
L 313.289804 282.822554 
L 314.085207 280.319971 
L 314.978007 276.738611 
L 315.992553 271.704822 
L 317.13696 264.848426 
L 318.435578 255.652113 
L 319.920873 243.462928 
L 321.657775 227.267575 
L 323.792378 205.145838 
L 327.063273 168.607784 
L 330.910429 126.243039 
L 332.971985 105.971452 
L 334.627724 91.77245 
L 336.039971 81.482711 
L 337.265542 74.10096 
L 338.336902 68.926795 
L 339.270284 65.444698 
L 340.08192 63.220027 
L 340.771811 61.929514 
L 341.348073 61.279395 
L 341.835055 61.035419 
L 342.273338 61.055662 
L 342.719738 61.310006 
L 343.214836 61.867461 
L 343.791098 62.879266 
L 344.45664 64.52954 
L 345.227695 67.076915 
L 346.104262 70.784387 
L 347.102575 76.021617 
L 348.238865 83.231132 
L 349.529367 92.911243 
L 351.030895 105.944261 
L 352.832727 123.649148 
L 355.218938 149.477061 
L 361.314327 216.408103 
L 363.197324 234.131802 
L 364.771898 246.953837 
L 366.127331 256.262652 
L 367.31232 262.940897 
L 368.343098 267.560048 
L 369.244015 270.644222 
L 370.015069 272.553039 
L 370.672495 273.63601 
L 371.224407 274.152037 
L 371.695156 274.306101 
L 372.125324 274.215179 
L 372.57984 273.877936 
L 373.091171 273.20218 
L 373.683665 272.02731 
L 374.373556 270.131768 
L 375.16896 267.250795 
L 376.069876 263.105261 
L 377.092538 257.301786 
L 378.253178 249.373102 
L 379.576145 238.727998 
L 381.110138 224.491104 
L 382.952553 205.19152 
L 385.403695 176.964986 
L 391.434153 106.586772 
L 393.244102 88.586918 
L 394.713164 76.081417 
L 395.954967 67.309077 
L 397.018211 61.285718 
L 397.927244 57.319118 
L 398.487273 55.446522 
L 398.487273 55.446522 
" clip-path="url(#p2474987694)" style="fill: none; stroke: #ff7f0e; stroke-width: 1.5; stroke-linecap: square"/>
   </g>
   <g id="line2d_35">
    <path d="M 73.832727 172.894935 
L 74.173615 172.784374 
L 74.546967 172.409425 
L 74.993367 171.612125 
L 75.529047 170.15324 
L 76.154007 167.760116 
L 76.88448 164.017999 
L 77.720465 158.49346 
L 83.109731 119.431264 
L 85.398545 104.986382 
L 87.387055 93.804018 
L 89.164538 85.029019 
L 90.779695 78.136894 
L 92.248756 72.807535 
L 93.587956 68.753558 
L 94.797295 65.763211 
L 95.909236 63.580715 
L 96.915665 62.074776 
L 97.824698 61.097779 
L 98.644451 60.52823 
L 99.399273 60.262908 
L 100.121629 60.241471 
L 100.843985 60.444763 
L 101.590691 60.890584 
L 102.410444 61.652495 
L 103.295127 62.792514 
L 104.269091 64.423543 
L 105.348567 66.684742 
L 106.533556 69.705344 
L 107.832175 73.647409 
L 109.260655 78.720774 
L 110.835229 85.168348 
L 112.580247 93.295063 
L 114.520058 103.427831 
L 116.760175 116.366251 
L 119.479156 133.445851 
L 123.634735 161.165049 
L 129.064582 197.103635 
L 132.083869 215.571296 
L 134.632407 229.822985 
L 136.896873 241.264657 
L 138.950313 250.532095 
L 140.817076 257.96384 
L 142.513396 263.837037 
L 144.055505 268.40441 
L 145.45152 271.870455 
L 146.709556 274.423373 
L 147.837731 276.235521 
L 148.852276 277.467103 
L 149.761309 278.242546 
L 150.597295 278.677252 
L 151.376465 278.838168 
L 152.131287 278.768006 
L 152.894225 278.468799 
L 153.697745 277.905931 
L 154.566196 277.011429 
L 155.507695 275.708619 
L 156.546589 273.874802 
L 157.690996 271.384957 
L 158.957149 268.076873 
L 160.369396 263.73835 
L 161.952087 258.123999 
L 163.737687 250.934404 
L 165.783011 241.740881 
L 168.185455 229.875845 
L 171.099229 214.303442 
L 174.686662 193.864114 
L 179.588945 164.544897 
L 186.552785 122.960685 
L 189.385396 107.461945 
L 191.649862 96.258024 
L 193.589673 87.735975 
L 195.310342 81.139111 
L 196.860567 76.04232 
L 198.272815 72.135187 
L 199.563316 69.195719 
L 200.732073 67.058038 
L 201.811549 65.525842 
L 202.801745 64.489834 
L 203.710778 63.845531 
L 204.562996 63.503377 
L 205.390865 63.408698 
L 206.210618 63.542339 
L 207.046604 63.906055 
L 207.94752 64.55074 
L 208.913367 65.527967 
L 209.952262 66.903858 
L 211.088553 68.789472 
L 212.32224 71.284457 
L 213.645207 74.477477 
L 215.065571 78.507986 
L 216.567098 83.456151 
L 218.166022 89.512394 
L 219.870458 96.866077 
L 221.712873 105.837533 
L 223.725731 116.780694 
L 226.038895 130.637856 
L 228.968902 149.641145 
L 238.603025 213.213723 
L 241.289542 228.845602 
L 243.732567 241.781878 
L 245.988916 252.566339 
L 248.082938 261.52052 
L 249.9984 268.765269 
L 251.735302 274.491385 
L 253.277411 278.84558 
L 254.657193 282.110199 
L 255.89088 284.485345 
L 256.986589 286.13662 
L 257.960553 287.223107 
L 258.829004 287.877036 
L 259.624407 288.20754 
L 260.362996 288.279145 
L 261.093469 288.12394 
L 261.832058 287.736356 
L 262.627462 287.058279 
L 263.487796 286.022257 
L 264.445527 284.50403 
L 265.508771 282.380269 
L 266.701876 279.473558 
L 268.041076 275.599981 
L 269.583185 270.426432 
L 271.409367 263.475647 
L 273.665716 253.960839 
L 276.806749 239.665142 
L 282.058036 214.589579 
L 287.642095 186.904435 
L 295.628596 147.076432 
L 298.095971 136.095515 
L 300.165644 127.861477 
L 302.032407 121.318601 
L 303.777425 115.986086 
L 305.481862 111.47735 
L 307.194415 107.567543 
L 308.980015 104.037018 
L 311.017222 100.511773 
L 313.638807 96.452512 
L 317.859316 90.388457 
L 320.967884 86.252533 
L 322.964509 83.947884 
L 324.5472 82.448375 
L 325.894516 81.468764 
L 327.087622 80.86755 
L 328.199564 80.552177 
L 329.262807 80.480696 
L 330.317935 80.632749 
L 331.413644 81.017935 
L 332.590516 81.670738 
L 333.9216 82.670934 
L 335.520524 84.1632 
L 337.67136 86.495588 
L 342.744087 92.424413 
L 345.625396 96.005498 
L 347.394764 98.564881 
L 348.871942 101.094996 
L 350.25984 103.919139 
L 351.639622 107.248122 
L 353.043753 111.234197 
L 354.537164 116.165089 
L 356.184785 122.402043 
L 358.124596 130.662188 
L 360.827345 143.249915 
L 365.932538 167.108785 
L 368.359331 177.26447 
L 370.70496 186.131903 
L 373.391476 195.390171 
L 377.831127 209.752758 
L 382.993135 225.875494 
L 385.200785 232.048091 
L 386.888989 236.141195 
L 388.309353 239.031615 
L 389.559273 241.095007 
L 390.687447 242.544961 
L 391.726342 243.529298 
L 392.700305 244.154287 
L 393.64992 244.502686 
L 394.607651 244.618183 
L 395.638429 244.516124 
L 396.839651 244.166972 
L 398.487273 243.445285 
L 398.487273 243.445285 
" clip-path="url(#p2474987694)" style="fill: none; stroke: #2ca02c; stroke-width: 1.5; stroke-linecap: square"/>
   </g>
   <g id="line2d_36">
    <path d="M 73.832727 68.976869 
L 75.171927 68.865595 
L 77.274065 68.666569 
L 77.996422 68.853833 
L 78.645731 69.260737 
L 79.359971 69.982601 
L 80.163491 71.131795 
L 81.056291 72.819948 
L 82.054604 75.204636 
L 83.385687 79.015755 
L 84.862865 83.95048 
L 86.478022 90.15589 
L 88.255505 97.904524 
L 90.211549 107.456453 
L 92.435433 119.469511 
L 95.048902 134.866953 
L 98.57952 157.113593 
L 105.705687 202.243876 
L 108.481484 218.206642 
L 110.851462 230.57988 
L 112.977949 240.532961 
L 114.925876 248.613581 
L 116.711476 255.103949 
L 118.367215 260.311651 
L 119.876858 264.360105 
L 121.264756 267.478032 
L 122.547142 269.831494 
L 123.699665 271.503105 
L 124.746676 272.648768 
L 125.704407 273.378815 
L 126.572858 273.772338 
L 127.384495 273.905552 
L 128.188015 273.810178 
L 128.983418 273.489622 
L 129.82752 272.900858 
L 130.72032 271.995747 
L 131.686167 270.687766 
L 132.733178 268.882575 
L 133.877585 266.450005 
L 135.127505 263.251255 
L 136.507287 259.080459 
L 138.016931 253.781466 
L 139.697018 247.043189 
L 141.604364 238.4315 
L 143.803898 227.426732 
L 146.482298 212.828817 
L 150.102196 191.756154 
L 163.145193 114.716189 
L 165.945338 100.032897 
L 168.209804 89.290641 
L 170.149615 81.125593 
L 171.829702 74.973807 
L 173.323113 70.315935 
L 174.64608 66.884551 
L 175.831069 64.399041 
L 176.886196 62.673342 
L 177.835811 61.52309 
L 178.688029 60.820646 
L 179.4672 60.453093 
L 180.197673 60.347759 
L 180.920029 60.470031 
L 181.658618 60.826383 
L 182.454022 61.469114 
L 183.314356 62.461574 
L 184.272087 63.921942 
L 185.335331 65.97022 
L 186.52032 68.763758 
L 187.818938 72.417067 
L 189.263651 77.173984 
L 190.846342 83.177811 
L 192.583244 90.668023 
L 194.482473 99.877572 
L 196.544029 111.011498 
L 198.800378 124.459871 
L 201.324567 140.898347 
L 204.368204 162.271612 
L 215.00064 238.378323 
L 217.265105 252.165098 
L 219.237382 262.854164 
L 221.006749 271.268265 
L 222.621905 277.909046 
L 224.099084 283.077916 
L 225.454516 287.042278 
L 226.688204 289.994776 
L 227.816378 292.143422 
L 228.83904 293.634388 
L 229.764305 294.607962 
L 230.600291 295.179627 
L 231.363229 295.445713 
L 232.101818 295.469945 
L 232.824175 295.271126 
L 233.578996 294.826561 
L 234.382516 294.087257 
L 235.259084 292.96547 
L 236.216815 291.362579 
L 237.263825 289.158518 
L 238.408233 286.210043 
L 239.658153 282.350349 
L 241.029818 277.361103 
L 242.531345 271.028099 
L 244.203316 262.975004 
L 246.110662 252.643623 
L 248.383244 239.044384 
L 251.499927 218.912712 
L 259.096844 169.36401 
L 262.172945 151.065397 
L 264.981207 135.669435 
L 267.570327 122.677362 
L 269.90784 112.04594 
L 271.977513 103.625647 
L 273.811811 97.055329 
L 275.451316 91.979611 
L 276.920378 88.128715 
L 278.243345 85.259942 
L 279.436451 83.177081 
L 280.53216 81.692031 
L 281.538589 80.687567 
L 282.471971 80.058309 
L 283.356655 79.722359 
L 284.216989 79.627834 
L 285.109789 79.75812 
L 286.051287 80.129189 
L 287.073949 80.776909 
L 288.242705 81.787191 
L 289.663069 83.327583 
L 291.481135 85.648204 
L 295.685411 91.517192 
L 298.793978 95.596166 
L 305.960727 104.710566 
L 307.738211 107.545654 
L 309.466996 110.729268 
L 311.285062 114.561307 
L 313.306036 119.361407 
L 315.854575 126.022213 
L 323.289164 146.439976 
L 327.40416 157.987614 
L 329.652393 164.99527 
L 331.632785 171.904591 
L 333.588829 179.555808 
L 335.666618 188.617951 
L 338.085295 200.22401 
L 341.924335 219.936699 
L 345.584815 238.303057 
L 347.889862 248.749743 
L 349.845905 256.619506 
L 351.623389 262.875632 
L 353.271011 267.889593 
L 354.837469 271.969265 
L 356.338996 275.280025 
L 357.775593 277.929118 
L 359.147258 280.010414 
L 360.453993 281.59986 
L 361.655215 282.724963 
L 362.775273 283.478096 
L 363.806051 283.908538 
L 364.763782 284.07021 
L 365.672815 283.998043 
L 366.557498 283.703497 
L 367.450298 283.169134 
L 368.38368 282.341732 
L 369.36576 281.16034 
L 370.412771 279.53769 
L 371.540945 277.363091 
L 372.782749 274.465021 
L 374.170647 270.636693 
L 375.810153 265.419295 
L 377.960989 257.763928 
L 382.895738 239.966771 
L 384.559593 234.936425 
L 385.97184 231.337716 
L 387.237993 228.689622 
L 388.414865 226.724637 
L 389.526807 225.284741 
L 390.6144 224.2284 
L 391.726342 223.45208 
L 392.943796 222.872962 
L 394.54272 222.378929 
L 398.138269 221.34926 
L 398.487273 221.205305 
L 398.487273 221.205305 
" clip-path="url(#p2474987694)" style="fill: none; stroke-dasharray: 5.55,2.4; stroke-dashoffset: 0; stroke: #d62728; stroke-width: 1.5"/>
   </g>
   <g id="patch_3">
    <path d="M 57.6 307.584 
L 57.6 41.472 
" style="fill: none; stroke: #000000; stroke-width: 0.8; stroke-linejoin: miter; stroke-linecap: square"/>
   </g>
   <g id="patch_4">
    <path d="M 414.72 307.584 
L 414.72 41.472 
" style="fill: none; stroke: #000000; stroke-width: 0.8; stroke-linejoin: miter; stroke-linecap: square"/>
   </g>
   <g id="patch_5">
    <path d="M 57.6 307.584 
L 414.72 307.584 
" style="fill: none; stroke: #000000; stroke-width: 0.8; stroke-linejoin: miter; stroke-linecap: square"/>
   </g>
   <g id="patch_6">
    <path d="M 57.6 41.472 
L 414.72 41.472 
" style="fill: none; stroke: #000000; stroke-width: 0.8; stroke-linejoin: miter; stroke-linecap: square"/>
   </g>
   <g id="legend_1">
    <g id="patch_7">
     <path d="M 363.009063 108.1845 
L 407.72 108.1845 
Q 409.72 108.1845 409.72 106.1845 
L 409.72 48.472 
Q 409.72 46.472 407.72 46.472 
L 363.009063 46.472 
Q 361.009063 46.472 361.009063 48.472 
L 361.009063 106.1845 
Q 361.009063 108.1845 363.009063 108.1845 
z
" style="fill: #ffffff; opacity: 0.8; stroke: #cccccc; stroke-linejoin: miter"/>
    </g>
    <g id="line2d_37">
     <path d="M 365.009063 54.570438 
L 375.009063 54.570438 
L 385.009063 54.570438 
" style="fill: none; stroke: #1f77b4; stroke-width: 1.5; stroke-linecap: square"/>
    </g>
    <g id="text_19">
     <!-- q1 -->
     <g transform="translate(393.009063 58.070438) scale(0.1 -0.1)">
      <use xlink:href="#DejaVuSans-71"/>
      <use xlink:href="#DejaVuSans-31" transform="translate(63.476562 0)"/>
     </g>
    </g>
    <g id="line2d_38">
     <path d="M 365.009063 69.248563 
L 375.009063 69.248563 
L 385.009063 69.248563 
" style="fill: none; stroke: #ff7f0e; stroke-width: 1.5; stroke-linecap: square"/>
    </g>
    <g id="text_20">
     <!-- q2 -->
     <g transform="translate(393.009063 72.748563) scale(0.1 -0.1)">
      <use xlink:href="#DejaVuSans-71"/>
      <use xlink:href="#DejaVuSans-32" transform="translate(63.476562 0)"/>
     </g>
    </g>
    <g id="line2d_39">
     <path d="M 365.009063 83.926688 
L 375.009063 83.926688 
L 385.009063 83.926688 
" style="fill: none; stroke: #2ca02c; stroke-width: 1.5; stroke-linecap: square"/>
    </g>
    <g id="text_21">
     <!-- q3 -->
     <g transform="translate(393.009063 87.426688) scale(0.1 -0.1)">
      <use xlink:href="#DejaVuSans-71"/>
      <use xlink:href="#DejaVuSans-33" transform="translate(63.476562 0)"/>
     </g>
    </g>
    <g id="line2d_40">
     <path d="M 365.009063 98.604813 
L 375.009063 98.604813 
L 385.009063 98.604813 
" style="fill: none; stroke-dasharray: 5.55,2.4; stroke-dashoffset: 0; stroke: #d62728; stroke-width: 1.5"/>
    </g>
    <g id="text_22">
     <!-- q4 -->
     <g transform="translate(393.009063 102.104813) scale(0.1 -0.1)">
      <use xlink:href="#DejaVuSans-71"/>
      <use xlink:href="#DejaVuSans-34" transform="translate(63.476562 0)"/>
     </g>
    </g>
   </g>
  </g>
 </g>
 <defs>
  <clipPath id="p2474987694">
   <rect x="57.6" y="41.472" width="357.12" height="266.112"/>
  </clipPath>
 </defs>
</svg>
