<?xml version="1.0" encoding="utf-8" standalone="no"?>
<!DOCTYPE svg PUBLIC "-//W3C//DTD SVG 1.1//EN"
  "http://www.w3.org/Graphics/SVG/1.1/DTD/svg11.dtd">
<svg xmlns:xlink="http://www.w3.org/1999/xlink" width="460.8pt" height="345.6pt" viewBox="0 0 460.8 345.6" xmlns="http://www.w3.org/2000/svg" version="1.1">
 <metadata>
  <rdf:RDF xmlns:dc="http://purl.org/dc/elements/1.1/" xmlns:cc="http://creativecommons.org/ns#" xmlns:rdf="http://www.w3.org/1999/02/22-rdf-syntax-ns#">
   <cc:Work>
    <dc:type rdf:resource="http://purl.org/dc/dcmitype/StillImage"/>
    <dc:date>2025-09-09T23:36:14.704684</dc:date>
    <dc:format>image/svg+xml</dc:format>
    <dc:creator>
     <cc:Agent>
      <dc:title>Matplotlib v3.10.3, https://matplotlib.org/</dc:title>
     </cc:Agent>
    </dc:creator>
   </cc:Work>
  </rdf:RDF>
 </metadata>
 <defs>
  <style type="text/css">*{stroke-linejoin: round; stroke-linecap: butt}</style>
 </defs>
 <g id="figure_1">
  <g id="patch_1">
   <path d="M 0 345.6 
L 460.8 345.6 
L 460.8 0 
L 0 0 
z
" style="fill: #ffffff"/>
  </g>
  <g id="axes_1">
   <g id="patch_2">
    <path d="M 57.6 307.584 
L 414.72 307.584 
L 414.72 41.472 
L 57.6 41.472 
z
" style="fill: #ffffff"/>
   </g>
   <g id="matplotlib.axis_1">
    <g id="xtick_1">
     <g id="line2d_1">
      <path d="M 73.832727 307.584 
L 73.832727 41.472 
" clip-path="url(#pe5bdd77e1a)" style="fill: none; stroke: #b0b0b0; stroke-width: 0.8; stroke-linecap: square"/>
     </g>
     <g id="line2d_2">
      <defs>
       <path id="m2954fd6657" d="M 0 0 
L 0 3.5 
" style="stroke: #000000; stroke-width: 0.8"/>
      </defs>
      <g>
       <use xlink:href="#m2954fd6657" x="73.832727" y="307.584" style="stroke: #000000; stroke-width: 0.8"/>
      </g>
     </g>
     <g id="text_1">
      <!-- 0 -->
      <g transform="translate(70.651477 322.182437) scale(0.1 -0.1)">
       <defs>
        <path id="DejaVuSans-30" d="M 2034 4250 
Q 1547 4250 1301 3770 
Q 1056 3291 1056 2328 
Q 1056 1369 1301 889 
Q 1547 409 2034 409 
Q 2525 409 2770 889 
Q 3016 1369 3016 2328 
Q 3016 3291 2770 3770 
Q 2525 4250 2034 4250 
z
M 2034 4750 
Q 2819 4750 3233 4129 
Q 3647 3509 3647 2328 
Q 3647 1150 3233 529 
Q 2819 -91 2034 -91 
Q 1250 -91 836 529 
Q 422 1150 422 2328 
Q 422 3509 836 4129 
Q 1250 4750 2034 4750 
z
" transform="scale(0.015625)"/>
       </defs>
       <use xlink:href="#DejaVuSans-30"/>
      </g>
     </g>
    </g>
    <g id="xtick_2">
     <g id="line2d_3">
      <path d="M 114.414545 307.584 
L 114.414545 41.472 
" clip-path="url(#pe5bdd77e1a)" style="fill: none; stroke: #b0b0b0; stroke-width: 0.8; stroke-linecap: square"/>
     </g>
     <g id="line2d_4">
      <g>
       <use xlink:href="#m2954fd6657" x="114.414545" y="307.584" style="stroke: #000000; stroke-width: 0.8"/>
      </g>
     </g>
     <g id="text_2">
      <!-- 50 -->
      <g transform="translate(108.052045 322.182437) scale(0.1 -0.1)">
       <defs>
        <path id="DejaVuSans-35" d="M 691 4666 
L 3169 4666 
L 3169 4134 
L 1269 4134 
L 1269 2991 
Q 1406 3038 1543 3061 
Q 1681 3084 1819 3084 
Q 2600 3084 3056 2656 
Q 3513 2228 3513 1497 
Q 3513 744 3044 326 
Q 2575 -91 1722 -91 
Q 1428 -91 1123 -41 
Q 819 9 494 109 
L 494 744 
Q 775 591 1075 516 
Q 1375 441 1709 441 
Q 2250 441 2565 725 
Q 2881 1009 2881 1497 
Q 2881 1984 2565 2268 
Q 2250 2553 1709 2553 
Q 1456 2553 1204 2497 
Q 953 2441 691 2322 
L 691 4666 
z
" transform="scale(0.015625)"/>
       </defs>
       <use xlink:href="#DejaVuSans-35"/>
       <use xlink:href="#DejaVuSans-30" transform="translate(63.623047 0)"/>
      </g>
     </g>
    </g>
    <g id="xtick_3">
     <g id="line2d_5">
      <path d="M 154.996364 307.584 
L 154.996364 41.472 
" clip-path="url(#pe5bdd77e1a)" style="fill: none; stroke: #b0b0b0; stroke-width: 0.8; stroke-linecap: square"/>
     </g>
     <g id="line2d_6">
      <g>
       <use xlink:href="#m2954fd6657" x="154.996364" y="307.584" style="stroke: #000000; stroke-width: 0.8"/>
      </g>
     </g>
     <g id="text_3">
      <!-- 100 -->
      <g transform="translate(145.452614 322.182437) scale(0.1 -0.1)">
       <defs>
        <path id="DejaVuSans-31" d="M 794 531 
L 1825 531 
L 1825 4091 
L 703 3866 
L 703 4441 
L 1819 4666 
L 2450 4666 
L 2450 531 
L 3481 531 
L 3481 0 
L 794 0 
L 794 531 
z
" transform="scale(0.015625)"/>
       </defs>
       <use xlink:href="#DejaVuSans-31"/>
       <use xlink:href="#DejaVuSans-30" transform="translate(63.623047 0)"/>
       <use xlink:href="#DejaVuSans-30" transform="translate(127.246094 0)"/>
      </g>
     </g>
    </g>
    <g id="xtick_4">
     <g id="line2d_7">
      <path d="M 195.578182 307.584 
L 195.578182 41.472 
" clip-path="url(#pe5bdd77e1a)" style="fill: none; stroke: #b0b0b0; stroke-width: 0.8; stroke-linecap: square"/>
     </g>
     <g id="line2d_8">
      <g>
       <use xlink:href="#m2954fd6657" x="195.578182" y="307.584" style="stroke: #000000; stroke-width: 0.8"/>
      </g>
     </g>
     <g id="text_4">
      <!-- 150 -->
      <g transform="translate(186.034432 322.182437) scale(0.1 -0.1)">
       <use xlink:href="#DejaVuSans-31"/>
       <use xlink:href="#DejaVuSans-35" transform="translate(63.623047 0)"/>
       <use xlink:href="#DejaVuSans-30" transform="translate(127.246094 0)"/>
      </g>
     </g>
    </g>
    <g id="xtick_5">
     <g id="line2d_9">
      <path d="M 236.16 307.584 
L 236.16 41.472 
" clip-path="url(#pe5bdd77e1a)" style="fill: none; stroke: #b0b0b0; stroke-width: 0.8; stroke-linecap: square"/>
     </g>
     <g id="line2d_10">
      <g>
       <use xlink:href="#m2954fd6657" x="236.16" y="307.584" style="stroke: #000000; stroke-width: 0.8"/>
      </g>
     </g>
     <g id="text_5">
      <!-- 200 -->
      <g transform="translate(226.61625 322.182437) scale(0.1 -0.1)">
       <defs>
        <path id="DejaVuSans-32" d="M 1228 531 
L 3431 531 
L 3431 0 
L 469 0 
L 469 531 
Q 828 903 1448 1529 
Q 2069 2156 2228 2338 
Q 2531 2678 2651 2914 
Q 2772 3150 2772 3378 
Q 2772 3750 2511 3984 
Q 2250 4219 1831 4219 
Q 1534 4219 1204 4116 
Q 875 4013 500 3803 
L 500 4441 
Q 881 4594 1212 4672 
Q 1544 4750 1819 4750 
Q 2544 4750 2975 4387 
Q 3406 4025 3406 3419 
Q 3406 3131 3298 2873 
Q 3191 2616 2906 2266 
Q 2828 2175 2409 1742 
Q 1991 1309 1228 531 
z
" transform="scale(0.015625)"/>
       </defs>
       <use xlink:href="#DejaVuSans-32"/>
       <use xlink:href="#DejaVuSans-30" transform="translate(63.623047 0)"/>
       <use xlink:href="#DejaVuSans-30" transform="translate(127.246094 0)"/>
      </g>
     </g>
    </g>
    <g id="xtick_6">
     <g id="line2d_11">
      <path d="M 276.741818 307.584 
L 276.741818 41.472 
" clip-path="url(#pe5bdd77e1a)" style="fill: none; stroke: #b0b0b0; stroke-width: 0.8; stroke-linecap: square"/>
     </g>
     <g id="line2d_12">
      <g>
       <use xlink:href="#m2954fd6657" x="276.741818" y="307.584" style="stroke: #000000; stroke-width: 0.8"/>
      </g>
     </g>
     <g id="text_6">
      <!-- 250 -->
      <g transform="translate(267.198068 322.182437) scale(0.1 -0.1)">
       <use xlink:href="#DejaVuSans-32"/>
       <use xlink:href="#DejaVuSans-35" transform="translate(63.623047 0)"/>
       <use xlink:href="#DejaVuSans-30" transform="translate(127.246094 0)"/>
      </g>
     </g>
    </g>
    <g id="xtick_7">
     <g id="line2d_13">
      <path d="M 317.323636 307.584 
L 317.323636 41.472 
" clip-path="url(#pe5bdd77e1a)" style="fill: none; stroke: #b0b0b0; stroke-width: 0.8; stroke-linecap: square"/>
     </g>
     <g id="line2d_14">
      <g>
       <use xlink:href="#m2954fd6657" x="317.323636" y="307.584" style="stroke: #000000; stroke-width: 0.8"/>
      </g>
     </g>
     <g id="text_7">
      <!-- 300 -->
      <g transform="translate(307.779886 322.182437) scale(0.1 -0.1)">
       <defs>
        <path id="DejaVuSans-33" d="M 2597 2516 
Q 3050 2419 3304 2112 
Q 3559 1806 3559 1356 
Q 3559 666 3084 287 
Q 2609 -91 1734 -91 
Q 1441 -91 1130 -33 
Q 819 25 488 141 
L 488 750 
Q 750 597 1062 519 
Q 1375 441 1716 441 
Q 2309 441 2620 675 
Q 2931 909 2931 1356 
Q 2931 1769 2642 2001 
Q 2353 2234 1838 2234 
L 1294 2234 
L 1294 2753 
L 1863 2753 
Q 2328 2753 2575 2939 
Q 2822 3125 2822 3475 
Q 2822 3834 2567 4026 
Q 2313 4219 1838 4219 
Q 1578 4219 1281 4162 
Q 984 4106 628 3988 
L 628 4550 
Q 988 4650 1302 4700 
Q 1616 4750 1894 4750 
Q 2613 4750 3031 4423 
Q 3450 4097 3450 3541 
Q 3450 3153 3228 2886 
Q 3006 2619 2597 2516 
z
" transform="scale(0.015625)"/>
       </defs>
       <use xlink:href="#DejaVuSans-33"/>
       <use xlink:href="#DejaVuSans-30" transform="translate(63.623047 0)"/>
       <use xlink:href="#DejaVuSans-30" transform="translate(127.246094 0)"/>
      </g>
     </g>
    </g>
    <g id="xtick_8">
     <g id="line2d_15">
      <path d="M 357.905455 307.584 
L 357.905455 41.472 
" clip-path="url(#pe5bdd77e1a)" style="fill: none; stroke: #b0b0b0; stroke-width: 0.8; stroke-linecap: square"/>
     </g>
     <g id="line2d_16">
      <g>
       <use xlink:href="#m2954fd6657" x="357.905455" y="307.584" style="stroke: #000000; stroke-width: 0.8"/>
      </g>
     </g>
     <g id="text_8">
      <!-- 350 -->
      <g transform="translate(348.361705 322.182437) scale(0.1 -0.1)">
       <use xlink:href="#DejaVuSans-33"/>
       <use xlink:href="#DejaVuSans-35" transform="translate(63.623047 0)"/>
       <use xlink:href="#DejaVuSans-30" transform="translate(127.246094 0)"/>
      </g>
     </g>
    </g>
    <g id="xtick_9">
     <g id="line2d_17">
      <path d="M 398.487273 307.584 
L 398.487273 41.472 
" clip-path="url(#pe5bdd77e1a)" style="fill: none; stroke: #b0b0b0; stroke-width: 0.8; stroke-linecap: square"/>
     </g>
     <g id="line2d_18">
      <g>
       <use xlink:href="#m2954fd6657" x="398.487273" y="307.584" style="stroke: #000000; stroke-width: 0.8"/>
      </g>
     </g>
     <g id="text_9">
      <!-- 400 -->
      <g transform="translate(388.943523 322.182437) scale(0.1 -0.1)">
       <defs>
        <path id="DejaVuSans-34" d="M 2419 4116 
L 825 1625 
L 2419 1625 
L 2419 4116 
z
M 2253 4666 
L 3047 4666 
L 3047 1625 
L 3713 1625 
L 3713 1100 
L 3047 1100 
L 3047 0 
L 2419 0 
L 2419 1100 
L 313 1100 
L 313 1709 
L 2253 4666 
z
" transform="scale(0.015625)"/>
       </defs>
       <use xlink:href="#DejaVuSans-34"/>
       <use xlink:href="#DejaVuSans-30" transform="translate(63.623047 0)"/>
       <use xlink:href="#DejaVuSans-30" transform="translate(127.246094 0)"/>
      </g>
     </g>
    </g>
    <g id="text_10">
     <!-- Tiempo [s] -->
     <g transform="translate(209.5975 335.860562) scale(0.1 -0.1)">
      <defs>
       <path id="DejaVuSans-54" d="M -19 4666 
L 3928 4666 
L 3928 4134 
L 2272 4134 
L 2272 0 
L 1638 0 
L 1638 4134 
L -19 4134 
L -19 4666 
z
" transform="scale(0.015625)"/>
       <path id="DejaVuSans-69" d="M 603 3500 
L 1178 3500 
L 1178 0 
L 603 0 
L 603 3500 
z
M 603 4863 
L 1178 4863 
L 1178 4134 
L 603 4134 
L 603 4863 
z
" transform="scale(0.015625)"/>
       <path id="DejaVuSans-65" d="M 3597 1894 
L 3597 1613 
L 953 1613 
Q 991 1019 1311 708 
Q 1631 397 2203 397 
Q 2534 397 2845 478 
Q 3156 559 3463 722 
L 3463 178 
Q 3153 47 2828 -22 
Q 2503 -91 2169 -91 
Q 1331 -91 842 396 
Q 353 884 353 1716 
Q 353 2575 817 3079 
Q 1281 3584 2069 3584 
Q 2775 3584 3186 3129 
Q 3597 2675 3597 1894 
z
M 3022 2063 
Q 3016 2534 2758 2815 
Q 2500 3097 2075 3097 
Q 1594 3097 1305 2825 
Q 1016 2553 972 2059 
L 3022 2063 
z
" transform="scale(0.015625)"/>
       <path id="DejaVuSans-6d" d="M 3328 2828 
Q 3544 3216 3844 3400 
Q 4144 3584 4550 3584 
Q 5097 3584 5394 3201 
Q 5691 2819 5691 2113 
L 5691 0 
L 5113 0 
L 5113 2094 
Q 5113 2597 4934 2840 
Q 4756 3084 4391 3084 
Q 3944 3084 3684 2787 
Q 3425 2491 3425 1978 
L 3425 0 
L 2847 0 
L 2847 2094 
Q 2847 2600 2669 2842 
Q 2491 3084 2119 3084 
Q 1678 3084 1418 2786 
Q 1159 2488 1159 1978 
L 1159 0 
L 581 0 
L 581 3500 
L 1159 3500 
L 1159 2956 
Q 1356 3278 1631 3431 
Q 1906 3584 2284 3584 
Q 2666 3584 2933 3390 
Q 3200 3197 3328 2828 
z
" transform="scale(0.015625)"/>
       <path id="DejaVuSans-70" d="M 1159 525 
L 1159 -1331 
L 581 -1331 
L 581 3500 
L 1159 3500 
L 1159 2969 
Q 1341 3281 1617 3432 
Q 1894 3584 2278 3584 
Q 2916 3584 3314 3078 
Q 3713 2572 3713 1747 
Q 3713 922 3314 415 
Q 2916 -91 2278 -91 
Q 1894 -91 1617 61 
Q 1341 213 1159 525 
z
M 3116 1747 
Q 3116 2381 2855 2742 
Q 2594 3103 2138 3103 
Q 1681 3103 1420 2742 
Q 1159 2381 1159 1747 
Q 1159 1113 1420 752 
Q 1681 391 2138 391 
Q 2594 391 2855 752 
Q 3116 1113 3116 1747 
z
" transform="scale(0.015625)"/>
       <path id="DejaVuSans-6f" d="M 1959 3097 
Q 1497 3097 1228 2736 
Q 959 2375 959 1747 
Q 959 1119 1226 758 
Q 1494 397 1959 397 
Q 2419 397 2687 759 
Q 2956 1122 2956 1747 
Q 2956 2369 2687 2733 
Q 2419 3097 1959 3097 
z
M 1959 3584 
Q 2709 3584 3137 3096 
Q 3566 2609 3566 1747 
Q 3566 888 3137 398 
Q 2709 -91 1959 -91 
Q 1206 -91 779 398 
Q 353 888 353 1747 
Q 353 2609 779 3096 
Q 1206 3584 1959 3584 
z
" transform="scale(0.015625)"/>
       <path id="DejaVuSans-20" transform="scale(0.015625)"/>
       <path id="DejaVuSans-5b" d="M 550 4863 
L 1875 4863 
L 1875 4416 
L 1125 4416 
L 1125 -397 
L 1875 -397 
L 1875 -844 
L 550 -844 
L 550 4863 
z
" transform="scale(0.015625)"/>
       <path id="DejaVuSans-73" d="M 2834 3397 
L 2834 2853 
Q 2591 2978 2328 3040 
Q 2066 3103 1784 3103 
Q 1356 3103 1142 2972 
Q 928 2841 928 2578 
Q 928 2378 1081 2264 
Q 1234 2150 1697 2047 
L 1894 2003 
Q 2506 1872 2764 1633 
Q 3022 1394 3022 966 
Q 3022 478 2636 193 
Q 2250 -91 1575 -91 
Q 1294 -91 989 -36 
Q 684 19 347 128 
L 347 722 
Q 666 556 975 473 
Q 1284 391 1588 391 
Q 1994 391 2212 530 
Q 2431 669 2431 922 
Q 2431 1156 2273 1281 
Q 2116 1406 1581 1522 
L 1381 1569 
Q 847 1681 609 1914 
Q 372 2147 372 2553 
Q 372 3047 722 3315 
Q 1072 3584 1716 3584 
Q 2034 3584 2315 3537 
Q 2597 3491 2834 3397 
z
" transform="scale(0.015625)"/>
       <path id="DejaVuSans-5d" d="M 1947 4863 
L 1947 -844 
L 622 -844 
L 622 -397 
L 1369 -397 
L 1369 4416 
L 622 4416 
L 622 4863 
L 1947 4863 
z
" transform="scale(0.015625)"/>
      </defs>
      <use xlink:href="#DejaVuSans-54"/>
      <use xlink:href="#DejaVuSans-69" transform="translate(57.958984 0)"/>
      <use xlink:href="#DejaVuSans-65" transform="translate(85.742188 0)"/>
      <use xlink:href="#DejaVuSans-6d" transform="translate(147.265625 0)"/>
      <use xlink:href="#DejaVuSans-70" transform="translate(244.677734 0)"/>
      <use xlink:href="#DejaVuSans-6f" transform="translate(308.154297 0)"/>
      <use xlink:href="#DejaVuSans-20" transform="translate(369.335938 0)"/>
      <use xlink:href="#DejaVuSans-5b" transform="translate(401.123047 0)"/>
      <use xlink:href="#DejaVuSans-73" transform="translate(440.136719 0)"/>
      <use xlink:href="#DejaVuSans-5d" transform="translate(492.236328 0)"/>
     </g>
    </g>
   </g>
   <g id="matplotlib.axis_2">
    <g id="ytick_1">
     <g id="line2d_19">
      <path d="M 57.6 282.551694 
L 414.72 282.551694 
" clip-path="url(#pe5bdd77e1a)" style="fill: none; stroke: #b0b0b0; stroke-width: 0.8; stroke-linecap: square"/>
     </g>
     <g id="line2d_20">
      <defs>
       <path id="m86231884e2" d="M 0 0 
L -3.5 0 
" style="stroke: #000000; stroke-width: 0.8"/>
      </defs>
      <g>
       <use xlink:href="#m86231884e2" x="57.6" y="282.551694" style="stroke: #000000; stroke-width: 0.8"/>
      </g>
     </g>
     <g id="text_11">
      <!-- −4 -->
      <g transform="translate(35.857813 286.350912) scale(0.1 -0.1)">
       <defs>
        <path id="DejaVuSans-2212" d="M 678 2272 
L 4684 2272 
L 4684 1741 
L 678 1741 
L 678 2272 
z
" transform="scale(0.015625)"/>
       </defs>
       <use xlink:href="#DejaVuSans-2212"/>
       <use xlink:href="#DejaVuSans-34" transform="translate(83.789062 0)"/>
      </g>
     </g>
    </g>
    <g id="ytick_2">
     <g id="line2d_21">
      <path d="M 57.6 242.940522 
L 414.72 242.940522 
" clip-path="url(#pe5bdd77e1a)" style="fill: none; stroke: #b0b0b0; stroke-width: 0.8; stroke-linecap: square"/>
     </g>
     <g id="line2d_22">
      <g>
       <use xlink:href="#m86231884e2" x="57.6" y="242.940522" style="stroke: #000000; stroke-width: 0.8"/>
      </g>
     </g>
     <g id="text_12">
      <!-- −2 -->
      <g transform="translate(35.857813 246.73974) scale(0.1 -0.1)">
       <use xlink:href="#DejaVuSans-2212"/>
       <use xlink:href="#DejaVuSans-32" transform="translate(83.789062 0)"/>
      </g>
     </g>
    </g>
    <g id="ytick_3">
     <g id="line2d_23">
      <path d="M 57.6 203.32935 
L 414.72 203.32935 
" clip-path="url(#pe5bdd77e1a)" style="fill: none; stroke: #b0b0b0; stroke-width: 0.8; stroke-linecap: square"/>
     </g>
     <g id="line2d_24">
      <g>
       <use xlink:href="#m86231884e2" x="57.6" y="203.32935" style="stroke: #000000; stroke-width: 0.8"/>
      </g>
     </g>
     <g id="text_13">
      <!-- 0 -->
      <g transform="translate(44.2375 207.128568) scale(0.1 -0.1)">
       <use xlink:href="#DejaVuSans-30"/>
      </g>
     </g>
    </g>
    <g id="ytick_4">
     <g id="line2d_25">
      <path d="M 57.6 163.718178 
L 414.72 163.718178 
" clip-path="url(#pe5bdd77e1a)" style="fill: none; stroke: #b0b0b0; stroke-width: 0.8; stroke-linecap: square"/>
     </g>
     <g id="line2d_26">
      <g>
       <use xlink:href="#m86231884e2" x="57.6" y="163.718178" style="stroke: #000000; stroke-width: 0.8"/>
      </g>
     </g>
     <g id="text_14">
      <!-- 2 -->
      <g transform="translate(44.2375 167.517397) scale(0.1 -0.1)">
       <use xlink:href="#DejaVuSans-32"/>
      </g>
     </g>
    </g>
    <g id="ytick_5">
     <g id="line2d_27">
      <path d="M 57.6 124.107006 
L 414.72 124.107006 
" clip-path="url(#pe5bdd77e1a)" style="fill: none; stroke: #b0b0b0; stroke-width: 0.8; stroke-linecap: square"/>
     </g>
     <g id="line2d_28">
      <g>
       <use xlink:href="#m86231884e2" x="57.6" y="124.107006" style="stroke: #000000; stroke-width: 0.8"/>
      </g>
     </g>
     <g id="text_15">
      <!-- 4 -->
      <g transform="translate(44.2375 127.906225) scale(0.1 -0.1)">
       <use xlink:href="#DejaVuSans-34"/>
      </g>
     </g>
    </g>
    <g id="ytick_6">
     <g id="line2d_29">
      <path d="M 57.6 84.495834 
L 414.72 84.495834 
" clip-path="url(#pe5bdd77e1a)" style="fill: none; stroke: #b0b0b0; stroke-width: 0.8; stroke-linecap: square"/>
     </g>
     <g id="line2d_30">
      <g>
       <use xlink:href="#m86231884e2" x="57.6" y="84.495834" style="stroke: #000000; stroke-width: 0.8"/>
      </g>
     </g>
     <g id="text_16">
      <!-- 6 -->
      <g transform="translate(44.2375 88.295053) scale(0.1 -0.1)">
       <defs>
        <path id="DejaVuSans-36" d="M 2113 2584 
Q 1688 2584 1439 2293 
Q 1191 2003 1191 1497 
Q 1191 994 1439 701 
Q 1688 409 2113 409 
Q 2538 409 2786 701 
Q 3034 994 3034 1497 
Q 3034 2003 2786 2293 
Q 2538 2584 2113 2584 
z
M 3366 4563 
L 3366 3988 
Q 3128 4100 2886 4159 
Q 2644 4219 2406 4219 
Q 1781 4219 1451 3797 
Q 1122 3375 1075 2522 
Q 1259 2794 1537 2939 
Q 1816 3084 2150 3084 
Q 2853 3084 3261 2657 
Q 3669 2231 3669 1497 
Q 3669 778 3244 343 
Q 2819 -91 2113 -91 
Q 1303 -91 875 529 
Q 447 1150 447 2328 
Q 447 3434 972 4092 
Q 1497 4750 2381 4750 
Q 2619 4750 2861 4703 
Q 3103 4656 3366 4563 
z
" transform="scale(0.015625)"/>
       </defs>
       <use xlink:href="#DejaVuSans-36"/>
      </g>
     </g>
    </g>
    <g id="ytick_7">
     <g id="line2d_31">
      <path d="M 57.6 44.884662 
L 414.72 44.884662 
" clip-path="url(#pe5bdd77e1a)" style="fill: none; stroke: #b0b0b0; stroke-width: 0.8; stroke-linecap: square"/>
     </g>
     <g id="line2d_32">
      <g>
       <use xlink:href="#m86231884e2" x="57.6" y="44.884662" style="stroke: #000000; stroke-width: 0.8"/>
      </g>
     </g>
     <g id="text_17">
      <!-- 8 -->
      <g transform="translate(44.2375 48.683881) scale(0.1 -0.1)">
       <defs>
        <path id="DejaVuSans-38" d="M 2034 2216 
Q 1584 2216 1326 1975 
Q 1069 1734 1069 1313 
Q 1069 891 1326 650 
Q 1584 409 2034 409 
Q 2484 409 2743 651 
Q 3003 894 3003 1313 
Q 3003 1734 2745 1975 
Q 2488 2216 2034 2216 
z
M 1403 2484 
Q 997 2584 770 2862 
Q 544 3141 544 3541 
Q 544 4100 942 4425 
Q 1341 4750 2034 4750 
Q 2731 4750 3128 4425 
Q 3525 4100 3525 3541 
Q 3525 3141 3298 2862 
Q 3072 2584 2669 2484 
Q 3125 2378 3379 2068 
Q 3634 1759 3634 1313 
Q 3634 634 3220 271 
Q 2806 -91 2034 -91 
Q 1263 -91 848 271 
Q 434 634 434 1313 
Q 434 1759 690 2068 
Q 947 2378 1403 2484 
z
M 1172 3481 
Q 1172 3119 1398 2916 
Q 1625 2713 2034 2713 
Q 2441 2713 2670 2916 
Q 2900 3119 2900 3481 
Q 2900 3844 2670 4047 
Q 2441 4250 2034 4250 
Q 1625 4250 1398 4047 
Q 1172 3844 1172 3481 
z
" transform="scale(0.015625)"/>
       </defs>
       <use xlink:href="#DejaVuSans-38"/>
      </g>
     </g>
    </g>
    <g id="text_18">
     <!-- Velocidades angulares [°/s] -->
     <g transform="translate(29.778125 242.839719) rotate(-90) scale(0.1 -0.1)">
      <defs>
       <path id="DejaVuSans-56" d="M 1831 0 
L 50 4666 
L 709 4666 
L 2188 738 
L 3669 4666 
L 4325 4666 
L 2547 0 
L 1831 0 
z
" transform="scale(0.015625)"/>
       <path id="DejaVuSans-6c" d="M 603 4863 
L 1178 4863 
L 1178 0 
L 603 0 
L 603 4863 
z
" transform="scale(0.015625)"/>
       <path id="DejaVuSans-63" d="M 3122 3366 
L 3122 2828 
Q 2878 2963 2633 3030 
Q 2388 3097 2138 3097 
Q 1578 3097 1268 2742 
Q 959 2388 959 1747 
Q 959 1106 1268 751 
Q 1578 397 2138 397 
Q 2388 397 2633 464 
Q 2878 531 3122 666 
L 3122 134 
Q 2881 22 2623 -34 
Q 2366 -91 2075 -91 
Q 1284 -91 818 406 
Q 353 903 353 1747 
Q 353 2603 823 3093 
Q 1294 3584 2113 3584 
Q 2378 3584 2631 3529 
Q 2884 3475 3122 3366 
z
" transform="scale(0.015625)"/>
       <path id="DejaVuSans-64" d="M 2906 2969 
L 2906 4863 
L 3481 4863 
L 3481 0 
L 2906 0 
L 2906 525 
Q 2725 213 2448 61 
Q 2172 -91 1784 -91 
Q 1150 -91 751 415 
Q 353 922 353 1747 
Q 353 2572 751 3078 
Q 1150 3584 1784 3584 
Q 2172 3584 2448 3432 
Q 2725 3281 2906 2969 
z
M 947 1747 
Q 947 1113 1208 752 
Q 1469 391 1925 391 
Q 2381 391 2643 752 
Q 2906 1113 2906 1747 
Q 2906 2381 2643 2742 
Q 2381 3103 1925 3103 
Q 1469 3103 1208 2742 
Q 947 2381 947 1747 
z
" transform="scale(0.015625)"/>
       <path id="DejaVuSans-61" d="M 2194 1759 
Q 1497 1759 1228 1600 
Q 959 1441 959 1056 
Q 959 750 1161 570 
Q 1363 391 1709 391 
Q 2188 391 2477 730 
Q 2766 1069 2766 1631 
L 2766 1759 
L 2194 1759 
z
M 3341 1997 
L 3341 0 
L 2766 0 
L 2766 531 
Q 2569 213 2275 61 
Q 1981 -91 1556 -91 
Q 1019 -91 701 211 
Q 384 513 384 1019 
Q 384 1609 779 1909 
Q 1175 2209 1959 2209 
L 2766 2209 
L 2766 2266 
Q 2766 2663 2505 2880 
Q 2244 3097 1772 3097 
Q 1472 3097 1187 3025 
Q 903 2953 641 2809 
L 641 3341 
Q 956 3463 1253 3523 
Q 1550 3584 1831 3584 
Q 2591 3584 2966 3190 
Q 3341 2797 3341 1997 
z
" transform="scale(0.015625)"/>
       <path id="DejaVuSans-6e" d="M 3513 2113 
L 3513 0 
L 2938 0 
L 2938 2094 
Q 2938 2591 2744 2837 
Q 2550 3084 2163 3084 
Q 1697 3084 1428 2787 
Q 1159 2491 1159 1978 
L 1159 0 
L 581 0 
L 581 3500 
L 1159 3500 
L 1159 2956 
Q 1366 3272 1645 3428 
Q 1925 3584 2291 3584 
Q 2894 3584 3203 3211 
Q 3513 2838 3513 2113 
z
" transform="scale(0.015625)"/>
       <path id="DejaVuSans-67" d="M 2906 1791 
Q 2906 2416 2648 2759 
Q 2391 3103 1925 3103 
Q 1463 3103 1205 2759 
Q 947 2416 947 1791 
Q 947 1169 1205 825 
Q 1463 481 1925 481 
Q 2391 481 2648 825 
Q 2906 1169 2906 1791 
z
M 3481 434 
Q 3481 -459 3084 -895 
Q 2688 -1331 1869 -1331 
Q 1566 -1331 1297 -1286 
Q 1028 -1241 775 -1147 
L 775 -588 
Q 1028 -725 1275 -790 
Q 1522 -856 1778 -856 
Q 2344 -856 2625 -561 
Q 2906 -266 2906 331 
L 2906 616 
Q 2728 306 2450 153 
Q 2172 0 1784 0 
Q 1141 0 747 490 
Q 353 981 353 1791 
Q 353 2603 747 3093 
Q 1141 3584 1784 3584 
Q 2172 3584 2450 3431 
Q 2728 3278 2906 2969 
L 2906 3500 
L 3481 3500 
L 3481 434 
z
" transform="scale(0.015625)"/>
       <path id="DejaVuSans-75" d="M 544 1381 
L 544 3500 
L 1119 3500 
L 1119 1403 
Q 1119 906 1312 657 
Q 1506 409 1894 409 
Q 2359 409 2629 706 
Q 2900 1003 2900 1516 
L 2900 3500 
L 3475 3500 
L 3475 0 
L 2900 0 
L 2900 538 
Q 2691 219 2414 64 
Q 2138 -91 1772 -91 
Q 1169 -91 856 284 
Q 544 659 544 1381 
z
M 1991 3584 
L 1991 3584 
z
" transform="scale(0.015625)"/>
       <path id="DejaVuSans-72" d="M 2631 2963 
Q 2534 3019 2420 3045 
Q 2306 3072 2169 3072 
Q 1681 3072 1420 2755 
Q 1159 2438 1159 1844 
L 1159 0 
L 581 0 
L 581 3500 
L 1159 3500 
L 1159 2956 
Q 1341 3275 1631 3429 
Q 1922 3584 2338 3584 
Q 2397 3584 2469 3576 
Q 2541 3569 2628 3553 
L 2631 2963 
z
" transform="scale(0.015625)"/>
       <path id="DejaVuSans-b0" d="M 1600 4347 
Q 1350 4347 1178 4173 
Q 1006 4000 1006 3750 
Q 1006 3503 1178 3333 
Q 1350 3163 1600 3163 
Q 1850 3163 2022 3333 
Q 2194 3503 2194 3750 
Q 2194 3997 2020 4172 
Q 1847 4347 1600 4347 
z
M 1600 4750 
Q 1800 4750 1984 4673 
Q 2169 4597 2303 4453 
Q 2447 4313 2519 4134 
Q 2591 3956 2591 3750 
Q 2591 3338 2302 3052 
Q 2013 2766 1594 2766 
Q 1172 2766 890 3047 
Q 609 3328 609 3750 
Q 609 4169 896 4459 
Q 1184 4750 1600 4750 
z
" transform="scale(0.015625)"/>
       <path id="DejaVuSans-2f" d="M 1625 4666 
L 2156 4666 
L 531 -594 
L 0 -594 
L 1625 4666 
z
" transform="scale(0.015625)"/>
      </defs>
      <use xlink:href="#DejaVuSans-56"/>
      <use xlink:href="#DejaVuSans-65" transform="translate(60.658203 0)"/>
      <use xlink:href="#DejaVuSans-6c" transform="translate(122.181641 0)"/>
      <use xlink:href="#DejaVuSans-6f" transform="translate(149.964844 0)"/>
      <use xlink:href="#DejaVuSans-63" transform="translate(211.146484 0)"/>
      <use xlink:href="#DejaVuSans-69" transform="translate(266.126953 0)"/>
      <use xlink:href="#DejaVuSans-64" transform="translate(293.910156 0)"/>
      <use xlink:href="#DejaVuSans-61" transform="translate(357.386719 0)"/>
      <use xlink:href="#DejaVuSans-64" transform="translate(418.666016 0)"/>
      <use xlink:href="#DejaVuSans-65" transform="translate(482.142578 0)"/>
      <use xlink:href="#DejaVuSans-73" transform="translate(543.666016 0)"/>
      <use xlink:href="#DejaVuSans-20" transform="translate(595.765625 0)"/>
      <use xlink:href="#DejaVuSans-61" transform="translate(627.552734 0)"/>
      <use xlink:href="#DejaVuSans-6e" transform="translate(688.832031 0)"/>
      <use xlink:href="#DejaVuSans-67" transform="translate(752.210938 0)"/>
      <use xlink:href="#DejaVuSans-75" transform="translate(815.6875 0)"/>
      <use xlink:href="#DejaVuSans-6c" transform="translate(879.066406 0)"/>
      <use xlink:href="#DejaVuSans-61" transform="translate(906.849609 0)"/>
      <use xlink:href="#DejaVuSans-72" transform="translate(968.128906 0)"/>
      <use xlink:href="#DejaVuSans-65" transform="translate(1006.992188 0)"/>
      <use xlink:href="#DejaVuSans-73" transform="translate(1068.515625 0)"/>
      <use xlink:href="#DejaVuSans-20" transform="translate(1120.615234 0)"/>
      <use xlink:href="#DejaVuSans-5b" transform="translate(1152.402344 0)"/>
      <use xlink:href="#DejaVuSans-b0" transform="translate(1191.416016 0)"/>
      <use xlink:href="#DejaVuSans-2f" transform="translate(1241.416016 0)"/>
      <use xlink:href="#DejaVuSans-73" transform="translate(1275.107422 0)"/>
      <use xlink:href="#DejaVuSans-5d" transform="translate(1327.207031 0)"/>
     </g>
    </g>
   </g>
   <g id="line2d_33">
    <path d="M 73.832727 203.32935 
L 75.967331 208.763861 
L 77.793513 214.752681 
L 77.890909 215.164087 
L 77.996422 215.117192 
L 78.710662 214.503532 
L 78.986618 214.357448 
L 79.221993 214.142583 
L 79.489833 214.018261 
L 79.717091 213.831575 
L 79.984931 213.713757 
L 80.204073 213.562537 
L 80.480029 213.442431 
L 80.699171 213.320127 
L 80.975127 213.206005 
L 81.202385 213.107049 
L 81.478342 213.007078 
L 81.713716 212.926484 
L 81.949091 212.844243 
L 81.957207 212.865271 
L 82.590284 214.203047 
L 83.734691 216.318418 
L 84.075578 216.919369 
L 84.684305 217.900216 
L 86.770211 220.427779 
L 87.119215 220.714273 
L 87.387055 220.867789 
L 87.606196 221.043176 
L 87.874036 221.174573 
L 88.093178 221.290042 
L 88.361018 221.400156 
L 88.604509 221.472676 
L 88.864233 221.536653 
L 89.11584 221.562078 
L 89.367447 221.582254 
L 89.643404 221.563739 
L 89.870662 221.536177 
L 90.162851 221.462748 
L 90.373876 221.398137 
L 90.698531 221.263567 
L 90.90144 221.142946 
L 91.217978 220.964016 
L 91.420887 220.797931 
L 91.745542 220.564305 
L 91.964684 220.322741 
L 92.297455 220.045746 
L 92.914298 219.313845 
L 93.693469 218.199465 
L 94.001891 217.725519 
L 94.699898 216.527707 
L 95.065135 215.847163 
L 95.884887 214.279878 
L 97.06176 211.620893 
L 97.808465 209.839849 
L 98.189935 208.858307 
L 104.926516 192.205132 
L 105.656989 190.83748 
L 106.43616 189.419022 
L 107.288378 188.174383 
L 107.621149 187.793513 
L 109.147025 186.338893 
L 109.422982 186.09346 
L 110.00736 185.842591 
L 110.429411 185.735452 
L 110.648553 185.774732 
L 110.875811 185.72927 
L 111.086836 185.749196 
L 111.370909 185.798861 
L 111.590051 185.852083 
L 111.906589 185.966096 
L 112.109498 186.074339 
L 112.434153 186.24902 
L 112.637062 186.415748 
L 112.961716 186.644613 
L 113.180858 186.891432 
L 113.521745 187.181303 
L 114.195404 188.052249 
L 114.885295 189.074873 
L 115.234298 189.646755 
L 115.981004 190.984489 
L 116.273193 191.607275 
L 117.547462 194.390079 
L 118.13184 195.81449 
L 119.868742 200.563606 
L 121.183593 204.28458 
L 126.085876 218.003589 
L 128.252945 222.441527 
L 128.561367 223.001625 
L 129.170095 223.907087 
L 130.931345 225.607071 
L 131.450793 225.875892 
L 131.88096 226.010701 
L 132.108218 226.102349 
L 132.319244 226.08798 
L 132.578967 226.079914 
L 132.798109 226.053586 
L 133.114647 225.964567 
L 133.317556 225.87565 
L 133.642211 225.717745 
L 133.84512 225.564287 
L 134.169775 225.343072 
L 134.3808 225.114823 
L 134.721687 224.820436 
L 135.322298 224.075673 
L 137.740975 219.627174 
L 138.292887 218.321688 
L 139.055825 216.266303 
L 141.929018 207.666224 
L 144.428858 199.417668 
L 147.813382 189.149362 
L 149.931753 184.39856 
L 150.296989 183.72072 
L 150.938182 182.741744 
L 151.287185 182.263828 
L 151.61184 181.949913 
L 152.488407 181.118717 
L 152.756247 180.965711 
L 153.024087 180.840282 
L 153.267578 180.753773 
L 153.519185 180.692236 
L 153.787025 180.670464 
L 154.014284 180.669577 
L 154.314589 180.723531 
L 154.525615 180.786714 
L 154.850269 180.920793 
L 155.045062 181.047296 
L 155.385949 181.26709 
L 155.596975 181.491351 
L 155.945978 181.78493 
L 156.587171 182.618759 
L 157.341993 183.823767 
L 157.642298 184.376097 
L 158.453935 186.015399 
L 159.038313 187.392224 
L 160.669702 191.973254 
L 161.943971 196.113389 
L 162.617629 198.398163 
L 168.591273 219.874782 
L 169.394793 222.340444 
L 170.076567 224.275078 
L 172.316684 229.147576 
L 173.209484 230.484445 
L 173.48544 230.814294 
L 173.777629 231.062782 
L 174.02112 231.31934 
L 174.272727 231.450888 
L 174.499985 231.610027 
L 174.751593 231.703791 
L 174.995084 231.780931 
L 175.238575 231.822997 
L 175.514531 231.821335 
L 175.733673 231.799114 
L 176.058327 231.707406 
L 176.25312 231.608676 
L 176.585891 231.424382 
L 176.7888 231.240177 
L 177.129687 230.96751 
L 177.381295 230.620353 
L 178.801658 228.464603 
L 181.309615 222.077339 
L 184.004247 212.370996 
L 186.349876 202.791211 
L 190.278196 187.098463 
L 192.972829 179.097806 
L 194.450007 176.177501 
L 194.750313 175.691548 
L 195.229178 175.120649 
L 195.513251 174.89583 
L 195.789207 174.602774 
L 196.057047 174.510479 
L 196.96608 174.232308 
L 197.250153 174.261498 
L 197.453062 174.314665 
L 197.802065 174.463861 
L 197.996858 174.618143 
L 198.337745 174.858806 
L 198.565004 175.148984 
L 200.115229 177.568477 
L 201.714153 181.561349 
L 202.68 184.62167 
L 204.806487 192.794706 
L 206.064524 198.233611 
L 211.470022 222.949366 
L 214.01856 232.111114 
L 215.666182 236.183368 
L 216.477818 237.640402 
L 216.989149 238.295407 
L 217.289455 238.517875 
L 218.068625 239.078219 
L 218.685469 239.107971 
L 218.977658 239.049217 
L 219.180567 238.967049 
L 219.545804 238.763893 
L 219.756829 238.534798 
L 221.315171 236.240375 
L 222.881629 232.248951 
L 224.366924 227.092738 
L 227.126487 214.71136 
L 227.930007 210.617585 
L 229.658793 201.524825 
L 230.916829 194.928951 
L 232.1424 188.63182 
L 234.382516 178.554123 
L 235.989556 172.772297 
L 236.801193 170.407453 
L 238.432582 167.233999 
L 239.788015 166.054348 
L 240.364276 166.047102 
L 241.524916 166.887586 
L 242.571927 168.530498 
L 243.545891 170.811817 
L 245.17728 176.21044 
L 246.078196 179.910198 
L 248.829644 193.810404 
L 249.714327 198.878858 
L 253.967302 223.635247 
L 257.067753 238.510055 
L 258.991331 244.807406 
L 260.127622 247.062334 
L 260.44416 247.559089 
L 260.80128 247.885497 
L 261.1584 248.174928 
L 261.393775 248.323429 
L 261.621033 248.387569 
L 261.905105 248.409567 
L 262.108015 248.384958 
L 262.481367 248.243883 
L 262.67616 248.061874 
L 264.096524 246.077114 
L 265.192233 243.245633 
L 267.05088 236.246185 
L 267.748887 232.936514 
L 270.427287 217.674025 
L 273.966022 194.355078 
L 275.524364 184.281808 
L 276.87168 176.334336 
L 278.113484 169.702057 
L 279.298473 164.479002 
L 280.946095 159.052267 
L 281.725265 157.254432 
L 282.561251 156.12138 
L 282.869673 155.86076 
L 283.113164 155.702814 
L 283.348538 155.63183 
L 283.632611 155.608366 
L 283.83552 155.644697 
L 284.233222 155.820077 
L 284.476713 156.104433 
L 285.320815 157.205639 
L 286.400291 159.774538 
L 287.991098 165.571938 
L 289.922793 175.376353 
L 292.089862 189.369446 
L 298.047273 232.547759 
L 299.686778 242.770144 
L 300.514647 247.216551 
L 302.251549 254.674445 
L 302.85216 256.61599 
L 303.452771 258.142911 
L 304.36992 259.696376 
L 304.63776 259.913518 
L 305.538676 260.301646 
L 306.536989 259.577084 
L 307.527185 257.719126 
L 308.363171 255.222524 
L 308.801455 253.617419 
L 309.645556 250.065153 
L 311.390575 240.396022 
L 312.340189 234.100538 
L 314.255651 219.758838 
L 318.703418 182.875557 
L 321.219491 164.142106 
L 323.175535 152.720721 
L 324.668945 146.582821 
L 325.699724 143.853125 
L 326.576291 142.577512 
L 326.827898 142.415156 
L 327.079505 142.278084 
L 327.290531 142.248475 
L 327.639535 142.301704 
L 327.818095 142.431276 
L 328.865105 143.849383 
L 330.050095 147.132328 
L 330.61824 149.276868 
L 331.129571 151.551448 
L 331.738298 154.595847 
L 332.509353 159.144863 
L 334.051462 169.77758 
L 335.991273 185.63591 
L 341.924335 239.77391 
L 344.269964 257.634747 
L 345.300742 263.869922 
L 346.161076 268.088184 
L 346.883433 271.058159 
L 347.719418 273.493729 
L 348.125236 274.337427 
L 348.823244 275.350014 
L 349.058618 275.477478 
L 349.318342 275.59063 
L 349.521251 275.588341 
L 350.470865 274.816365 
L 351.120175 273.456029 
L 352.199651 269.952439 
L 353.189847 265.36938 
L 354.593978 256.808649 
L 356.274065 243.600777 
L 358.327505 224.381247 
L 365.356276 153.828748 
L 366.354589 145.885238 
L 367.271738 139.540166 
L 368.537891 132.418391 
L 369.227782 129.546679 
L 370.331607 126.397192 
L 371.135127 125.184569 
L 371.386735 125.126646 
L 371.825018 125.096461 
L 372.677236 125.890147 
L 373.229149 127.068878 
L 374.065135 129.796535 
L 374.479069 131.553929 
L 375.282589 135.536806 
L 376.516276 143.590227 
L 377.636335 152.442833 
L 378.512902 160.377828 
L 380.485178 180.565882 
L 387.229876 256.75667 
L 388.690822 270.374043 
L 389.624204 277.790918 
L 390.460189 283.509463 
L 391.815622 290.603686 
L 392.464931 292.887796 
L 393.455127 295.041273 
L 394.112553 295.433739 
L 394.583302 295.297944 
L 395.362473 294.23848 
L 395.630313 293.528673 
L 396.490647 290.701148 
L 397.497076 285.699435 
L 398.487273 279.179153 
L 398.487273 279.179153 
" clip-path="url(#pe5bdd77e1a)" style="fill: none; stroke: #1f77b4; stroke-width: 1.5; stroke-linecap: square"/>
   </g>
   <g id="line2d_34">
    <path d="M 73.832727 203.32935 
L 75.934865 199.377459 
L 77.42016 195.8904 
L 77.890909 194.573586 
L 77.972073 194.613303 
L 78.353542 194.871273 
L 79.148945 195.380349 
L 80.390749 196.371899 
L 81.178036 196.964631 
L 82.078953 197.50454 
L 82.833775 196.688248 
L 83.190895 196.25289 
L 86.193949 191.933867 
L 86.981236 190.637723 
L 87.630545 189.531636 
L 89.02656 187.071176 
L 89.716451 185.858935 
L 90.528087 184.444927 
L 91.209862 183.3175 
L 92.135127 181.83015 
L 95.154415 177.835083 
L 95.544 177.413019 
L 97.556858 175.981369 
L 98.644451 175.650598 
L 99.464204 175.624525 
L 99.748276 175.658682 
L 100.064815 175.683279 
L 100.36512 175.813969 
L 101.274153 176.181681 
L 101.955927 176.634843 
L 102.369862 176.964015 
L 104.301556 179.005839 
L 105.145658 180.164888 
L 105.738153 181.056269 
L 107.491287 184.10641 
L 113.919447 196.2704 
L 115.331695 198.507318 
L 116.037818 199.462009 
L 116.711476 200.317417 
L 117.782836 201.381933 
L 119.438575 202.387756 
L 119.746996 202.529263 
L 120.307025 202.653739 
L 121.354036 202.625325 
L 122.871796 201.999493 
L 124.064902 200.982739 
L 126.43488 197.951291 
L 128.050036 195.103623 
L 129.397353 192.398644 
L 130.087244 190.934145 
L 131.369629 188.084631 
L 132.189382 186.265133 
L 133.009135 184.471799 
L 134.250938 181.773154 
L 135.00576 180.247401 
L 135.768698 178.767816 
L 136.466705 177.503427 
L 139.145105 173.812192 
L 141.101149 172.386057 
L 141.450153 172.256209 
L 141.734225 172.238829 
L 143.065309 172.256356 
L 144.185367 172.815638 
L 144.948305 173.431588 
L 145.248611 173.73132 
L 146.100829 174.681416 
L 147.123491 176.159186 
L 148.243549 178.122712 
L 152.366662 187.41015 
L 153.48672 190.234292 
L 155.18304 194.384433 
L 156.019025 196.363948 
L 157.025455 198.579538 
L 157.788393 200.100575 
L 160.369396 204.241943 
L 162.106298 205.884456 
L 162.430953 206.03596 
L 163.762036 206.425899 
L 164.792815 206.226458 
L 165.912873 205.527944 
L 166.765091 204.724024 
L 167.365702 203.98381 
L 169.070138 201.176399 
L 171.034298 196.962997 
L 178.655564 176.555905 
L 179.459084 174.699569 
L 182.161833 169.920121 
L 183.014051 168.909518 
L 183.801338 168.276957 
L 184.125993 168.107537 
L 185.595055 167.800058 
L 185.944058 167.844238 
L 186.25248 168.004146 
L 186.885556 168.321748 
L 187.14528 168.52586 
L 189.158138 170.978237 
L 191.657978 176.153323 
L 194.450007 184.030321 
L 196.000233 188.864674 
L 197.907578 194.837021 
L 199.027636 198.202719 
L 201.064844 203.648858 
L 202.428393 206.585444 
L 203.134516 207.900418 
L 204.408785 209.651933 
L 205.171724 210.444686 
L 206.218735 211.027789 
L 207.363142 211.042733 
L 208.856553 210.180417 
L 210.747665 207.611704 
L 211.534953 206.016521 
L 212.646895 203.434519 
L 213.361135 201.564988 
L 215.609367 194.56244 
L 218.563724 184.216045 
L 219.781178 179.918351 
L 223.271215 169.196675 
L 224.383156 166.62693 
L 226.079476 163.795962 
L 227.061556 162.777424 
L 228.384524 162.178849 
L 228.92832 162.23111 
L 229.610095 162.574379 
L 231.022342 163.958372 
L 232.564451 166.710608 
L 234.504262 171.750017 
L 235.575622 175.172292 
L 237.645295 182.71521 
L 242.060596 200.036272 
L 245.112349 209.948183 
L 247.084625 214.352896 
L 248.172218 215.906989 
L 249.608815 216.971327 
L 250.201309 217.041757 
L 251.353833 216.564138 
L 252.392727 215.489594 
L 253.415389 213.82251 
L 254.649076 211.083058 
L 255.322735 209.225735 
L 257.449222 202.007607 
L 260.606487 188.684774 
L 265.143535 169.101776 
L 266.255476 165.094366 
L 267.846284 160.37128 
L 269.469556 157.020048 
L 270.833105 155.419833 
L 271.466182 155.152652 
L 271.807069 155.079662 
L 272.058676 155.147938 
L 272.992058 155.567574 
L 274.444887 157.427518 
L 275.581178 159.907904 
L 277.40736 165.444139 
L 278.186531 168.401695 
L 280.3536 177.831547 
L 281.668451 184.180448 
L 283.900451 195.394273 
L 286.911622 209.346008 
L 288.161542 214.132481 
L 289.695535 218.956871 
L 291.034735 222.050579 
L 291.951884 223.431879 
L 292.341469 223.811305 
L 292.795985 224.153641 
L 293.526458 224.446425 
L 293.786182 224.392685 
L 294.654633 224.05061 
L 295.701644 222.844597 
L 297.008378 220.225694 
L 297.527825 218.863406 
L 298.136553 217.059634 
L 298.996887 214.029093 
L 299.840989 210.687011 
L 302.202851 199.460914 
L 303.688145 191.37749 
L 305.295185 182.292467 
L 308.549847 164.696307 
L 309.613091 159.750727 
L 310.660102 155.487329 
L 311.658415 152.080137 
L 312.380771 150.085465 
L 313.793018 147.240638 
L 314.604655 146.406532 
L 314.953658 146.197657 
L 315.951971 146.169515 
L 317.04768 147.151557 
L 317.972945 148.727053 
L 319.433891 152.662668 
L 320.79744 157.840464 
L 321.544145 161.194211 
L 323.841076 173.457808 
L 325.066647 180.81301 
L 328.978735 205.153049 
L 331.608436 219.178498 
L 333.142429 225.536462 
L 334.465396 229.696296 
L 335.277033 231.475406 
L 335.918225 232.567308 
L 336.33216 233.029334 
L 336.713629 233.343224 
L 337.565847 233.643555 
L 338.20704 233.371025 
L 339.205353 232.281364 
L 340.365993 229.878537 
L 341.112698 227.780847 
L 342.151593 224.016093 
L 343.393396 218.357869 
L 344.756945 211.005985 
L 347.159389 195.559628 
L 348.896291 183.277426 
L 350.779287 169.997262 
L 353.084335 155.113422 
L 354.318022 148.455566 
L 355.860131 141.711801 
L 357.158749 137.616927 
L 357.783709 136.255303 
L 358.790138 134.876157 
L 359.471913 134.593133 
L 360.145571 134.707303 
L 360.380945 134.861348 
L 361.41984 136.273357 
L 362.596713 139.239354 
L 363.400233 141.978569 
L 364.682618 147.737777 
L 365.559185 152.450469 
L 367.523345 165.030719 
L 370.696844 189.177902 
L 372.993775 206.960139 
L 375.404335 223.572439 
L 376.987025 232.333168 
L 378.488553 238.694252 
L 379.63296 242.064546 
L 380.639389 243.982325 
L 381.572771 244.852741 
L 382.416873 244.827626 
L 382.644131 244.677241 
L 383.626211 243.481857 
L 384.689455 241.016474 
L 385.931258 236.671651 
L 386.621149 233.622356 
L 387.830487 227.069333 
L 389.283316 217.582081 
L 391.474735 200.389025 
L 393.463244 183.009324 
L 396.604276 155.746662 
L 398.487273 141.662234 
L 398.487273 141.662234 
" clip-path="url(#pe5bdd77e1a)" style="fill: none; stroke: #ff7f0e; stroke-width: 1.5; stroke-linecap: square"/>
   </g>
   <g id="line2d_35">
    <path d="M 73.832727 203.32935 
L 77.890909 73.918038 
L 77.988305 73.930006 
L 81.827345 74.456783 
L 83.612945 74.715521 
L 87.038051 75.330273 
L 88.352902 75.556045 
L 89.56224 75.745977 
L 91.964684 76.035029 
L 93.214604 76.138275 
L 95.130065 76.241943 
L 97.840931 76.274433 
L 106.135855 75.80826 
L 111.874124 74.821859 
L 113.13216 74.54547 
L 114.503825 74.257172 
L 115.705047 74.020238 
L 121.378385 73.524416 
L 125.071331 73.955509 
L 126.816349 74.32661 
L 128.325993 74.682484 
L 134.543127 75.898934 
L 141.360873 76.137864 
L 144.193484 76.034588 
L 146.068364 75.924154 
L 148.381527 75.709801 
L 149.493469 75.571862 
L 150.759622 75.353966 
L 152.50464 75.000066 
L 153.316276 74.801248 
L 154.517498 74.483077 
L 155.467113 74.211844 
L 160.336931 72.946522 
L 163.315636 72.587533 
L 167.041047 72.942091 
L 176.537193 75.52209 
L 177.381295 75.665231 
L 178.558167 75.793031 
L 179.791855 75.863012 
L 181.155404 75.904472 
L 182.429673 75.889663 
L 183.695825 75.861106 
L 186.041455 75.753918 
L 188.411433 75.640073 
L 190.80576 75.447932 
L 191.641745 75.343854 
L 196.803753 74.150245 
L 198.540655 73.530418 
L 199.263011 73.252543 
L 200.131462 72.910946 
L 200.999913 72.552032 
L 204.700975 71.429468 
L 208.280291 71.294558 
L 210.974924 71.946885 
L 212.216727 72.405517 
L 213.004015 72.720209 
L 213.84 73.072591 
L 214.602938 73.413468 
L 215.35776 73.724975 
L 216.088233 74.019218 
L 216.843055 74.317597 
L 217.687156 74.602997 
L 218.368931 74.812624 
L 219.708131 75.117541 
L 220.381789 75.249202 
L 223.141353 75.420088 
L 224.886371 75.379461 
L 225.689891 75.326331 
L 226.858647 75.24115 
L 229.877935 75.054351 
L 231.16032 74.999995 
L 232.32096 74.951602 
L 236.078836 74.547886 
L 236.849891 74.396333 
L 237.482967 74.247985 
L 239.723084 73.440395 
L 240.924305 72.897788 
L 241.557382 72.598023 
L 242.76672 71.931244 
L 243.497193 71.52757 
L 244.219549 71.148605 
L 245.169164 70.649928 
L 248.066705 69.451827 
L 249.803607 69.186946 
L 251.921978 69.367892 
L 253.691345 69.920857 
L 254.413702 70.258632 
L 255.257804 70.677514 
L 256.053207 71.148543 
L 258.285207 72.439916 
L 258.950749 72.797333 
L 260.241251 73.483411 
L 263.293004 74.470081 
L 264.575389 74.582161 
L 266.547665 74.559705 
L 267.270022 74.490768 
L 267.959913 74.423039 
L 270.865571 74.002016 
L 272.277818 73.863143 
L 273.12192 73.82391 
L 278.568 73.613078 
L 281.124655 73.065034 
L 284.216989 71.51971 
L 286.018822 70.265173 
L 286.773644 69.647895 
L 287.544698 69.072555 
L 288.275171 68.493083 
L 288.956945 67.982526 
L 292.187258 66.294623 
L 294.338095 66.094836 
L 295.612364 66.35502 
L 296.33472 66.669372 
L 299.800407 68.995947 
L 302.681716 71.328045 
L 303.582633 71.929981 
L 304.19136 72.292541 
L 305.993193 72.990471 
L 306.877876 73.197256 
L 307.22688 73.261006 
L 307.892422 73.27288 
L 308.273891 73.282601 
L 309.3696 73.15715 
L 310.343564 72.958679 
L 312.13728 72.430661 
L 313.809251 71.983875 
L 314.645236 71.804305 
L 315.327011 71.678397 
L 318.630371 71.594898 
L 319.880291 71.669531 
L 320.537716 71.714197 
L 321.389935 71.778631 
L 321.787636 71.807486 
L 323.483956 71.655302 
L 323.849193 71.615332 
L 325.074764 71.185773 
L 325.837702 70.859408 
L 326.138007 70.645318 
L 328.053469 69.241414 
L 328.83264 68.479233 
L 329.197876 68.095249 
L 330.407215 66.804975 
L 330.772451 66.369703 
L 332.509353 64.466884 
L 333.191127 63.762173 
L 333.937833 63.021499 
L 336.06432 61.583118 
L 338.142109 61.242417 
L 340.1712 62.030932 
L 342.216524 63.785423 
L 347.662604 69.66194 
L 349.943302 70.843002 
L 350.803636 71.031035 
L 351.144524 71.051742 
L 351.404247 71.005367 
L 351.712669 71.02387 
L 352.370095 70.872723 
L 352.710982 70.797556 
L 353.011287 70.647571 
L 354.553396 69.955183 
L 357.824291 68.263254 
L 358.506065 68.001306 
L 359.301469 67.730896 
L 361.979869 67.581858 
L 362.685993 67.706649 
L 363.440815 67.839512 
L 364.836829 68.226961 
L 365.153367 68.329005 
L 365.737745 68.475857 
L 367.04448 68.609102 
L 367.888582 68.631143 
L 368.253818 68.588855 
L 368.505425 68.489896 
L 368.821964 68.455337 
L 369.519971 68.122058 
L 369.852742 67.993571 
L 370.566982 67.449265 
L 371.305571 66.837749 
L 371.557178 66.558448 
L 372.238953 65.775974 
L 372.636655 65.271008 
L 379.373236 55.186056 
L 380.095593 54.534127 
L 381.743215 53.662307 
L 382.514269 53.569377 
L 383.196044 53.75907 
L 384.884247 54.93555 
L 385.655302 55.746172 
L 387.335389 58.178713 
L 388.098327 59.409848 
L 388.47168 60.070614 
L 391.101382 64.257207 
L 393.325265 66.584871 
L 394.09632 67.089221 
L 394.347927 67.119044 
L 394.591418 67.247554 
L 394.818676 67.248217 
L 395.054051 67.296445 
L 395.289425 67.299338 
L 395.573498 67.283662 
L 395.800756 67.243825 
L 396.101062 67.176607 
L 396.320204 67.091657 
L 396.628625 66.977047 
L 396.847767 66.845592 
L 397.164305 66.690584 
L 397.391564 66.502304 
L 397.716218 66.316678 
L 398.341178 65.788517 
L 398.487273 65.608269 
L 398.487273 65.608269 
" clip-path="url(#pe5bdd77e1a)" style="fill: none; stroke: #2ca02c; stroke-width: 1.5; stroke-linecap: square"/>
   </g>
   <g id="patch_3">
    <path d="M 57.6 307.584 
L 57.6 41.472 
" style="fill: none; stroke: #000000; stroke-width: 0.8; stroke-linejoin: miter; stroke-linecap: square"/>
   </g>
   <g id="patch_4">
    <path d="M 414.72 307.584 
L 414.72 41.472 
" style="fill: none; stroke: #000000; stroke-width: 0.8; stroke-linejoin: miter; stroke-linecap: square"/>
   </g>
   <g id="patch_5">
    <path d="M 57.6 307.584 
L 414.72 307.584 
" style="fill: none; stroke: #000000; stroke-width: 0.8; stroke-linejoin: miter; stroke-linecap: square"/>
   </g>
   <g id="patch_6">
    <path d="M 57.6 41.472 
L 414.72 41.472 
" style="fill: none; stroke: #000000; stroke-width: 0.8; stroke-linejoin: miter; stroke-linecap: square"/>
   </g>
   <g id="legend_1">
    <g id="patch_7">
     <path d="M 64.6 302.584 
L 115.696875 302.584 
Q 117.696875 302.584 117.696875 300.584 
L 117.696875 256.71525 
Q 117.696875 254.71525 115.696875 254.71525 
L 64.6 254.71525 
Q 62.6 254.71525 62.6 256.71525 
L 62.6 300.584 
Q 62.6 302.584 64.6 302.584 
z
" style="fill: #ffffff; opacity: 0.8; stroke: #cccccc; stroke-linejoin: miter"/>
    </g>
    <g id="line2d_36">
     <path d="M 66.6 262.813687 
L 76.6 262.813687 
L 86.6 262.813687 
" style="fill: none; stroke: #1f77b4; stroke-width: 1.5; stroke-linecap: square"/>
    </g>
    <g id="text_19">
     <!-- w_x -->
     <g transform="translate(94.6 266.313687) scale(0.1 -0.1)">
      <defs>
       <path id="DejaVuSans-77" d="M 269 3500 
L 844 3500 
L 1563 769 
L 2278 3500 
L 2956 3500 
L 3675 769 
L 4391 3500 
L 4966 3500 
L 4050 0 
L 3372 0 
L 2619 2869 
L 1863 0 
L 1184 0 
L 269 3500 
z
" transform="scale(0.015625)"/>
       <path id="DejaVuSans-5f" d="M 3263 -1063 
L 3263 -1509 
L -63 -1509 
L -63 -1063 
L 3263 -1063 
z
" transform="scale(0.015625)"/>
       <path id="DejaVuSans-78" d="M 3513 3500 
L 2247 1797 
L 3578 0 
L 2900 0 
L 1881 1375 
L 863 0 
L 184 0 
L 1544 1831 
L 300 3500 
L 978 3500 
L 1906 2253 
L 2834 3500 
L 3513 3500 
z
" transform="scale(0.015625)"/>
      </defs>
      <use xlink:href="#DejaVuSans-77"/>
      <use xlink:href="#DejaVuSans-5f" transform="translate(81.787109 0)"/>
      <use xlink:href="#DejaVuSans-78" transform="translate(131.787109 0)"/>
     </g>
    </g>
    <g id="line2d_37">
     <path d="M 66.6 277.769937 
L 76.6 277.769937 
L 86.6 277.769937 
" style="fill: none; stroke: #ff7f0e; stroke-width: 1.5; stroke-linecap: square"/>
    </g>
    <g id="text_20">
     <!-- w_y -->
     <g transform="translate(94.6 281.269937) scale(0.1 -0.1)">
      <defs>
       <path id="DejaVuSans-79" d="M 2059 -325 
Q 1816 -950 1584 -1140 
Q 1353 -1331 966 -1331 
L 506 -1331 
L 506 -850 
L 844 -850 
Q 1081 -850 1212 -737 
Q 1344 -625 1503 -206 
L 1606 56 
L 191 3500 
L 800 3500 
L 1894 763 
L 2988 3500 
L 3597 3500 
L 2059 -325 
z
" transform="scale(0.015625)"/>
      </defs>
      <use xlink:href="#DejaVuSans-77"/>
      <use xlink:href="#DejaVuSans-5f" transform="translate(81.787109 0)"/>
      <use xlink:href="#DejaVuSans-79" transform="translate(131.787109 0)"/>
     </g>
    </g>
    <g id="line2d_38">
     <path d="M 66.6 292.726187 
L 76.6 292.726187 
L 86.6 292.726187 
" style="fill: none; stroke: #2ca02c; stroke-width: 1.5; stroke-linecap: square"/>
    </g>
    <g id="text_21">
     <!-- w_z -->
     <g transform="translate(94.6 296.226187) scale(0.1 -0.1)">
      <defs>
       <path id="DejaVuSans-7a" d="M 353 3500 
L 3084 3500 
L 3084 2975 
L 922 459 
L 3084 459 
L 3084 0 
L 275 0 
L 275 525 
L 2438 3041 
L 353 3041 
L 353 3500 
z
" transform="scale(0.015625)"/>
      </defs>
      <use xlink:href="#DejaVuSans-77"/>
      <use xlink:href="#DejaVuSans-5f" transform="translate(81.787109 0)"/>
      <use xlink:href="#DejaVuSans-7a" transform="translate(131.787109 0)"/>
     </g>
    </g>
   </g>
  </g>
 </g>
 <defs>
  <clipPath id="pe5bdd77e1a">
   <rect x="57.6" y="41.472" width="357.12" height="266.112"/>
  </clipPath>
 </defs>
</svg>
