<?xml version="1.0" encoding="utf-8" standalone="no"?>
<!DOCTYPE svg PUBLIC "-//W3C//DTD SVG 1.1//EN"
  "http://www.w3.org/Graphics/SVG/1.1/DTD/svg11.dtd">
<svg xmlns:xlink="http://www.w3.org/1999/xlink" width="460.8pt" height="345.6pt" viewBox="0 0 460.8 345.6" xmlns="http://www.w3.org/2000/svg" version="1.1">
 <metadata>
  <rdf:RDF xmlns:dc="http://purl.org/dc/elements/1.1/" xmlns:cc="http://creativecommons.org/ns#" xmlns:rdf="http://www.w3.org/1999/02/22-rdf-syntax-ns#">
   <cc:Work>
    <dc:type rdf:resource="http://purl.org/dc/dcmitype/StillImage"/>
    <dc:date>2025-09-09T23:35:44.874940</dc:date>
    <dc:format>image/svg+xml</dc:format>
    <dc:creator>
     <cc:Agent>
      <dc:title>Matplotlib v3.10.3, https://matplotlib.org/</dc:title>
     </cc:Agent>
    </dc:creator>
   </cc:Work>
  </rdf:RDF>
 </metadata>
 <defs>
  <style type="text/css">*{stroke-linejoin: round; stroke-linecap: butt}</style>
 </defs>
 <g id="figure_1">
  <g id="patch_1">
   <path d="M 0 345.6 
L 460.8 345.6 
L 460.8 0 
L 0 0 
z
" style="fill: #ffffff"/>
  </g>
  <g id="axes_1">
   <g id="patch_2">
    <path d="M 57.6 307.584 
L 414.72 307.584 
L 414.72 41.472 
L 57.6 41.472 
z
" style="fill: #ffffff"/>
   </g>
   <g id="matplotlib.axis_1">
    <g id="xtick_1">
     <g id="line2d_1">
      <path d="M 71.951976 307.584 
L 71.951976 41.472 
" clip-path="url(#pdd284edd55)" style="fill: none; stroke: #b0b0b0; stroke-width: 0.8; stroke-linecap: square"/>
     </g>
     <g id="line2d_2">
      <defs>
       <path id="m7bf6f7d941" d="M 0 0 
L 0 3.5 
" style="stroke: #000000; stroke-width: 0.8"/>
      </defs>
      <g>
       <use xlink:href="#m7bf6f7d941" x="71.951976" y="307.584" style="stroke: #000000; stroke-width: 0.8"/>
      </g>
     </g>
     <g id="text_1">
      <!-- 0 -->
      <g transform="translate(68.770726 322.182437) scale(0.1 -0.1)">
       <defs>
        <path id="DejaVuSans-30" d="M 2034 4250 
Q 1547 4250 1301 3770 
Q 1056 3291 1056 2328 
Q 1056 1369 1301 889 
Q 1547 409 2034 409 
Q 2525 409 2770 889 
Q 3016 1369 3016 2328 
Q 3016 3291 2770 3770 
Q 2525 4250 2034 4250 
z
M 2034 4750 
Q 2819 4750 3233 4129 
Q 3647 3509 3647 2328 
Q 3647 1150 3233 529 
Q 2819 -91 2034 -91 
Q 1250 -91 836 529 
Q 422 1150 422 2328 
Q 422 3509 836 4129 
Q 1250 4750 2034 4750 
z
" transform="scale(0.015625)"/>
       </defs>
       <use xlink:href="#DejaVuSans-30"/>
      </g>
     </g>
    </g>
    <g id="xtick_2">
     <g id="line2d_3">
      <path d="M 113.122868 307.584 
L 113.122868 41.472 
" clip-path="url(#pdd284edd55)" style="fill: none; stroke: #b0b0b0; stroke-width: 0.8; stroke-linecap: square"/>
     </g>
     <g id="line2d_4">
      <g>
       <use xlink:href="#m7bf6f7d941" x="113.122868" y="307.584" style="stroke: #000000; stroke-width: 0.8"/>
      </g>
     </g>
     <g id="text_2">
      <!-- 5 -->
      <g transform="translate(109.941618 322.182437) scale(0.1 -0.1)">
       <defs>
        <path id="DejaVuSans-35" d="M 691 4666 
L 3169 4666 
L 3169 4134 
L 1269 4134 
L 1269 2991 
Q 1406 3038 1543 3061 
Q 1681 3084 1819 3084 
Q 2600 3084 3056 2656 
Q 3513 2228 3513 1497 
Q 3513 744 3044 326 
Q 2575 -91 1722 -91 
Q 1428 -91 1123 -41 
Q 819 9 494 109 
L 494 744 
Q 775 591 1075 516 
Q 1375 441 1709 441 
Q 2250 441 2565 725 
Q 2881 1009 2881 1497 
Q 2881 1984 2565 2268 
Q 2250 2553 1709 2553 
Q 1456 2553 1204 2497 
Q 953 2441 691 2322 
L 691 4666 
z
" transform="scale(0.015625)"/>
       </defs>
       <use xlink:href="#DejaVuSans-35"/>
      </g>
     </g>
    </g>
    <g id="xtick_3">
     <g id="line2d_5">
      <path d="M 154.293759 307.584 
L 154.293759 41.472 
" clip-path="url(#pdd284edd55)" style="fill: none; stroke: #b0b0b0; stroke-width: 0.8; stroke-linecap: square"/>
     </g>
     <g id="line2d_6">
      <g>
       <use xlink:href="#m7bf6f7d941" x="154.293759" y="307.584" style="stroke: #000000; stroke-width: 0.8"/>
      </g>
     </g>
     <g id="text_3">
      <!-- 10 -->
      <g transform="translate(147.931259 322.182437) scale(0.1 -0.1)">
       <defs>
        <path id="DejaVuSans-31" d="M 794 531 
L 1825 531 
L 1825 4091 
L 703 3866 
L 703 4441 
L 1819 4666 
L 2450 4666 
L 2450 531 
L 3481 531 
L 3481 0 
L 794 0 
L 794 531 
z
" transform="scale(0.015625)"/>
       </defs>
       <use xlink:href="#DejaVuSans-31"/>
       <use xlink:href="#DejaVuSans-30" transform="translate(63.623047 0)"/>
      </g>
     </g>
    </g>
    <g id="xtick_4">
     <g id="line2d_7">
      <path d="M 195.464651 307.584 
L 195.464651 41.472 
" clip-path="url(#pdd284edd55)" style="fill: none; stroke: #b0b0b0; stroke-width: 0.8; stroke-linecap: square"/>
     </g>
     <g id="line2d_8">
      <g>
       <use xlink:href="#m7bf6f7d941" x="195.464651" y="307.584" style="stroke: #000000; stroke-width: 0.8"/>
      </g>
     </g>
     <g id="text_4">
      <!-- 15 -->
      <g transform="translate(189.102151 322.182437) scale(0.1 -0.1)">
       <use xlink:href="#DejaVuSans-31"/>
       <use xlink:href="#DejaVuSans-35" transform="translate(63.623047 0)"/>
      </g>
     </g>
    </g>
    <g id="xtick_5">
     <g id="line2d_9">
      <path d="M 236.635543 307.584 
L 236.635543 41.472 
" clip-path="url(#pdd284edd55)" style="fill: none; stroke: #b0b0b0; stroke-width: 0.8; stroke-linecap: square"/>
     </g>
     <g id="line2d_10">
      <g>
       <use xlink:href="#m7bf6f7d941" x="236.635543" y="307.584" style="stroke: #000000; stroke-width: 0.8"/>
      </g>
     </g>
     <g id="text_5">
      <!-- 20 -->
      <g transform="translate(230.273043 322.182437) scale(0.1 -0.1)">
       <defs>
        <path id="DejaVuSans-32" d="M 1228 531 
L 3431 531 
L 3431 0 
L 469 0 
L 469 531 
Q 828 903 1448 1529 
Q 2069 2156 2228 2338 
Q 2531 2678 2651 2914 
Q 2772 3150 2772 3378 
Q 2772 3750 2511 3984 
Q 2250 4219 1831 4219 
Q 1534 4219 1204 4116 
Q 875 4013 500 3803 
L 500 4441 
Q 881 4594 1212 4672 
Q 1544 4750 1819 4750 
Q 2544 4750 2975 4387 
Q 3406 4025 3406 3419 
Q 3406 3131 3298 2873 
Q 3191 2616 2906 2266 
Q 2828 2175 2409 1742 
Q 1991 1309 1228 531 
z
" transform="scale(0.015625)"/>
       </defs>
       <use xlink:href="#DejaVuSans-32"/>
       <use xlink:href="#DejaVuSans-30" transform="translate(63.623047 0)"/>
      </g>
     </g>
    </g>
    <g id="xtick_6">
     <g id="line2d_11">
      <path d="M 277.806435 307.584 
L 277.806435 41.472 
" clip-path="url(#pdd284edd55)" style="fill: none; stroke: #b0b0b0; stroke-width: 0.8; stroke-linecap: square"/>
     </g>
     <g id="line2d_12">
      <g>
       <use xlink:href="#m7bf6f7d941" x="277.806435" y="307.584" style="stroke: #000000; stroke-width: 0.8"/>
      </g>
     </g>
     <g id="text_6">
      <!-- 25 -->
      <g transform="translate(271.443935 322.182437) scale(0.1 -0.1)">
       <use xlink:href="#DejaVuSans-32"/>
       <use xlink:href="#DejaVuSans-35" transform="translate(63.623047 0)"/>
      </g>
     </g>
    </g>
    <g id="xtick_7">
     <g id="line2d_13">
      <path d="M 318.977327 307.584 
L 318.977327 41.472 
" clip-path="url(#pdd284edd55)" style="fill: none; stroke: #b0b0b0; stroke-width: 0.8; stroke-linecap: square"/>
     </g>
     <g id="line2d_14">
      <g>
       <use xlink:href="#m7bf6f7d941" x="318.977327" y="307.584" style="stroke: #000000; stroke-width: 0.8"/>
      </g>
     </g>
     <g id="text_7">
      <!-- 30 -->
      <g transform="translate(312.614827 322.182437) scale(0.1 -0.1)">
       <defs>
        <path id="DejaVuSans-33" d="M 2597 2516 
Q 3050 2419 3304 2112 
Q 3559 1806 3559 1356 
Q 3559 666 3084 287 
Q 2609 -91 1734 -91 
Q 1441 -91 1130 -33 
Q 819 25 488 141 
L 488 750 
Q 750 597 1062 519 
Q 1375 441 1716 441 
Q 2309 441 2620 675 
Q 2931 909 2931 1356 
Q 2931 1769 2642 2001 
Q 2353 2234 1838 2234 
L 1294 2234 
L 1294 2753 
L 1863 2753 
Q 2328 2753 2575 2939 
Q 2822 3125 2822 3475 
Q 2822 3834 2567 4026 
Q 2313 4219 1838 4219 
Q 1578 4219 1281 4162 
Q 984 4106 628 3988 
L 628 4550 
Q 988 4650 1302 4700 
Q 1616 4750 1894 4750 
Q 2613 4750 3031 4423 
Q 3450 4097 3450 3541 
Q 3450 3153 3228 2886 
Q 3006 2619 2597 2516 
z
" transform="scale(0.015625)"/>
       </defs>
       <use xlink:href="#DejaVuSans-33"/>
       <use xlink:href="#DejaVuSans-30" transform="translate(63.623047 0)"/>
      </g>
     </g>
    </g>
    <g id="xtick_8">
     <g id="line2d_15">
      <path d="M 360.148219 307.584 
L 360.148219 41.472 
" clip-path="url(#pdd284edd55)" style="fill: none; stroke: #b0b0b0; stroke-width: 0.8; stroke-linecap: square"/>
     </g>
     <g id="line2d_16">
      <g>
       <use xlink:href="#m7bf6f7d941" x="360.148219" y="307.584" style="stroke: #000000; stroke-width: 0.8"/>
      </g>
     </g>
     <g id="text_8">
      <!-- 35 -->
      <g transform="translate(353.785719 322.182437) scale(0.1 -0.1)">
       <use xlink:href="#DejaVuSans-33"/>
       <use xlink:href="#DejaVuSans-35" transform="translate(63.623047 0)"/>
      </g>
     </g>
    </g>
    <g id="xtick_9">
     <g id="line2d_17">
      <path d="M 401.31911 307.584 
L 401.31911 41.472 
" clip-path="url(#pdd284edd55)" style="fill: none; stroke: #b0b0b0; stroke-width: 0.8; stroke-linecap: square"/>
     </g>
     <g id="line2d_18">
      <g>
       <use xlink:href="#m7bf6f7d941" x="401.31911" y="307.584" style="stroke: #000000; stroke-width: 0.8"/>
      </g>
     </g>
     <g id="text_9">
      <!-- 40 -->
      <g transform="translate(394.95661 322.182437) scale(0.1 -0.1)">
       <defs>
        <path id="DejaVuSans-34" d="M 2419 4116 
L 825 1625 
L 2419 1625 
L 2419 4116 
z
M 2253 4666 
L 3047 4666 
L 3047 1625 
L 3713 1625 
L 3713 1100 
L 3047 1100 
L 3047 0 
L 2419 0 
L 2419 1100 
L 313 1100 
L 313 1709 
L 2253 4666 
z
" transform="scale(0.015625)"/>
       </defs>
       <use xlink:href="#DejaVuSans-34"/>
       <use xlink:href="#DejaVuSans-30" transform="translate(63.623047 0)"/>
      </g>
     </g>
    </g>
    <g id="text_10">
     <!-- Tiempo [s] -->
     <g transform="translate(209.5975 335.860562) scale(0.1 -0.1)">
      <defs>
       <path id="DejaVuSans-54" d="M -19 4666 
L 3928 4666 
L 3928 4134 
L 2272 4134 
L 2272 0 
L 1638 0 
L 1638 4134 
L -19 4134 
L -19 4666 
z
" transform="scale(0.015625)"/>
       <path id="DejaVuSans-69" d="M 603 3500 
L 1178 3500 
L 1178 0 
L 603 0 
L 603 3500 
z
M 603 4863 
L 1178 4863 
L 1178 4134 
L 603 4134 
L 603 4863 
z
" transform="scale(0.015625)"/>
       <path id="DejaVuSans-65" d="M 3597 1894 
L 3597 1613 
L 953 1613 
Q 991 1019 1311 708 
Q 1631 397 2203 397 
Q 2534 397 2845 478 
Q 3156 559 3463 722 
L 3463 178 
Q 3153 47 2828 -22 
Q 2503 -91 2169 -91 
Q 1331 -91 842 396 
Q 353 884 353 1716 
Q 353 2575 817 3079 
Q 1281 3584 2069 3584 
Q 2775 3584 3186 3129 
Q 3597 2675 3597 1894 
z
M 3022 2063 
Q 3016 2534 2758 2815 
Q 2500 3097 2075 3097 
Q 1594 3097 1305 2825 
Q 1016 2553 972 2059 
L 3022 2063 
z
" transform="scale(0.015625)"/>
       <path id="DejaVuSans-6d" d="M 3328 2828 
Q 3544 3216 3844 3400 
Q 4144 3584 4550 3584 
Q 5097 3584 5394 3201 
Q 5691 2819 5691 2113 
L 5691 0 
L 5113 0 
L 5113 2094 
Q 5113 2597 4934 2840 
Q 4756 3084 4391 3084 
Q 3944 3084 3684 2787 
Q 3425 2491 3425 1978 
L 3425 0 
L 2847 0 
L 2847 2094 
Q 2847 2600 2669 2842 
Q 2491 3084 2119 3084 
Q 1678 3084 1418 2786 
Q 1159 2488 1159 1978 
L 1159 0 
L 581 0 
L 581 3500 
L 1159 3500 
L 1159 2956 
Q 1356 3278 1631 3431 
Q 1906 3584 2284 3584 
Q 2666 3584 2933 3390 
Q 3200 3197 3328 2828 
z
" transform="scale(0.015625)"/>
       <path id="DejaVuSans-70" d="M 1159 525 
L 1159 -1331 
L 581 -1331 
L 581 3500 
L 1159 3500 
L 1159 2969 
Q 1341 3281 1617 3432 
Q 1894 3584 2278 3584 
Q 2916 3584 3314 3078 
Q 3713 2572 3713 1747 
Q 3713 922 3314 415 
Q 2916 -91 2278 -91 
Q 1894 -91 1617 61 
Q 1341 213 1159 525 
z
M 3116 1747 
Q 3116 2381 2855 2742 
Q 2594 3103 2138 3103 
Q 1681 3103 1420 2742 
Q 1159 2381 1159 1747 
Q 1159 1113 1420 752 
Q 1681 391 2138 391 
Q 2594 391 2855 752 
Q 3116 1113 3116 1747 
z
" transform="scale(0.015625)"/>
       <path id="DejaVuSans-6f" d="M 1959 3097 
Q 1497 3097 1228 2736 
Q 959 2375 959 1747 
Q 959 1119 1226 758 
Q 1494 397 1959 397 
Q 2419 397 2687 759 
Q 2956 1122 2956 1747 
Q 2956 2369 2687 2733 
Q 2419 3097 1959 3097 
z
M 1959 3584 
Q 2709 3584 3137 3096 
Q 3566 2609 3566 1747 
Q 3566 888 3137 398 
Q 2709 -91 1959 -91 
Q 1206 -91 779 398 
Q 353 888 353 1747 
Q 353 2609 779 3096 
Q 1206 3584 1959 3584 
z
" transform="scale(0.015625)"/>
       <path id="DejaVuSans-20" transform="scale(0.015625)"/>
       <path id="DejaVuSans-5b" d="M 550 4863 
L 1875 4863 
L 1875 4416 
L 1125 4416 
L 1125 -397 
L 1875 -397 
L 1875 -844 
L 550 -844 
L 550 4863 
z
" transform="scale(0.015625)"/>
       <path id="DejaVuSans-73" d="M 2834 3397 
L 2834 2853 
Q 2591 2978 2328 3040 
Q 2066 3103 1784 3103 
Q 1356 3103 1142 2972 
Q 928 2841 928 2578 
Q 928 2378 1081 2264 
Q 1234 2150 1697 2047 
L 1894 2003 
Q 2506 1872 2764 1633 
Q 3022 1394 3022 966 
Q 3022 478 2636 193 
Q 2250 -91 1575 -91 
Q 1294 -91 989 -36 
Q 684 19 347 128 
L 347 722 
Q 666 556 975 473 
Q 1284 391 1588 391 
Q 1994 391 2212 530 
Q 2431 669 2431 922 
Q 2431 1156 2273 1281 
Q 2116 1406 1581 1522 
L 1381 1569 
Q 847 1681 609 1914 
Q 372 2147 372 2553 
Q 372 3047 722 3315 
Q 1072 3584 1716 3584 
Q 2034 3584 2315 3537 
Q 2597 3491 2834 3397 
z
" transform="scale(0.015625)"/>
       <path id="DejaVuSans-5d" d="M 1947 4863 
L 1947 -844 
L 622 -844 
L 622 -397 
L 1369 -397 
L 1369 4416 
L 622 4416 
L 622 4863 
L 1947 4863 
z
" transform="scale(0.015625)"/>
      </defs>
      <use xlink:href="#DejaVuSans-54"/>
      <use xlink:href="#DejaVuSans-69" transform="translate(57.958984 0)"/>
      <use xlink:href="#DejaVuSans-65" transform="translate(85.742188 0)"/>
      <use xlink:href="#DejaVuSans-6d" transform="translate(147.265625 0)"/>
      <use xlink:href="#DejaVuSans-70" transform="translate(244.677734 0)"/>
      <use xlink:href="#DejaVuSans-6f" transform="translate(308.154297 0)"/>
      <use xlink:href="#DejaVuSans-20" transform="translate(369.335938 0)"/>
      <use xlink:href="#DejaVuSans-5b" transform="translate(401.123047 0)"/>
      <use xlink:href="#DejaVuSans-73" transform="translate(440.136719 0)"/>
      <use xlink:href="#DejaVuSans-5d" transform="translate(492.236328 0)"/>
     </g>
    </g>
   </g>
   <g id="matplotlib.axis_2">
    <g id="ytick_1">
     <g id="line2d_19">
      <path d="M 57.6 267.611 
L 414.72 267.611 
" clip-path="url(#pdd284edd55)" style="fill: none; stroke: #b0b0b0; stroke-width: 0.8; stroke-linecap: square"/>
     </g>
     <g id="line2d_20">
      <defs>
       <path id="mfea08187a1" d="M 0 0 
L -3.5 0 
" style="stroke: #000000; stroke-width: 0.8"/>
      </defs>
      <g>
       <use xlink:href="#mfea08187a1" x="57.6" y="267.611" style="stroke: #000000; stroke-width: 0.8"/>
      </g>
     </g>
     <g id="text_11">
      <!-- −200 -->
      <g transform="translate(23.132812 271.410219) scale(0.1 -0.1)">
       <defs>
        <path id="DejaVuSans-2212" d="M 678 2272 
L 4684 2272 
L 4684 1741 
L 678 1741 
L 678 2272 
z
" transform="scale(0.015625)"/>
       </defs>
       <use xlink:href="#DejaVuSans-2212"/>
       <use xlink:href="#DejaVuSans-32" transform="translate(83.789062 0)"/>
       <use xlink:href="#DejaVuSans-30" transform="translate(147.412109 0)"/>
       <use xlink:href="#DejaVuSans-30" transform="translate(211.035156 0)"/>
      </g>
     </g>
    </g>
    <g id="ytick_2">
     <g id="line2d_21">
      <path d="M 57.6 216.729523 
L 414.72 216.729523 
" clip-path="url(#pdd284edd55)" style="fill: none; stroke: #b0b0b0; stroke-width: 0.8; stroke-linecap: square"/>
     </g>
     <g id="line2d_22">
      <g>
       <use xlink:href="#mfea08187a1" x="57.6" y="216.729523" style="stroke: #000000; stroke-width: 0.8"/>
      </g>
     </g>
     <g id="text_12">
      <!-- −150 -->
      <g transform="translate(23.132812 220.528742) scale(0.1 -0.1)">
       <use xlink:href="#DejaVuSans-2212"/>
       <use xlink:href="#DejaVuSans-31" transform="translate(83.789062 0)"/>
       <use xlink:href="#DejaVuSans-35" transform="translate(147.412109 0)"/>
       <use xlink:href="#DejaVuSans-30" transform="translate(211.035156 0)"/>
      </g>
     </g>
    </g>
    <g id="ytick_3">
     <g id="line2d_23">
      <path d="M 57.6 165.848046 
L 414.72 165.848046 
" clip-path="url(#pdd284edd55)" style="fill: none; stroke: #b0b0b0; stroke-width: 0.8; stroke-linecap: square"/>
     </g>
     <g id="line2d_24">
      <g>
       <use xlink:href="#mfea08187a1" x="57.6" y="165.848046" style="stroke: #000000; stroke-width: 0.8"/>
      </g>
     </g>
     <g id="text_13">
      <!-- −100 -->
      <g transform="translate(23.132812 169.647265) scale(0.1 -0.1)">
       <use xlink:href="#DejaVuSans-2212"/>
       <use xlink:href="#DejaVuSans-31" transform="translate(83.789062 0)"/>
       <use xlink:href="#DejaVuSans-30" transform="translate(147.412109 0)"/>
       <use xlink:href="#DejaVuSans-30" transform="translate(211.035156 0)"/>
      </g>
     </g>
    </g>
    <g id="ytick_4">
     <g id="line2d_25">
      <path d="M 57.6 114.966569 
L 414.72 114.966569 
" clip-path="url(#pdd284edd55)" style="fill: none; stroke: #b0b0b0; stroke-width: 0.8; stroke-linecap: square"/>
     </g>
     <g id="line2d_26">
      <g>
       <use xlink:href="#mfea08187a1" x="57.6" y="114.966569" style="stroke: #000000; stroke-width: 0.8"/>
      </g>
     </g>
     <g id="text_14">
      <!-- −50 -->
      <g transform="translate(29.495313 118.765787) scale(0.1 -0.1)">
       <use xlink:href="#DejaVuSans-2212"/>
       <use xlink:href="#DejaVuSans-35" transform="translate(83.789062 0)"/>
       <use xlink:href="#DejaVuSans-30" transform="translate(147.412109 0)"/>
      </g>
     </g>
    </g>
    <g id="ytick_5">
     <g id="line2d_27">
      <path d="M 57.6 64.085091 
L 414.72 64.085091 
" clip-path="url(#pdd284edd55)" style="fill: none; stroke: #b0b0b0; stroke-width: 0.8; stroke-linecap: square"/>
     </g>
     <g id="line2d_28">
      <g>
       <use xlink:href="#mfea08187a1" x="57.6" y="64.085091" style="stroke: #000000; stroke-width: 0.8"/>
      </g>
     </g>
     <g id="text_15">
      <!-- 0 -->
      <g transform="translate(44.2375 67.88431) scale(0.1 -0.1)">
       <use xlink:href="#DejaVuSans-30"/>
      </g>
     </g>
    </g>
    <g id="text_16">
     <!-- Velocidades angulares [°/s] -->
     <g transform="translate(17.053125 242.839719) rotate(-90) scale(0.1 -0.1)">
      <defs>
       <path id="DejaVuSans-56" d="M 1831 0 
L 50 4666 
L 709 4666 
L 2188 738 
L 3669 4666 
L 4325 4666 
L 2547 0 
L 1831 0 
z
" transform="scale(0.015625)"/>
       <path id="DejaVuSans-6c" d="M 603 4863 
L 1178 4863 
L 1178 0 
L 603 0 
L 603 4863 
z
" transform="scale(0.015625)"/>
       <path id="DejaVuSans-63" d="M 3122 3366 
L 3122 2828 
Q 2878 2963 2633 3030 
Q 2388 3097 2138 3097 
Q 1578 3097 1268 2742 
Q 959 2388 959 1747 
Q 959 1106 1268 751 
Q 1578 397 2138 397 
Q 2388 397 2633 464 
Q 2878 531 3122 666 
L 3122 134 
Q 2881 22 2623 -34 
Q 2366 -91 2075 -91 
Q 1284 -91 818 406 
Q 353 903 353 1747 
Q 353 2603 823 3093 
Q 1294 3584 2113 3584 
Q 2378 3584 2631 3529 
Q 2884 3475 3122 3366 
z
" transform="scale(0.015625)"/>
       <path id="DejaVuSans-64" d="M 2906 2969 
L 2906 4863 
L 3481 4863 
L 3481 0 
L 2906 0 
L 2906 525 
Q 2725 213 2448 61 
Q 2172 -91 1784 -91 
Q 1150 -91 751 415 
Q 353 922 353 1747 
Q 353 2572 751 3078 
Q 1150 3584 1784 3584 
Q 2172 3584 2448 3432 
Q 2725 3281 2906 2969 
z
M 947 1747 
Q 947 1113 1208 752 
Q 1469 391 1925 391 
Q 2381 391 2643 752 
Q 2906 1113 2906 1747 
Q 2906 2381 2643 2742 
Q 2381 3103 1925 3103 
Q 1469 3103 1208 2742 
Q 947 2381 947 1747 
z
" transform="scale(0.015625)"/>
       <path id="DejaVuSans-61" d="M 2194 1759 
Q 1497 1759 1228 1600 
Q 959 1441 959 1056 
Q 959 750 1161 570 
Q 1363 391 1709 391 
Q 2188 391 2477 730 
Q 2766 1069 2766 1631 
L 2766 1759 
L 2194 1759 
z
M 3341 1997 
L 3341 0 
L 2766 0 
L 2766 531 
Q 2569 213 2275 61 
Q 1981 -91 1556 -91 
Q 1019 -91 701 211 
Q 384 513 384 1019 
Q 384 1609 779 1909 
Q 1175 2209 1959 2209 
L 2766 2209 
L 2766 2266 
Q 2766 2663 2505 2880 
Q 2244 3097 1772 3097 
Q 1472 3097 1187 3025 
Q 903 2953 641 2809 
L 641 3341 
Q 956 3463 1253 3523 
Q 1550 3584 1831 3584 
Q 2591 3584 2966 3190 
Q 3341 2797 3341 1997 
z
" transform="scale(0.015625)"/>
       <path id="DejaVuSans-6e" d="M 3513 2113 
L 3513 0 
L 2938 0 
L 2938 2094 
Q 2938 2591 2744 2837 
Q 2550 3084 2163 3084 
Q 1697 3084 1428 2787 
Q 1159 2491 1159 1978 
L 1159 0 
L 581 0 
L 581 3500 
L 1159 3500 
L 1159 2956 
Q 1366 3272 1645 3428 
Q 1925 3584 2291 3584 
Q 2894 3584 3203 3211 
Q 3513 2838 3513 2113 
z
" transform="scale(0.015625)"/>
       <path id="DejaVuSans-67" d="M 2906 1791 
Q 2906 2416 2648 2759 
Q 2391 3103 1925 3103 
Q 1463 3103 1205 2759 
Q 947 2416 947 1791 
Q 947 1169 1205 825 
Q 1463 481 1925 481 
Q 2391 481 2648 825 
Q 2906 1169 2906 1791 
z
M 3481 434 
Q 3481 -459 3084 -895 
Q 2688 -1331 1869 -1331 
Q 1566 -1331 1297 -1286 
Q 1028 -1241 775 -1147 
L 775 -588 
Q 1028 -725 1275 -790 
Q 1522 -856 1778 -856 
Q 2344 -856 2625 -561 
Q 2906 -266 2906 331 
L 2906 616 
Q 2728 306 2450 153 
Q 2172 0 1784 0 
Q 1141 0 747 490 
Q 353 981 353 1791 
Q 353 2603 747 3093 
Q 1141 3584 1784 3584 
Q 2172 3584 2450 3431 
Q 2728 3278 2906 2969 
L 2906 3500 
L 3481 3500 
L 3481 434 
z
" transform="scale(0.015625)"/>
       <path id="DejaVuSans-75" d="M 544 1381 
L 544 3500 
L 1119 3500 
L 1119 1403 
Q 1119 906 1312 657 
Q 1506 409 1894 409 
Q 2359 409 2629 706 
Q 2900 1003 2900 1516 
L 2900 3500 
L 3475 3500 
L 3475 0 
L 2900 0 
L 2900 538 
Q 2691 219 2414 64 
Q 2138 -91 1772 -91 
Q 1169 -91 856 284 
Q 544 659 544 1381 
z
M 1991 3584 
L 1991 3584 
z
" transform="scale(0.015625)"/>
       <path id="DejaVuSans-72" d="M 2631 2963 
Q 2534 3019 2420 3045 
Q 2306 3072 2169 3072 
Q 1681 3072 1420 2755 
Q 1159 2438 1159 1844 
L 1159 0 
L 581 0 
L 581 3500 
L 1159 3500 
L 1159 2956 
Q 1341 3275 1631 3429 
Q 1922 3584 2338 3584 
Q 2397 3584 2469 3576 
Q 2541 3569 2628 3553 
L 2631 2963 
z
" transform="scale(0.015625)"/>
       <path id="DejaVuSans-b0" d="M 1600 4347 
Q 1350 4347 1178 4173 
Q 1006 4000 1006 3750 
Q 1006 3503 1178 3333 
Q 1350 3163 1600 3163 
Q 1850 3163 2022 3333 
Q 2194 3503 2194 3750 
Q 2194 3997 2020 4172 
Q 1847 4347 1600 4347 
z
M 1600 4750 
Q 1800 4750 1984 4673 
Q 2169 4597 2303 4453 
Q 2447 4313 2519 4134 
Q 2591 3956 2591 3750 
Q 2591 3338 2302 3052 
Q 2013 2766 1594 2766 
Q 1172 2766 890 3047 
Q 609 3328 609 3750 
Q 609 4169 896 4459 
Q 1184 4750 1600 4750 
z
" transform="scale(0.015625)"/>
       <path id="DejaVuSans-2f" d="M 1625 4666 
L 2156 4666 
L 531 -594 
L 0 -594 
L 1625 4666 
z
" transform="scale(0.015625)"/>
      </defs>
      <use xlink:href="#DejaVuSans-56"/>
      <use xlink:href="#DejaVuSans-65" transform="translate(60.658203 0)"/>
      <use xlink:href="#DejaVuSans-6c" transform="translate(122.181641 0)"/>
      <use xlink:href="#DejaVuSans-6f" transform="translate(149.964844 0)"/>
      <use xlink:href="#DejaVuSans-63" transform="translate(211.146484 0)"/>
      <use xlink:href="#DejaVuSans-69" transform="translate(266.126953 0)"/>
      <use xlink:href="#DejaVuSans-64" transform="translate(293.910156 0)"/>
      <use xlink:href="#DejaVuSans-61" transform="translate(357.386719 0)"/>
      <use xlink:href="#DejaVuSans-64" transform="translate(418.666016 0)"/>
      <use xlink:href="#DejaVuSans-65" transform="translate(482.142578 0)"/>
      <use xlink:href="#DejaVuSans-73" transform="translate(543.666016 0)"/>
      <use xlink:href="#DejaVuSans-20" transform="translate(595.765625 0)"/>
      <use xlink:href="#DejaVuSans-61" transform="translate(627.552734 0)"/>
      <use xlink:href="#DejaVuSans-6e" transform="translate(688.832031 0)"/>
      <use xlink:href="#DejaVuSans-67" transform="translate(752.210938 0)"/>
      <use xlink:href="#DejaVuSans-75" transform="translate(815.6875 0)"/>
      <use xlink:href="#DejaVuSans-6c" transform="translate(879.066406 0)"/>
      <use xlink:href="#DejaVuSans-61" transform="translate(906.849609 0)"/>
      <use xlink:href="#DejaVuSans-72" transform="translate(968.128906 0)"/>
      <use xlink:href="#DejaVuSans-65" transform="translate(1006.992188 0)"/>
      <use xlink:href="#DejaVuSans-73" transform="translate(1068.515625 0)"/>
      <use xlink:href="#DejaVuSans-20" transform="translate(1120.615234 0)"/>
      <use xlink:href="#DejaVuSans-5b" transform="translate(1152.402344 0)"/>
      <use xlink:href="#DejaVuSans-b0" transform="translate(1191.416016 0)"/>
      <use xlink:href="#DejaVuSans-2f" transform="translate(1241.416016 0)"/>
      <use xlink:href="#DejaVuSans-73" transform="translate(1275.107422 0)"/>
      <use xlink:href="#DejaVuSans-5d" transform="translate(1327.207031 0)"/>
     </g>
    </g>
   </g>
   <g id="line2d_29">
    <path d="M 71.951976 64.085091 
L 74.586913 61.186056 
L 76.233749 59.015103 
L 78.292293 55.884639 
L 80.021471 53.36625 
L 80.92723 52.405515 
L 81.585965 51.999598 
L 82.080015 51.910176 
L 82.574066 52.040685 
L 83.068117 52.419848 
L 83.644509 53.206697 
L 84.220902 54.384326 
L 84.961978 56.468108 
L 85.867737 59.773174 
L 88.667358 70.634547 
L 89.161409 71.607835 
L 89.573118 71.978474 
L 89.902485 71.951857 
L 90.231852 71.620931 
L 90.643561 70.771637 
L 91.137611 69.134712 
L 91.796346 66.048106 
L 93.196156 57.904513 
L 93.937232 54.313404 
L 94.431283 52.820858 
L 94.76065 52.361858 
L 95.007675 52.332034 
L 95.254701 52.583322 
L 95.584068 53.357503 
L 95.995777 54.997814 
L 96.572169 58.347139 
L 98.548372 71.061952 
L 98.960081 72.061494 
L 99.207106 72.165476 
L 99.37179 72.017056 
L 99.618815 71.466629 
L 99.948182 70.143959 
L 100.442233 67.070514 
L 101.595018 57.64898 
L 102.17141 53.960003 
L 102.583119 52.576099 
L 102.830145 52.374039 
L 102.994828 52.518335 
L 103.241854 53.153904 
L 103.571221 54.743465 
L 104.065271 58.434919 
L 105.547424 70.832142 
L 105.876791 71.986379 
L 106.123816 72.169866 
L 106.2885 71.950397 
L 106.535525 71.113988 
L 106.864892 69.124869 
L 107.441285 63.88135 
L 108.429386 54.57143 
L 108.841095 52.623357 
L 109.08812 52.354305 
L 109.252804 52.578237 
L 109.499829 53.511142 
L 109.829196 55.768074 
L 110.405589 61.6289 
L 111.229007 69.904244 
L 111.558374 71.69593 
L 111.805399 72.140683 
L 111.970083 71.973826 
L 112.217108 71.032775 
L 112.546475 68.609441 
L 114.110969 54.468192 
L 114.357994 53.923652 
L 114.522678 53.976032 
L 114.687362 54.360218 
L 114.934387 55.521403 
L 115.346096 58.723614 
L 116.581223 69.568583 
L 116.91059 70.561671 
L 117.075273 70.565856 
L 117.239957 70.237167 
L 117.486982 69.152375 
L 117.898691 66.042774 
L 119.21616 54.692932 
L 119.463185 53.982924 
L 119.627869 53.920579 
L 119.792552 54.19186 
L 120.039577 55.196962 
L 120.451286 58.207976 
L 121.851097 70.029845 
L 122.098122 70.583701 
L 122.262806 70.538525 
L 122.427489 70.162006 
L 122.674515 69.012451 
L 123.086223 65.826832 
L 124.32135 54.968989 
L 124.650717 53.954709 
L 124.815401 53.938414 
L 124.980084 54.254615 
L 125.22711 55.321116 
L 125.638819 58.405853 
L 126.956287 69.782259 
L 127.203313 70.515453 
L 127.367996 70.594793 
L 127.53268 70.340966 
L 127.779705 69.361328 
L 128.191414 66.384832 
L 129.591224 54.520799 
L 129.83825 53.935677 
L 130.002933 53.958629 
L 130.167617 54.312854 
L 130.414642 55.430847 
L 130.826351 58.576119 
L 132.14382 69.859549 
L 132.390845 70.540355 
L 132.555529 70.58377 
L 132.720212 70.294898 
L 132.967237 69.26734 
L 133.378946 66.233174 
L 134.696415 54.798508 
L 134.94344 54.020751 
L 135.108124 53.909443 
L 135.272807 54.130967 
L 135.519833 55.064384 
L 135.931542 57.980143 
L 137.331352 69.919865 
L 137.578377 70.557802 
L 137.743061 70.572069 
L 137.907745 70.254952 
L 138.15477 69.189127 
L 138.566479 66.109822 
L 139.883947 54.740543 
L 140.130973 54.000448 
L 140.295656 53.914963 
L 140.46034 54.161675 
L 140.707365 55.129532 
L 141.119074 58.086834 
L 142.518884 69.964828 
L 142.76591 70.569554 
L 142.930593 70.561452 
L 143.095277 70.222824 
L 143.342302 69.128159 
L 143.754011 66.015611 
L 145.07148 54.698763 
L 145.318505 53.986782 
L 145.483189 53.920368 
L 145.647872 54.185521 
L 145.894898 55.1783 
L 146.306606 58.164923 
L 147.706417 69.995707 
L 147.953442 70.576972 
L 148.118126 70.55327 
L 148.282809 70.199805 
L 148.529835 69.085543 
L 148.941544 65.951147 
L 150.259012 54.672105 
L 150.506037 53.978603 
L 150.670721 53.924507 
L 150.835405 54.2014 
L 151.08243 55.209727 
L 151.494139 58.21386 
L 152.893949 70.013401 
L 153.140974 70.581006 
L 153.305658 70.548464 
L 153.470342 70.186783 
L 153.717367 69.062029 
L 154.129076 65.916829 
L 155.446544 54.541415 
L 155.69357 54.063147 
L 155.858253 54.183815 
L 156.105279 55.012145 
L 156.434646 57.193139 
L 157.011038 62.899867 
L 157.752114 69.876536 
L 158.081481 71.503089 
L 158.328507 71.847433 
L 158.49319 71.636608 
L 158.740216 70.680649 
L 159.069583 68.36098 
L 159.810659 60.800099 
L 160.387051 55.754971 
L 160.716419 54.290374 
L 160.881102 54.062488 
L 161.045786 54.187487 
L 161.292811 55.021986 
L 161.622178 57.209759 
L 162.280912 63.807807 
L 162.939647 69.890194 
L 163.269014 71.509078 
L 163.516039 71.846978 
L 163.680723 71.631845 
L 163.927748 70.669828 
L 164.257115 68.343662 
L 164.998191 60.778967 
L 165.574584 55.742197 
L 165.903951 54.285464 
L 166.068635 54.061883 
L 166.233318 54.191211 
L 166.480343 55.031874 
L 166.809711 57.226415 
L 167.468445 63.82949 
L 168.127179 69.903811 
L 168.456546 71.515015 
L 168.703572 71.84647 
L 168.868255 71.627029 
L 169.115281 70.658961 
L 169.444648 68.326311 
L 170.185724 60.757849 
L 170.762116 55.729468 
L 171.091483 54.280605 
L 171.256167 54.061331 
L 171.42085 54.194988 
L 171.667876 55.04181 
L 171.997243 57.243104 
L 172.655977 63.851168 
L 173.314711 69.917385 
L 173.644079 71.520901 
L 173.891104 71.845908 
L 174.055788 71.622161 
L 174.302813 70.648048 
L 174.714522 67.574835 
L 176.196674 54.513514 
L 176.443699 54.060833 
L 176.608383 54.198817 
L 176.855408 55.051794 
L 177.184775 57.259828 
L 177.84351 63.87284 
L 178.502244 69.930918 
L 178.831611 71.526735 
L 179.078636 71.845293 
L 179.24332 71.617241 
L 179.490345 70.637088 
L 179.902054 67.556203 
L 181.384206 54.506665 
L 181.631232 54.060388 
L 181.795915 54.202699 
L 182.042941 55.061825 
L 182.372308 57.276586 
L 183.031042 63.894508 
L 183.689776 69.944409 
L 184.019143 71.532518 
L 184.266169 71.844625 
L 184.430852 71.612269 
L 184.677878 70.626083 
L 185.089587 67.537543 
L 186.571739 54.499867 
L 186.818764 54.059996 
L 186.983448 54.206633 
L 187.230473 55.071903 
L 187.55984 57.293378 
L 188.218574 63.916169 
L 188.877309 69.957859 
L 189.206676 71.53825 
L 189.453701 71.843903 
L 189.618385 71.607245 
L 189.86541 70.615031 
L 190.277119 67.518856 
L 191.676929 54.808705 
L 191.923955 54.116724 
L 192.088638 54.091061 
L 192.253322 54.417145 
L 192.500347 55.533771 
L 192.912056 58.785052 
L 194.229525 70.915583 
L 194.47655 71.731299 
L 194.641233 71.843128 
L 194.805917 71.60217 
L 195.052942 70.603933 
L 195.464651 67.500141 
L 196.864462 54.799977 
L 197.111487 54.11427 
L 197.276171 54.092947 
L 197.440854 54.423297 
L 197.687879 55.545812 
L 198.099588 58.804312 
L 199.417057 70.925272 
L 199.664082 71.734803 
L 199.828766 71.8423 
L 199.993449 71.597042 
L 200.240475 70.59279 
L 200.652184 67.481399 
L 202.051994 54.791297 
L 202.299019 54.11187 
L 202.463703 54.094887 
L 202.628386 54.4295 
L 202.875412 55.557897 
L 203.287121 58.823597 
L 204.604589 70.934913 
L 204.851615 71.738254 
L 205.016298 71.841418 
L 205.180982 71.591863 
L 205.428007 70.5816 
L 205.839716 67.46263 
L 207.239526 54.782667 
L 207.486552 54.109522 
L 207.651235 54.09688 
L 207.815919 54.435754 
L 208.062944 55.570027 
L 208.474653 58.842907 
L 209.792122 70.944506 
L 210.039147 71.741653 
L 210.203831 71.840483 
L 210.368514 71.586631 
L 210.615539 70.570365 
L 211.027248 67.443834 
L 212.427059 54.774085 
L 212.674084 54.107227 
L 212.838768 54.098925 
L 213.003451 54.442059 
L 213.250477 55.582202 
L 213.662185 58.862242 
L 214.979654 70.954052 
L 215.226679 71.744999 
L 215.391363 71.839495 
L 215.556046 71.581348 
L 215.803072 70.559085 
L 216.214781 67.42501 
L 217.614591 54.765553 
L 217.861616 54.104986 
L 218.0263 54.101025 
L 218.190984 54.448415 
L 218.438009 55.59442 
L 218.849718 58.881601 
L 220.167186 70.963549 
L 220.414212 71.748292 
L 220.578895 71.838454 
L 220.743579 71.576014 
L 220.990604 70.547758 
L 221.402313 67.40616 
L 222.802123 54.75707 
L 223.049149 54.102798 
L 223.213832 54.103177 
L 223.378516 54.454823 
L 223.625541 55.606683 
L 224.03725 58.900985 
L 225.354719 70.972998 
L 225.601744 71.751532 
L 225.766428 71.837359 
L 225.931111 71.570627 
L 226.178137 70.536386 
L 226.589845 67.387284 
L 227.989656 54.748635 
L 228.236681 54.100662 
L 228.401365 54.105382 
L 228.566048 54.461281 
L 228.813074 55.61899 
L 229.224783 58.920392 
L 230.542251 70.9824 
L 230.789276 71.75472 
L 230.95396 71.836211 
L 231.118644 71.565189 
L 231.365669 70.524969 
L 231.777378 67.368381 
L 233.177188 54.740251 
L 233.424214 54.09858 
L 233.588897 54.10764 
L 233.753581 54.46779 
L 234.000606 55.63134 
L 234.412315 58.939825 
L 235.729783 70.991753 
L 235.976809 71.757854 
L 236.141492 71.835009 
L 236.306176 71.559699 
L 236.553201 70.513506 
L 236.96491 67.349451 
L 238.364721 54.731915 
L 238.611746 54.096551 
L 238.776429 54.109952 
L 238.941113 54.47435 
L 239.188138 55.643735 
L 239.599847 58.959281 
L 240.917316 71.001057 
L 241.164341 71.760936 
L 241.329025 71.833754 
L 241.493708 71.554157 
L 241.740734 70.501998 
L 242.152443 67.330495 
L 243.552253 54.723629 
L 243.799278 54.094575 
L 243.963962 54.112316 
L 244.128645 54.480961 
L 244.375671 55.656174 
L 244.78738 58.978761 
L 246.104848 71.010314 
L 246.351874 71.763965 
L 246.516557 71.832446 
L 246.681241 71.548564 
L 246.928266 70.490445 
L 247.339975 67.311513 
L 248.739785 54.715392 
L 248.986811 54.092652 
L 249.151494 54.114734 
L 249.316178 54.487623 
L 249.563203 55.668656 
L 249.974912 58.998265 
L 251.292381 71.019522 
L 251.539406 71.766941 
L 251.704089 71.831085 
L 251.868773 71.54292 
L 252.115798 70.478846 
L 252.527507 67.292504 
L 253.927318 54.707204 
L 254.174343 54.090783 
L 254.339027 54.117204 
L 254.50371 54.494336 
L 254.750735 55.681182 
L 255.162444 59.017792 
L 256.479913 71.028682 
L 256.726938 71.769865 
L 256.891622 71.829671 
L 257.056305 71.537224 
L 257.303331 70.467202 
L 257.71504 67.27347 
L 259.11485 54.699066 
L 259.361875 54.088966 
L 259.526559 54.119728 
L 259.691242 54.501099 
L 259.938268 55.693751 
L 260.349977 59.037343 
L 261.667445 71.037793 
L 261.914471 71.772735 
L 262.079154 71.828203 
L 262.243838 71.531476 
L 262.490863 70.455513 
L 262.902572 67.25441 
L 264.302382 54.690978 
L 264.549408 54.087203 
L 264.714091 54.122305 
L 264.878775 54.507913 
L 265.1258 55.706364 
L 265.537509 59.056918 
L 266.854978 71.046856 
L 267.102003 71.775553 
L 267.266687 71.826682 
L 267.43137 71.525677 
L 267.678396 70.44378 
L 268.090104 67.235324 
L 269.489915 54.682939 
L 269.73694 54.085493 
L 269.901624 54.124934 
L 270.066307 54.514778 
L 270.313333 55.719021 
L 270.725042 59.076516 
L 272.04251 71.05587 
L 272.289535 71.778317 
L 272.454219 71.825108 
L 272.618903 71.519826 
L 272.865928 70.432001 
L 273.277637 67.216212 
L 274.677447 54.67495 
L 274.924472 54.083836 
L 275.089156 54.127617 
L 275.25384 54.521693 
L 275.500865 55.731721 
L 275.912574 59.096137 
L 277.147701 70.660744 
L 277.477068 71.781029 
L 277.641751 71.82348 
L 277.806435 71.513924 
L 278.05346 70.420177 
L 278.465169 67.197075 
L 279.864979 54.66701 
L 280.112005 54.082233 
L 280.276688 54.130352 
L 280.441372 54.528659 
L 280.688397 55.744464 
L 281.100106 59.115782 
L 282.335233 70.671597 
L 282.6646 71.783687 
L 282.829284 71.821799 
L 282.993967 71.507971 
L 283.240993 70.408309 
L 283.652702 67.177912 
L 284.97017 55.020359 
L 285.217195 54.186933 
L 285.381879 54.062692 
L 285.546563 54.291326 
L 285.793588 55.272302 
L 286.205297 58.35423 
L 287.687449 71.401987 
L 287.934474 71.847409 
L 288.099158 71.704535 
L 288.346183 70.844627 
L 288.67555 68.629036 
L 289.334285 62.010545 
L 289.993019 55.961707 
L 290.322386 54.374611 
L 290.569411 54.063368 
L 290.734095 54.296305 
L 290.98112 55.283314 
L 291.392829 58.372894 
L 292.874981 71.408779 
L 293.122007 71.847794 
L 293.28669 71.700594 
L 293.533716 70.834543 
L 293.863083 68.61224 
L 294.521817 61.988884 
L 295.180551 55.948263 
L 295.509918 54.368887 
L 295.756944 54.064096 
L 295.921627 54.301336 
L 296.168653 55.294372 
L 296.580362 58.391585 
L 297.980172 71.100211 
L 298.227197 71.791345 
L 298.391881 71.816438 
L 298.556564 71.489804 
L 298.80359 70.372436 
L 299.215299 67.120272 
L 300.532767 54.991025 
L 300.779793 54.176127 
L 300.944476 54.064879 
L 301.10916 54.306419 
L 301.356185 55.305476 
L 301.767894 58.410303 
L 303.167704 71.108933 
L 303.41473 71.793792 
L 303.579413 71.814545 
L 303.744097 71.483645 
L 303.991122 70.360389 
L 304.402831 67.101009 
L 305.7203 54.981342 
L 305.967325 54.17263 
L 306.132008 54.065714 
L 306.296692 54.311554 
L 306.543717 55.316626 
L 306.955426 58.429049 
L 308.355237 71.117605 
L 308.602262 71.796186 
L 308.766946 71.812598 
L 308.931629 71.477436 
L 309.178654 70.348298 
L 309.590363 67.081721 
L 310.907832 54.971707 
L 311.154857 54.169186 
L 311.319541 54.066603 
L 311.484224 54.31674 
L 311.73125 55.327821 
L 312.142959 58.447822 
L 313.542769 71.126229 
L 313.789794 71.798526 
L 313.954478 71.810598 
L 314.119161 71.471175 
L 314.366187 70.336163 
L 314.777896 67.062408 
L 316.095364 54.96212 
L 316.34239 54.165794 
L 316.507073 54.067545 
L 316.671757 54.321978 
L 316.918782 55.339063 
L 317.330491 58.466622 
L 318.730301 71.134804 
L 318.977327 71.800814 
L 319.14201 71.808546 
L 319.306694 71.464864 
L 319.553719 70.323983 
L 319.965428 67.04307 
L 321.282897 54.952581 
L 321.529922 54.162455 
L 321.694606 54.06854 
L 321.859289 54.327268 
L 322.106314 55.35035 
L 322.518023 58.485448 
L 323.917834 71.14333 
L 324.164859 71.803048 
L 324.329543 71.80644 
L 324.494226 71.458501 
L 324.741252 70.311759 
L 325.15296 67.023708 
L 326.470429 54.94309 
L 326.717454 54.159169 
L 326.882138 54.069589 
L 327.046822 54.33261 
L 327.293847 55.361682 
L 327.705556 58.504302 
L 329.105366 71.151806 
L 329.352391 71.80523 
L 329.517075 71.804281 
L 329.681759 71.452087 
L 329.928784 70.299491 
L 330.340493 67.004322 
L 331.657961 54.933647 
L 331.904987 54.155936 
L 332.06967 54.070691 
L 332.234354 54.338004 
L 332.481379 55.37306 
L 332.893088 58.523182 
L 334.292898 71.160234 
L 334.539924 71.807358 
L 334.704607 71.802068 
L 334.869291 71.445622 
L 335.116316 70.287178 
L 335.528025 66.984911 
L 336.845494 54.924252 
L 337.092519 54.152756 
L 337.257203 54.071847 
L 337.421886 54.343449 
L 337.668912 55.384484 
L 338.080621 58.542089 
L 339.480431 71.168612 
L 339.727456 71.809433 
L 339.89214 71.799803 
L 340.056823 71.439107 
L 340.303849 70.274822 
L 340.715558 66.965476 
L 342.033026 54.914905 
L 342.280051 54.149628 
L 342.444735 54.073055 
L 342.609419 54.348946 
L 342.856444 55.395953 
L 343.268153 58.561022 
L 344.667963 71.176941 
L 344.914989 71.811455 
L 345.079672 71.797485 
L 345.244356 71.43254 
L 345.491381 70.262422 
L 345.90309 66.946017 
L 347.220558 54.905607 
L 347.467584 54.146553 
L 347.632267 54.074317 
L 347.796951 54.354494 
L 348.043976 55.407467 
L 348.455685 58.579982 
L 349.855496 71.18522 
L 350.102521 71.813424 
L 350.267204 71.795113 
L 350.431888 71.425923 
L 350.678913 70.249978 
L 351.090622 66.926534 
L 352.408091 54.896357 
L 352.655116 54.143531 
L 352.8198 54.075632 
L 352.984483 54.360095 
L 353.231509 55.419027 
L 353.643218 58.598967 
L 355.043028 71.19345 
L 355.290053 71.81534 
L 355.454737 71.792689 
L 355.61942 71.419254 
L 355.866446 70.237491 
L 356.278155 66.907028 
L 357.595623 54.887155 
L 357.842649 54.140562 
L 358.007332 54.077001 
L 358.172016 54.365746 
L 358.419041 55.430632 
L 358.83075 58.617979 
L 360.23056 71.201631 
L 360.477586 71.817202 
L 360.642269 71.790212 
L 360.806953 71.412535 
L 361.053978 70.224959 
L 361.465687 66.887497 
L 362.783156 54.878002 
L 363.030181 54.137646 
L 363.194865 54.078423 
L 363.359548 54.371449 
L 363.606573 55.442282 
L 364.018282 58.637017 
L 365.418093 71.209762 
L 365.665118 71.819011 
L 365.829802 71.787681 
L 365.994485 71.405766 
L 366.241511 70.212384 
L 366.653219 66.867943 
L 367.970688 54.868897 
L 368.217713 54.134783 
L 368.382397 54.079897 
L 368.54708 54.377204 
L 368.794106 55.453977 
L 369.205815 58.656081 
L 370.605625 71.217844 
L 370.85265 71.820768 
L 371.017334 71.785098 
L 371.182018 71.398945 
L 371.429043 70.199766 
L 371.840752 66.848366 
L 373.15822 54.85984 
L 373.405246 54.131972 
L 373.569929 54.081426 
L 373.734613 54.38301 
L 373.981638 55.465716 
L 374.393347 58.67517 
L 375.793157 71.225876 
L 376.040183 71.822471 
L 376.204866 71.782461 
L 376.36955 71.392074 
L 376.616575 70.187104 
L 377.028284 66.828765 
L 378.345753 54.850832 
L 378.592778 54.129215 
L 378.757462 54.083007 
L 378.922145 54.388868 
L 379.169171 55.477501 
L 379.580879 58.694285 
L 380.98069 71.233858 
L 381.227715 71.82412 
L 381.392399 71.779772 
L 381.557082 71.385152 
L 381.804108 70.174398 
L 382.215817 66.809141 
L 383.450943 55.245711 
L 383.78031 54.12651 
L 383.944994 54.084642 
L 384.109678 54.394776 
L 384.356703 55.489331 
L 384.768412 58.713426 
L 386.168222 71.241791 
L 386.415248 71.825717 
L 386.579931 71.777029 
L 386.744615 71.37818 
L 386.99164 70.16165 
L 387.403349 66.789494 
L 388.638476 55.234864 
L 388.967843 54.123859 
L 389.132526 54.08633 
L 389.29721 54.400737 
L 389.544235 55.501205 
L 389.955944 58.732592 
L 391.273413 70.888708 
L 391.520438 71.721296 
L 391.685122 71.844965 
L 391.849805 71.615773 
L 392.096831 70.634033 
L 392.508539 67.551165 
L 393.990692 54.505002 
L 394.237717 54.060435 
L 394.402401 54.203893 
L 394.649426 55.064637 
L 394.978793 57.281145 
L 395.637527 63.900249 
L 396.296262 69.947865 
L 396.625629 71.533896 
L 396.872654 71.844282 
L 397.037338 71.610787 
L 397.284363 70.623015 
L 397.696072 67.532498 
L 399.178224 54.498217 
L 399.425249 54.060057 
L 399.589933 54.207841 
L 399.836958 55.074728 
L 400.166325 57.297946 
L 400.82506 63.921908 
L 401.483794 69.961303 
L 401.813161 71.539614 
L 402.060186 71.843546 
L 402.22487 71.60575 
L 402.471895 70.611951 
L 402.883604 67.513804 
L 404.283415 54.806524 
L 404.53044 54.116222 
L 404.695123 54.091712 
L 404.859807 54.418925 
L 405.106832 55.537097 
L 405.518541 58.790242 
L 406.83601 70.918023 
L 407.083035 71.732082 
L 407.247719 71.842757 
L 407.412402 71.60066 
L 407.659428 70.600842 
L 408.071137 67.495082 
L 409.470947 54.797808 
L 409.717972 54.113782 
L 409.882656 54.093613 
L 410.047339 54.42509 
L 410.294365 55.54915 
L 410.706074 58.809508 
L 412.023542 70.927699 
L 412.270568 71.735572 
L 412.435251 71.841915 
L 412.599935 71.595519 
L 412.84696 70.589686 
L 413.258669 67.476333 
L 414.658479 54.789142 
L 414.740821 54.478169 
L 414.740821 54.478169 
" clip-path="url(#pdd284edd55)" style="fill: none; stroke: #1f77b4; stroke-width: 1.5; stroke-linecap: square"/>
   </g>
   <g id="line2d_30">
    <path d="M 71.951976 64.085091 
L 74.339888 63.598541 
L 75.575014 63.570617 
L 76.563116 63.76503 
L 77.468875 64.182751 
L 78.292293 64.816298 
L 79.115711 65.739074 
L 79.939129 66.988045 
L 80.844888 68.759757 
L 81.915332 71.360636 
L 83.644509 76.28246 
L 84.961978 79.793077 
L 85.703054 81.254968 
L 86.279446 81.974094 
L 86.691155 82.212429 
L 87.102864 82.194084 
L 87.514573 81.903618 
L 88.008624 81.189394 
L 88.585016 79.873677 
L 89.326092 77.544035 
L 91.631662 69.710996 
L 92.125713 68.95651 
L 92.45508 68.809128 
L 92.702105 68.905744 
L 93.031472 69.324108 
L 93.443181 70.316425 
L 93.937232 72.157979 
L 94.678308 75.975346 
L 96.407486 85.39711 
L 96.901536 86.84706 
L 97.230903 87.26009 
L 97.477929 87.252301 
L 97.724954 86.967687 
L 98.054321 86.170469 
L 98.548372 84.182287 
L 99.37179 79.549058 
L 100.277549 74.780743 
L 100.689258 73.53024 
L 101.018625 73.165911 
L 101.183309 73.220317 
L 101.430334 73.608163 
L 101.759701 74.688111 
L 102.253752 77.380658 
L 103.07717 83.567443 
L 103.900588 89.152234 
L 104.312297 90.713363 
L 104.559322 91.089137 
L 104.724006 91.087606 
L 104.971031 90.70524 
L 105.300398 89.523374 
L 105.794449 86.584504 
L 107.194259 77.40822 
L 107.523626 76.678033 
L 107.68831 76.661983 
L 107.852993 76.889544 
L 108.100019 77.683585 
L 108.511728 80.104294 
L 109.170462 85.836605 
L 109.99388 92.530583 
L 110.323247 93.940462 
L 110.570272 94.298366 
L 110.734956 94.182976 
L 110.981981 93.488029 
L 111.311348 91.686238 
L 111.887741 86.958113 
L 112.628817 81.138237 
L 112.958184 79.827833 
L 113.205209 79.586761 
L 113.369893 79.740593 
L 113.616918 80.464799 
L 113.946285 82.236987 
L 114.687362 88.028602 
L 115.263754 91.87928 
L 115.593121 92.982088 
L 115.757805 93.144339 
L 115.922488 93.034938 
L 116.169514 92.373975 
L 116.498881 90.67061 
L 117.157615 85.590995 
L 117.816349 80.978854 
L 118.145716 79.790452 
L 118.392742 79.57823 
L 118.557425 79.775641 
L 118.804451 80.560296 
L 119.21616 82.96667 
L 120.61597 92.621967 
L 120.862995 93.103667 
L 121.027679 93.088811 
L 121.192362 92.804259 
L 121.439388 91.899446 
L 121.851097 89.345675 
L 123.168565 80.164223 
L 123.415591 79.610004 
L 123.580274 79.57476 
L 123.744958 79.810079 
L 123.991983 80.646803 
L 124.403692 83.116402 
L 125.721161 92.401118 
L 125.968186 93.025958 
L 126.132869 93.110903 
L 126.297553 92.92502 
L 126.544578 92.157485 
L 126.956287 89.774433 
L 128.356098 80.081627 
L 128.603123 79.576038 
L 128.767807 79.574002 
L 128.93249 79.841609 
L 129.179515 80.722273 
L 129.591224 83.244122 
L 130.908693 92.453436 
L 131.155718 93.034034 
L 131.320402 93.088504 
L 131.485085 92.872783 
L 131.732111 92.064245 
L 132.14382 89.631289 
L 133.54363 80.013012 
L 133.790655 79.548297 
L 133.955339 79.573942 
L 134.120022 79.868284 
L 134.367048 80.784998 
L 134.778757 83.348836 
L 136.096225 92.491383 
L 136.343251 93.035406 
L 136.507934 93.064893 
L 136.672618 92.824873 
L 136.919643 91.983245 
L 137.331352 89.510794 
L 138.648821 80.229914 
L 138.895846 79.602657 
L 139.060529 79.515157 
L 139.225213 79.69777 
L 139.472238 80.459264 
L 139.883947 82.83058 
L 141.283758 92.516338 
L 141.530783 93.031578 
L 141.695467 93.041583 
L 141.86015 92.782753 
L 142.107175 91.91576 
L 142.518884 89.413685 
L 143.836353 80.176869 
L 144.083378 79.574247 
L 144.248062 79.503547 
L 144.412745 79.702475 
L 144.659771 80.486147 
L 145.07148 82.883899 
L 146.47129 92.529393 
L 146.718315 93.023731 
L 146.882999 93.019751 
L 147.047682 92.747549 
L 147.294708 91.862764 
L 147.706417 89.340508 
L 149.023885 80.136525 
L 149.270911 79.550748 
L 149.435594 79.491365 
L 149.600278 79.701149 
L 149.847303 80.499331 
L 150.259012 82.913763 
L 151.658822 92.53135 
L 151.905848 93.012715 
L 152.070531 93.000241 
L 152.235215 92.720064 
L 152.48224 91.82494 
L 152.893949 89.291631 
L 154.211418 80.108245 
L 154.458443 79.657003 
L 154.623127 79.740277 
L 154.870152 80.392167 
L 155.199519 82.140802 
L 155.775912 86.758697 
L 156.516988 92.452507 
L 156.846355 93.799665 
L 157.09338 94.101499 
L 157.258064 93.945195 
L 157.505089 93.189845 
L 157.834456 91.328408 
L 158.49319 85.908396 
L 159.151925 81.072731 
L 159.481292 79.856091 
L 159.645975 79.656287 
L 159.810659 79.74308 
L 160.057684 80.399999 
L 160.387051 82.154186 
L 160.963444 86.776392 
L 161.70452 92.46374 
L 162.033887 93.804705 
L 162.280912 94.101314 
L 162.445596 93.941507 
L 162.692621 93.181218 
L 163.021989 91.314454 
L 163.680723 85.890859 
L 164.339457 81.062206 
L 164.668824 79.851925 
L 164.833508 79.655613 
L 164.998191 79.745927 
L 165.245217 80.40787 
L 165.574584 82.167598 
L 166.150976 86.794088 
L 166.892052 92.474941 
L 167.221419 93.809703 
L 167.468445 94.101086 
L 167.633128 93.937776 
L 167.880154 93.172553 
L 168.209521 91.300473 
L 168.868255 85.873328 
L 169.526989 81.051717 
L 169.856357 79.8478 
L 170.02104 79.654983 
L 170.185724 79.748816 
L 170.432749 80.41578 
L 170.762116 82.181039 
L 171.338509 86.811784 
L 172.079585 92.486107 
L 172.408952 93.814659 
L 172.655977 94.100814 
L 172.820661 93.934003 
L 173.067686 93.16385 
L 173.397053 91.286466 
L 174.055788 85.855803 
L 174.714522 81.041262 
L 175.043889 79.843718 
L 175.208572 79.654396 
L 175.373256 79.751748 
L 175.620281 80.423729 
L 175.949649 82.194508 
L 176.526041 86.829481 
L 177.267117 92.49724 
L 177.596484 93.819574 
L 177.84351 94.100499 
L 178.008193 93.930187 
L 178.255218 93.155109 
L 178.584586 91.272432 
L 179.325662 85.131118 
L 179.902054 81.030842 
L 180.231421 79.839678 
L 180.396105 79.653853 
L 180.560788 79.754722 
L 180.807814 80.431716 
L 181.137181 82.208005 
L 181.795915 87.566986 
L 182.454649 92.508339 
L 182.784017 93.824447 
L 183.031042 94.10014 
L 183.195726 93.92633 
L 183.442751 93.14633 
L 183.772118 91.258372 
L 184.513194 85.113948 
L 185.089587 81.020458 
L 185.418954 79.83568 
L 185.583637 79.653353 
L 185.748321 79.75774 
L 185.995346 80.439743 
L 186.324713 82.22153 
L 186.983448 87.584599 
L 187.642182 92.519404 
L 187.971549 93.829279 
L 188.218574 94.099739 
L 188.383258 93.92243 
L 188.630283 93.137514 
L 189.041992 90.649252 
L 190.524144 80.026888 
L 190.77117 79.652896 
L 190.935853 79.7608 
L 191.182879 80.447807 
L 191.512246 82.235083 
L 192.17098 87.602208 
L 192.829714 92.530436 
L 193.159081 93.834068 
L 193.406107 94.099294 
L 193.57079 93.918487 
L 193.817816 93.128661 
L 194.229525 90.634146 
L 195.711677 80.021274 
L 195.958702 79.652483 
L 196.123386 79.763902 
L 196.370411 80.455911 
L 196.699778 82.248664 
L 197.358512 87.619813 
L 198.017247 92.541434 
L 198.346614 93.838816 
L 198.593639 94.098805 
L 198.758323 93.914503 
L 199.005348 93.11977 
L 199.417057 90.619017 
L 200.899209 80.015702 
L 201.146234 79.652113 
L 201.310918 79.767048 
L 201.557943 80.464052 
L 201.88731 82.262272 
L 202.546045 87.637413 
L 203.204779 92.552397 
L 203.534146 93.843523 
L 203.781171 94.098274 
L 203.945855 93.910476 
L 204.19288 93.110841 
L 204.604589 90.603866 
L 206.086741 80.010171 
L 206.333767 79.651786 
L 206.49845 79.770236 
L 206.745476 80.472233 
L 207.074843 82.275909 
L 207.733577 87.655009 
L 208.392311 92.563327 
L 208.721678 93.848187 
L 208.968704 94.097698 
L 209.133387 93.906407 
L 209.380413 93.101875 
L 209.792122 90.588692 
L 211.274274 80.004681 
L 211.521299 79.651503 
L 211.685983 79.773466 
L 211.933008 80.480451 
L 212.262375 82.289572 
L 212.921109 87.672599 
L 213.579844 92.574222 
L 213.909211 93.85281 
L 214.156236 94.09708 
L 214.32092 93.902296 
L 214.567945 93.092872 
L 214.979654 90.573496 
L 216.379464 80.254301 
L 216.62649 79.696206 
L 216.791173 79.678197 
L 216.955857 79.94591 
L 217.202882 80.856934 
L 217.614591 83.502967 
L 218.93206 93.349644 
L 219.179085 94.008243 
L 219.343769 94.096418 
L 219.508452 93.898143 
L 219.755477 93.083831 
L 220.167186 90.558277 
L 221.566997 80.247242 
L 221.814022 79.694248 
L 221.978706 79.679764 
L 222.143389 79.950941 
L 222.390415 80.866745 
L 222.802123 83.518629 
L 224.119592 93.357482 
L 224.366617 94.011056 
L 224.531301 94.095714 
L 224.695984 93.893948 
L 224.94301 93.074754 
L 225.354719 90.543037 
L 226.754529 80.240222 
L 227.001554 79.692332 
L 227.166238 79.681375 
L 227.330922 79.956014 
L 227.577947 80.876593 
L 227.989656 83.534312 
L 229.307124 93.365282 
L 229.55415 94.013827 
L 229.718833 94.094965 
L 229.883517 93.88971 
L 230.130542 93.065639 
L 230.542251 90.527775 
L 231.942061 80.233242 
L 232.189087 79.690459 
L 232.35377 79.683029 
L 232.518454 79.961129 
L 232.765479 80.886477 
L 233.177188 83.550015 
L 234.494657 93.373042 
L 234.741682 94.016554 
L 234.906366 94.094174 
L 235.071049 93.885431 
L 235.318075 93.056487 
L 235.729783 90.512491 
L 237.129594 80.226302 
L 237.376619 79.68863 
L 237.541303 79.684726 
L 237.705986 79.966285 
L 237.953012 80.896396 
L 238.364721 83.565738 
L 239.682189 93.380764 
L 239.929214 94.019239 
L 240.093898 94.093339 
L 240.258582 93.881109 
L 240.505607 93.047297 
L 240.917316 90.497185 
L 242.317126 80.219402 
L 242.564152 79.686844 
L 242.728835 79.686466 
L 242.893519 79.971482 
L 243.140544 80.906351 
L 243.552253 83.58148 
L 244.869721 93.388447 
L 245.116747 94.021881 
L 245.28143 94.092461 
L 245.446114 93.876746 
L 245.693139 93.038071 
L 246.104848 90.481857 
L 247.504659 80.212542 
L 247.751684 79.6851 
L 247.916367 79.688249 
L 248.081051 79.976721 
L 248.328076 80.916343 
L 248.739785 83.597243 
L 250.057254 93.39609 
L 250.304279 94.02448 
L 250.468963 94.091539 
L 250.633646 93.87234 
L 250.880672 93.028808 
L 251.292381 90.466508 
L 252.692191 80.205722 
L 252.939216 79.6834 
L 253.1039 79.690075 
L 253.268583 79.982001 
L 253.515609 80.92637 
L 253.927318 83.613025 
L 255.244786 93.403695 
L 255.491812 94.027036 
L 255.656495 94.090575 
L 255.821179 93.867893 
L 256.068204 93.019508 
L 256.479913 90.451137 
L 257.879723 80.198942 
L 258.126749 79.681744 
L 258.291432 79.691945 
L 258.456116 79.987323 
L 258.703141 80.936432 
L 259.11485 83.628826 
L 260.432319 93.41126 
L 260.679344 94.029549 
L 260.844027 94.089567 
L 261.008711 93.863403 
L 261.255736 93.010171 
L 261.667445 90.435744 
L 263.067256 80.192202 
L 263.314281 79.68013 
L 263.478965 79.693858 
L 263.643648 79.992685 
L 263.890673 80.94653 
L 264.302382 83.644647 
L 265.619851 93.418786 
L 265.866876 94.03202 
L 266.03156 94.088516 
L 266.196243 93.858872 
L 266.443269 93.000798 
L 266.854978 90.420331 
L 268.254788 80.185502 
L 268.501813 79.678559 
L 268.666497 79.695813 
L 268.83118 79.99809 
L 269.078206 80.956664 
L 269.489915 83.660488 
L 270.807383 93.426273 
L 271.054409 94.034447 
L 271.219092 94.087421 
L 271.383776 93.854299 
L 271.630801 92.991387 
L 272.04251 90.404896 
L 273.44232 80.178842 
L 273.689346 79.677032 
L 273.854029 79.697812 
L 274.018713 80.003535 
L 274.265738 80.966834 
L 274.677447 83.676347 
L 275.994916 93.43372 
L 276.241941 94.036832 
L 276.406625 94.086284 
L 276.571308 93.849684 
L 276.818333 92.98194 
L 277.230042 90.38944 
L 278.629853 80.172223 
L 278.876878 79.675548 
L 279.041562 79.699854 
L 279.206245 80.009022 
L 279.453271 80.977038 
L 279.864979 83.692226 
L 281.182448 93.441129 
L 281.429473 94.039173 
L 281.594157 94.085103 
L 281.758841 93.845027 
L 282.005866 92.972456 
L 282.417575 90.373963 
L 283.817385 80.165643 
L 284.06441 79.674107 
L 284.229094 79.701939 
L 284.393778 80.01455 
L 284.640803 80.987278 
L 285.052512 83.708124 
L 286.36998 93.448498 
L 286.617006 94.041472 
L 286.781689 94.083878 
L 286.946373 93.840328 
L 287.193398 92.962936 
L 287.605107 90.358464 
L 289.004917 80.159104 
L 289.251943 79.672709 
L 289.416626 79.704067 
L 289.58131 80.020119 
L 289.828335 80.997554 
L 290.240044 83.724041 
L 291.557513 93.455827 
L 291.804538 94.043728 
L 291.969222 94.082611 
L 292.133905 93.835588 
L 292.380931 92.953379 
L 292.79264 90.342945 
L 294.19245 80.152606 
L 294.439475 79.671355 
L 294.604159 79.706238 
L 294.768842 80.025729 
L 295.015868 81.007865 
L 295.427577 83.739977 
L 296.745045 93.463117 
L 296.99207 94.04594 
L 297.156754 94.0813 
L 297.321438 93.830806 
L 297.568463 92.943786 
L 297.980172 90.327406 
L 299.379982 80.146147 
L 299.627008 79.670044 
L 299.791691 79.708452 
L 299.956375 80.03138 
L 300.2034 81.018211 
L 300.615109 83.755932 
L 301.850236 93.143422 
L 302.179603 94.04811 
L 302.344286 94.079947 
L 302.50897 93.825982 
L 302.755995 92.934157 
L 303.167704 90.311845 
L 304.567515 80.139729 
L 304.81454 79.668776 
L 304.979223 79.710709 
L 305.143907 80.037073 
L 305.390932 81.028592 
L 305.802641 83.771905 
L 307.037768 93.152206 
L 307.367135 94.050237 
L 307.531819 94.07855 
L 307.696502 93.821116 
L 307.943528 92.924491 
L 308.355237 90.296264 
L 309.672705 80.425543 
L 309.919731 79.752462 
L 310.084414 79.654357 
L 310.249098 79.842923 
L 310.496123 80.643839 
L 310.907832 83.152591 
L 312.389984 93.742841 
L 312.637009 94.100631 
L 312.801693 93.981988 
L 313.048718 93.279947 
L 313.378085 91.476416 
L 314.03682 86.097 
L 314.695554 81.187985 
L 315.024921 79.903586 
L 315.271946 79.65494 
L 315.43663 79.847002 
L 315.683655 80.652816 
L 316.095364 83.167771 
L 317.495175 93.491881 
L 317.7422 94.054361 
L 317.906884 94.075626 
L 318.071567 93.81126 
L 318.318592 92.90505 
L 318.730301 90.26504 
L 320.04777 80.409678 
L 320.294795 79.746635 
L 320.459479 79.655567 
L 320.624162 79.851124 
L 320.871188 80.66183 
L 321.282897 83.182973 
L 322.682707 93.498973 
L 322.929732 94.056358 
L 323.094416 94.074099 
L 323.259099 93.80627 
L 323.506125 92.895276 
L 323.917834 90.249398 
L 325.235302 80.401803 
L 325.482328 79.743785 
L 325.647011 79.656238 
L 325.811695 79.855287 
L 326.05872 80.670881 
L 326.470429 83.198197 
L 327.870239 93.506026 
L 328.117265 94.058313 
L 328.281948 94.07253 
L 328.446632 93.801238 
L 328.693657 92.885465 
L 329.105366 90.233735 
L 330.422835 80.393968 
L 330.66986 79.740979 
L 330.834544 79.656951 
L 330.999227 79.859492 
L 331.246252 80.679969 
L 331.657961 83.213443 
L 333.057772 93.513038 
L 333.304797 94.060224 
L 333.469481 94.070917 
L 333.634164 93.796164 
L 333.88119 92.875618 
L 334.292898 90.218052 
L 335.610367 80.386171 
L 335.857392 79.738215 
L 336.022076 79.657708 
L 336.186759 79.86374 
L 336.433785 80.689094 
L 336.845494 83.228711 
L 338.245304 93.520011 
L 338.492329 94.062093 
L 338.657013 94.069261 
L 338.821697 93.791049 
L 339.068722 92.865735 
L 339.480431 90.20235 
L 340.797899 80.378414 
L 341.044925 79.735494 
L 341.209608 79.658509 
L 341.374292 79.86803 
L 341.621317 80.698257 
L 342.033026 83.244001 
L 343.432836 93.526944 
L 343.679862 94.063918 
L 343.844545 94.067561 
L 344.009229 93.785893 
L 344.256254 92.855817 
L 344.667963 90.186627 
L 345.985432 80.370695 
L 346.232457 79.732816 
L 346.397141 79.659352 
L 346.561824 79.872361 
L 346.80885 80.707456 
L 347.220558 83.259313 
L 348.620369 93.533837 
L 348.867394 94.0657 
L 349.032078 94.065819 
L 349.196761 93.780695 
L 349.443787 92.845862 
L 349.855496 90.170884 
L 351.172964 80.363015 
L 351.419989 79.730181 
L 351.584673 79.660239 
L 351.749357 79.876735 
L 351.996382 80.716693 
L 352.408091 83.274646 
L 353.807901 93.54069 
L 354.054927 94.067439 
L 354.21961 94.064034 
L 354.384294 93.775456 
L 354.631319 92.835872 
L 355.043028 90.155122 
L 356.360496 80.355375 
L 356.607522 79.727589 
L 356.772205 79.66117 
L 356.936889 79.881151 
L 357.183914 80.725966 
L 357.595623 83.290001 
L 358.995434 93.547503 
L 359.242459 94.069135 
L 359.407142 94.062205 
L 359.571826 93.770175 
L 359.818851 92.825846 
L 360.23056 90.13934 
L 361.548029 80.347773 
L 361.795054 79.725039 
L 361.959738 79.662143 
L 362.124421 79.885608 
L 362.371447 80.735277 
L 362.783156 83.305378 
L 364.182966 93.554276 
L 364.429991 94.070788 
L 364.594675 94.060333 
L 364.759358 93.764853 
L 365.006384 92.815784 
L 365.418093 90.123538 
L 366.735561 80.340211 
L 366.982587 79.722533 
L 367.14727 79.66316 
L 367.311954 79.890108 
L 367.558979 80.744624 
L 367.970688 83.320776 
L 369.370498 93.561009 
L 369.617524 94.072397 
L 369.782207 94.058419 
L 369.946891 93.75949 
L 370.193916 92.805687 
L 370.605625 90.107717 
L 371.923094 80.332688 
L 372.170119 79.720069 
L 372.334803 79.66422 
L 372.499486 79.89465 
L 372.746511 80.754008 
L 373.15822 83.336195 
L 374.558031 93.567702 
L 374.805056 94.073964 
L 374.96974 94.056461 
L 375.134423 93.754085 
L 375.381448 92.795554 
L 375.793157 90.091877 
L 377.110626 80.325204 
L 377.357651 79.717649 
L 377.522335 79.665323 
L 377.687018 79.899233 
L 377.934044 80.763429 
L 378.345753 83.351635 
L 379.745563 93.574355 
L 379.992588 94.075487 
L 380.157272 94.05446 
L 380.321956 93.748639 
L 380.568981 92.785386 
L 380.98069 90.076017 
L 382.298158 80.31776 
L 382.545184 79.715271 
L 382.709867 79.66647 
L 382.874551 79.903858 
L 383.121576 80.772886 
L 383.533285 83.367097 
L 384.933095 93.580967 
L 385.180121 94.076967 
L 385.344804 94.052416 
L 385.509488 93.743152 
L 385.756513 92.775182 
L 386.168222 90.060138 
L 387.485691 80.310355 
L 387.732716 79.712936 
L 387.8974 79.66766 
L 388.062083 79.908525 
L 388.309109 80.78238 
L 388.720817 83.38258 
L 390.120628 93.587539 
L 390.367653 94.078404 
L 390.532337 94.050329 
L 390.69702 93.737624 
L 390.944046 92.764942 
L 391.355755 90.04424 
L 392.673223 80.302989 
L 392.920248 79.710645 
L 393.084932 79.668893 
L 393.249616 79.913234 
L 393.496641 80.791911 
L 393.90835 83.398083 
L 395.30816 93.594072 
L 395.555185 94.079798 
L 395.719869 94.048199 
L 395.884553 93.732054 
L 396.131578 92.754668 
L 396.543287 90.028323 
L 397.860755 80.295663 
L 398.107781 79.708396 
L 398.272464 79.670169 
L 398.437148 79.917985 
L 398.684173 80.801478 
L 399.095882 83.413608 
L 400.495693 93.600563 
L 400.742718 94.081148 
L 400.907401 94.046026 
L 401.072085 93.726444 
L 401.31911 92.744358 
L 401.730819 90.012387 
L 403.048288 80.288377 
L 403.295313 79.70619 
L 403.459997 79.671489 
L 403.62468 79.922777 
L 403.871706 80.811082 
L 404.283415 83.429153 
L 405.683225 93.607015 
L 405.93025 94.082456 
L 406.094934 94.04381 
L 406.259617 93.720792 
L 406.506643 92.734013 
L 406.918352 89.996433 
L 408.153478 80.607964 
L 408.482846 79.704028 
L 408.647529 79.672852 
L 408.812213 79.927612 
L 409.059238 80.820721 
L 409.470947 83.444719 
L 410.788415 93.319918 
L 411.117783 94.08372 
L 411.282466 94.041551 
L 411.44715 93.715099 
L 411.694175 92.723633 
L 412.105884 89.980459 
L 413.341011 80.599182 
L 413.670378 79.701908 
L 413.835061 79.674258 
L 413.999745 79.932487 
L 414.24677 80.830398 
L 414.658479 83.460305 
L 414.740821 84.111494 
L 414.740821 84.111494 
" clip-path="url(#pdd284edd55)" style="fill: none; stroke: #ff7f0e; stroke-width: 1.5; stroke-linecap: square"/>
   </g>
   <g id="line2d_31">
    <path d="M 71.951976 64.085091 
L 80.680205 113.01835 
L 88.502674 156.133348 
L 93.607865 185.890898 
L 98.548372 212.593525 
L 101.595018 230.775854 
L 103.571221 240.635397 
L 104.888689 247.776372 
L 106.864892 260.169835 
L 108.182361 267.657257 
L 111.39369 284.608024 
L 113.122868 295.409056 
L 113.616918 295.292743 
L 114.275653 294.846225 
L 115.346096 294.076019 
L 115.840146 293.99792 
L 116.334197 294.158112 
L 117.157615 294.746763 
L 117.898691 295.192749 
L 118.392742 295.256175 
L 118.886792 295.091046 
L 119.627869 294.5385 
L 120.451286 293.95321 
L 120.945337 293.847286 
L 121.439388 293.981547 
L 122.180464 294.490514 
L 123.003882 295.023489 
L 123.497932 295.113671 
L 123.991983 294.97488 
L 124.650717 294.511465 
L 125.638819 293.796338 
L 126.132869 293.7011 
L 126.62692 293.845072 
L 127.367996 294.359751 
L 128.191414 294.884353 
L 128.685465 294.965282 
L 129.179515 294.817644 
L 129.83825 294.347989 
L 130.826351 293.641181 
L 131.320402 293.555048 
L 131.814453 293.707117 
L 132.555529 294.226272 
L 133.378946 294.743547 
L 133.872997 294.816699 
L 134.367048 294.661766 
L 135.025782 294.187172 
L 136.013883 293.487574 
L 136.507934 293.408943 
L 137.001985 293.56754 
L 137.825403 294.153745 
L 138.566479 294.601209 
L 139.060529 294.668082 
L 139.55458 294.507377 
L 140.295656 293.959417 
L 141.201416 293.335381 
L 141.695467 293.262632 
L 142.189517 293.42623 
L 143.012935 294.014678 
L 143.754011 294.457454 
L 144.248062 294.519562 
L 144.742113 294.354581 
L 145.483189 293.803994 
L 146.306606 293.218846 
L 146.800657 293.110404 
L 147.294708 293.240852 
L 148.035784 293.745491 
L 148.941544 294.31237 
L 149.435594 294.371236 
L 149.929645 294.203454 
L 150.670721 293.651304 
L 151.494139 293.068756 
L 151.98819 292.962937 
L 152.48224 293.095583 
L 153.223316 293.601281 
L 154.129076 294.166016 
L 154.623127 294.205962 
L 155.117177 294.003424 
L 155.940595 293.342347 
L 156.681671 292.855805 
L 157.175722 292.802071 
L 157.669773 292.999132 
L 158.49319 293.654813 
L 159.234266 294.142308 
L 159.728317 294.217019 
L 160.222368 294.050752 
L 160.881102 293.554751 
L 161.786862 292.888399 
L 162.280912 292.793012 
L 162.774963 292.952153 
L 163.433697 293.44491 
L 164.339457 294.10808 
L 164.833508 294.221534 
L 165.327558 294.09294 
L 165.986293 293.624172 
L 166.974394 292.887503 
L 167.468445 292.793155 
L 167.962496 292.953273 
L 168.62123 293.446649 
L 169.526989 294.109011 
L 170.02104 294.2215 
L 170.515091 294.091944 
L 171.173825 293.622437 
L 172.161926 292.886612 
L 172.655977 292.793303 
L 173.150028 292.954396 
L 173.891104 293.519361 
L 174.714522 294.109938 
L 175.208572 294.221463 
L 175.702623 294.090945 
L 176.361357 293.620702 
L 177.349459 292.885724 
L 177.84351 292.793455 
L 178.33756 292.955522 
L 179.078636 293.521104 
L 179.902054 294.110861 
L 180.396105 294.221421 
L 180.890156 294.089942 
L 181.54889 293.618965 
L 182.536991 292.88484 
L 183.031042 292.793612 
L 183.525093 292.956652 
L 184.266169 293.522846 
L 185.089587 294.111781 
L 185.583637 294.221375 
L 186.077688 294.088936 
L 186.736422 293.617228 
L 187.724524 292.88396 
L 188.218574 292.793773 
L 188.712625 292.957785 
L 189.453701 293.524588 
L 190.277119 294.112697 
L 190.77117 294.221325 
L 191.26522 294.087926 
L 191.923955 293.61549 
L 192.912056 292.883084 
L 193.406107 292.793938 
L 193.900157 292.958922 
L 194.641233 293.526329 
L 195.464651 294.11361 
L 195.958702 294.221271 
L 196.452753 294.086913 
L 197.111487 293.613752 
L 198.099588 292.882211 
L 198.593639 292.794108 
L 199.08769 292.960061 
L 199.828766 293.528071 
L 200.652184 294.114519 
L 201.146234 294.221213 
L 201.640285 294.085896 
L 202.299019 293.612012 
L 203.287121 292.881343 
L 203.781171 292.794282 
L 204.275222 292.961204 
L 205.016298 293.529812 
L 205.839716 294.115425 
L 206.333767 294.22115 
L 206.827817 294.084876 
L 207.486552 293.610272 
L 208.474653 292.880478 
L 208.968704 292.794461 
L 209.462754 292.96235 
L 210.203831 293.531553 
L 211.027248 294.116327 
L 211.521299 294.221084 
L 212.01535 294.083852 
L 212.674084 293.608532 
L 213.662185 292.879617 
L 214.156236 292.794644 
L 214.650287 292.9635 
L 215.391363 293.533294 
L 216.214781 294.117226 
L 216.708831 294.221013 
L 217.202882 294.082825 
L 217.861616 293.60679 
L 218.849718 292.87876 
L 219.343769 292.794831 
L 219.837819 292.964653 
L 220.578895 293.535035 
L 221.402313 294.118121 
L 221.896364 294.220938 
L 222.390415 294.081795 
L 223.049149 293.605048 
L 224.03725 292.877907 
L 224.531301 292.795023 
L 225.025352 292.965809 
L 225.766428 293.536775 
L 226.589845 294.119012 
L 227.083896 294.220859 
L 227.577947 294.080761 
L 228.236681 293.603305 
L 229.224783 292.877058 
L 229.718833 292.795219 
L 230.212884 292.966968 
L 230.95396 293.538515 
L 231.777378 294.1199 
L 232.271429 294.220776 
L 232.765479 294.079723 
L 233.424214 293.601562 
L 234.412315 292.876213 
L 234.906366 292.79542 
L 235.400416 292.968131 
L 236.141492 293.540255 
L 236.96491 294.120784 
L 237.458961 294.220688 
L 237.953012 294.078683 
L 238.611746 293.599818 
L 239.599847 292.875372 
L 240.093898 292.795625 
L 240.587949 292.969297 
L 241.329025 293.541995 
L 242.152443 294.121665 
L 242.646493 294.220596 
L 243.140544 294.077638 
L 243.799278 293.598073 
L 244.78738 292.874534 
L 245.28143 292.795834 
L 245.775481 292.970466 
L 246.516557 293.543734 
L 247.339975 294.122542 
L 247.834026 294.220501 
L 248.328076 294.076591 
L 248.986811 293.596328 
L 249.974912 292.873701 
L 250.468963 292.796048 
L 250.963013 292.971638 
L 251.704089 293.545473 
L 252.527507 294.123416 
L 253.021558 294.220401 
L 253.515609 294.07554 
L 254.174343 293.594582 
L 255.162444 292.872871 
L 255.656495 292.796266 
L 256.150546 292.972813 
L 256.891622 293.547212 
L 257.71504 294.124286 
L 258.20909 294.220297 
L 258.703141 294.074486 
L 259.361875 293.592836 
L 260.349977 292.872045 
L 260.844027 292.796488 
L 261.338078 292.973992 
L 262.079154 293.548951 
L 262.902572 294.125152 
L 263.396623 294.220188 
L 263.890673 294.073428 
L 264.549408 293.591089 
L 265.537509 292.871224 
L 266.03156 292.796715 
L 266.525611 292.975174 
L 267.266687 293.550689 
L 268.090104 294.126015 
L 268.584155 294.220076 
L 269.078206 294.072367 
L 269.73694 293.589341 
L 270.725042 292.870406 
L 271.219092 292.796946 
L 271.713143 292.976359 
L 272.454219 293.552427 
L 273.277637 294.126874 
L 273.771687 294.219959 
L 274.265738 294.071302 
L 274.924472 293.587593 
L 275.912574 292.869592 
L 276.406625 292.797182 
L 276.900675 292.977547 
L 277.641751 293.554164 
L 278.465169 294.12773 
L 278.95922 294.219839 
L 279.453271 294.070234 
L 280.112005 293.585844 
L 281.100106 292.868782 
L 281.594157 292.797422 
L 282.088208 292.978739 
L 282.829284 293.555901 
L 283.652702 294.128582 
L 284.146752 294.219714 
L 284.640803 294.069163 
L 285.299537 293.584095 
L 286.287639 292.867976 
L 286.781689 292.797666 
L 287.27574 292.979933 
L 288.016816 293.557638 
L 288.840234 294.12943 
L 289.334285 294.219585 
L 289.828335 294.068088 
L 290.48707 293.582345 
L 291.475171 292.867174 
L 291.969222 292.797915 
L 292.463272 292.981131 
L 293.204348 293.559374 
L 294.027766 294.130275 
L 294.521817 294.219451 
L 295.015868 294.06701 
L 295.674602 293.580594 
L 296.662703 292.866376 
L 297.156754 292.798168 
L 297.650805 292.982332 
L 298.391881 293.56111 
L 299.215299 294.131116 
L 299.709349 294.219314 
L 300.2034 294.065929 
L 300.862134 293.578844 
L 301.850236 292.865581 
L 302.344286 292.798425 
L 302.838337 292.983536 
L 303.579413 293.562846 
L 304.402831 294.131953 
L 304.896882 294.219172 
L 305.390932 294.064845 
L 306.049667 293.577092 
L 306.955426 292.900144 
L 307.449477 292.791583 
L 307.943528 292.938198 
L 308.602262 293.422794 
L 309.590363 294.132787 
L 310.084414 294.219027 
L 310.578465 294.063757 
L 311.237199 293.57534 
L 312.142959 292.8992 
L 312.637009 292.791671 
L 313.13106 292.939275 
L 313.789794 293.424529 
L 314.777896 294.133617 
L 315.271946 294.218877 
L 315.765997 294.062665 
L 316.424731 293.573588 
L 317.330491 292.89826 
L 317.824542 292.791762 
L 318.318592 292.940355 
L 318.977327 293.426264 
L 319.965428 294.134444 
L 320.459479 294.218723 
L 320.95353 294.061571 
L 321.612264 293.571835 
L 322.518023 292.897324 
L 323.012074 292.791858 
L 323.506125 292.941438 
L 324.164859 293.427999 
L 325.15296 294.135267 
L 325.647011 294.218565 
L 326.141062 294.060473 
L 326.799796 293.570082 
L 327.705556 292.896392 
L 328.199606 292.791959 
L 328.693657 292.942525 
L 329.352391 293.429735 
L 330.340493 294.136086 
L 330.834544 294.218402 
L 331.328594 294.059371 
L 331.987329 293.568328 
L 332.893088 292.895463 
L 333.387139 292.792064 
L 333.88119 292.943616 
L 334.539924 293.431471 
L 335.528025 294.136901 
L 336.022076 294.218236 
L 336.516127 294.058267 
L 337.174861 293.566574 
L 338.080621 292.894539 
L 338.574671 292.792173 
L 339.068722 292.944709 
L 339.727456 293.433208 
L 340.633216 294.101714 
L 341.127267 294.221637 
L 341.621317 294.099545 
L 342.280051 293.635832 
L 343.350495 292.859371 
L 343.844545 292.800641 
L 344.338596 292.993281 
L 345.162014 293.646754 
L 345.90309 294.138521 
L 346.397141 294.21789 
L 346.891191 294.056048 
L 347.549926 293.563064 
L 348.455685 292.8927 
L 348.949736 292.792405 
L 349.443787 292.946907 
L 350.102521 293.436682 
L 351.008281 294.103618 
L 351.502331 294.221623 
L 351.996382 294.097597 
L 352.655116 293.632372 
L 353.643218 292.891787 
L 354.137268 292.792528 
L 354.631319 292.948011 
L 355.290053 293.43842 
L 356.195813 294.104565 
L 356.689864 294.221609 
L 357.183914 294.096618 
L 357.842649 293.630641 
L 358.83075 292.890877 
L 359.324801 292.792655 
L 359.818851 292.949118 
L 360.477586 293.440158 
L 361.383345 294.105508 
L 361.877396 294.221591 
L 362.371447 294.095635 
L 363.030181 293.628909 
L 364.018282 292.889971 
L 364.512333 292.792786 
L 365.006384 292.950229 
L 365.665118 293.441896 
L 366.570878 294.106448 
L 367.064928 294.221569 
L 367.558979 294.094649 
L 368.217713 293.627177 
L 369.205815 292.889069 
L 369.699865 292.792922 
L 370.193916 292.951343 
L 370.85265 293.443635 
L 371.75841 294.107385 
L 372.252461 294.221543 
L 372.746511 294.093659 
L 373.405246 293.625443 
L 374.393347 292.888171 
L 374.887398 292.793062 
L 375.381448 292.95246 
L 376.040183 293.445373 
L 376.945942 294.108318 
L 377.439993 294.221513 
L 377.934044 294.092665 
L 378.592778 293.623709 
L 379.580879 292.887277 
L 380.07493 292.793207 
L 380.568981 292.953581 
L 381.227715 293.447113 
L 382.133475 294.109247 
L 382.627525 294.221478 
L 383.121576 294.091669 
L 383.78031 293.621974 
L 384.768412 292.886386 
L 385.262463 292.793356 
L 385.756513 292.954705 
L 386.497589 293.519824 
L 387.321007 294.110173 
L 387.815058 294.22144 
L 388.309109 294.090668 
L 388.967843 293.620238 
L 389.955944 292.8855 
L 390.449995 292.793509 
L 390.944046 292.955832 
L 391.685122 293.521566 
L 392.508539 294.111095 
L 393.00259 294.221397 
L 393.496641 294.089665 
L 394.155375 293.618502 
L 395.143477 292.884617 
L 395.637527 292.793667 
L 396.131578 292.956963 
L 396.872654 293.523308 
L 397.696072 294.112014 
L 398.190123 294.22135 
L 398.684173 294.088657 
L 399.342908 293.616764 
L 400.331009 292.883738 
L 400.82506 292.793829 
L 401.31911 292.958097 
L 402.060186 293.52505 
L 402.883604 294.11293 
L 403.377655 294.221299 
L 403.871706 294.087647 
L 404.53044 293.615026 
L 405.518541 292.882863 
L 406.012592 292.793996 
L 406.506643 292.959234 
L 407.247719 293.526792 
L 408.071137 294.113841 
L 408.565187 294.221244 
L 409.059238 294.086633 
L 409.717972 293.613287 
L 410.706074 292.881991 
L 411.200124 292.794167 
L 411.694175 292.960374 
L 412.435251 293.528533 
L 413.258669 294.11475 
L 413.75272 294.221184 
L 414.24677 294.085615 
L 414.740821 293.750022 
L 414.740821 293.750022 
" clip-path="url(#pdd284edd55)" style="fill: none; stroke: #2ca02c; stroke-width: 1.5; stroke-linecap: square"/>
   </g>
   <g id="patch_3">
    <path d="M 57.6 307.584 
L 57.6 41.472 
" style="fill: none; stroke: #000000; stroke-width: 0.8; stroke-linejoin: miter; stroke-linecap: square"/>
   </g>
   <g id="patch_4">
    <path d="M 414.72 307.584 
L 414.72 41.472 
" style="fill: none; stroke: #000000; stroke-width: 0.8; stroke-linejoin: miter; stroke-linecap: square"/>
   </g>
   <g id="patch_5">
    <path d="M 57.6 307.584 
L 414.72 307.584 
" style="fill: none; stroke: #000000; stroke-width: 0.8; stroke-linejoin: miter; stroke-linecap: square"/>
   </g>
   <g id="patch_6">
    <path d="M 57.6 41.472 
L 414.72 41.472 
" style="fill: none; stroke: #000000; stroke-width: 0.8; stroke-linejoin: miter; stroke-linecap: square"/>
   </g>
   <g id="legend_1">
    <g id="patch_7">
     <path d="M 352.512188 198.462375 
L 407.72 198.462375 
Q 409.72 198.462375 409.72 196.462375 
L 409.72 152.593625 
Q 409.72 150.593625 407.72 150.593625 
L 352.512188 150.593625 
Q 350.512188 150.593625 350.512188 152.593625 
L 350.512188 196.462375 
Q 350.512188 198.462375 352.512188 198.462375 
z
" style="fill: #ffffff; opacity: 0.8; stroke: #cccccc; stroke-linejoin: miter"/>
    </g>
    <g id="line2d_32">
     <path d="M 354.512188 158.692063 
L 364.512188 158.692063 
L 374.512188 158.692063 
" style="fill: none; stroke: #1f77b4; stroke-width: 1.5; stroke-linecap: square"/>
    </g>
    <g id="text_17">
     <!-- w_rx -->
     <g transform="translate(382.512188 162.192063) scale(0.1 -0.1)">
      <defs>
       <path id="DejaVuSans-77" d="M 269 3500 
L 844 3500 
L 1563 769 
L 2278 3500 
L 2956 3500 
L 3675 769 
L 4391 3500 
L 4966 3500 
L 4050 0 
L 3372 0 
L 2619 2869 
L 1863 0 
L 1184 0 
L 269 3500 
z
" transform="scale(0.015625)"/>
       <path id="DejaVuSans-5f" d="M 3263 -1063 
L 3263 -1509 
L -63 -1509 
L -63 -1063 
L 3263 -1063 
z
" transform="scale(0.015625)"/>
       <path id="DejaVuSans-78" d="M 3513 3500 
L 2247 1797 
L 3578 0 
L 2900 0 
L 1881 1375 
L 863 0 
L 184 0 
L 1544 1831 
L 300 3500 
L 978 3500 
L 1906 2253 
L 2834 3500 
L 3513 3500 
z
" transform="scale(0.015625)"/>
      </defs>
      <use xlink:href="#DejaVuSans-77"/>
      <use xlink:href="#DejaVuSans-5f" transform="translate(81.787109 0)"/>
      <use xlink:href="#DejaVuSans-72" transform="translate(131.787109 0)"/>
      <use xlink:href="#DejaVuSans-78" transform="translate(170.275391 0)"/>
     </g>
    </g>
    <g id="line2d_33">
     <path d="M 354.512188 173.648313 
L 364.512188 173.648313 
L 374.512188 173.648313 
" style="fill: none; stroke: #ff7f0e; stroke-width: 1.5; stroke-linecap: square"/>
    </g>
    <g id="text_18">
     <!-- w_ry -->
     <g transform="translate(382.512188 177.148313) scale(0.1 -0.1)">
      <defs>
       <path id="DejaVuSans-79" d="M 2059 -325 
Q 1816 -950 1584 -1140 
Q 1353 -1331 966 -1331 
L 506 -1331 
L 506 -850 
L 844 -850 
Q 1081 -850 1212 -737 
Q 1344 -625 1503 -206 
L 1606 56 
L 191 3500 
L 800 3500 
L 1894 763 
L 2988 3500 
L 3597 3500 
L 2059 -325 
z
" transform="scale(0.015625)"/>
      </defs>
      <use xlink:href="#DejaVuSans-77"/>
      <use xlink:href="#DejaVuSans-5f" transform="translate(81.787109 0)"/>
      <use xlink:href="#DejaVuSans-72" transform="translate(131.787109 0)"/>
      <use xlink:href="#DejaVuSans-79" transform="translate(172.900391 0)"/>
     </g>
    </g>
    <g id="line2d_34">
     <path d="M 354.512188 188.604563 
L 364.512188 188.604563 
L 374.512188 188.604563 
" style="fill: none; stroke: #2ca02c; stroke-width: 1.5; stroke-linecap: square"/>
    </g>
    <g id="text_19">
     <!-- w_rz -->
     <g transform="translate(382.512188 192.104563) scale(0.1 -0.1)">
      <defs>
       <path id="DejaVuSans-7a" d="M 353 3500 
L 3084 3500 
L 3084 2975 
L 922 459 
L 3084 459 
L 3084 0 
L 275 0 
L 275 525 
L 2438 3041 
L 353 3041 
L 353 3500 
z
" transform="scale(0.015625)"/>
      </defs>
      <use xlink:href="#DejaVuSans-77"/>
      <use xlink:href="#DejaVuSans-5f" transform="translate(81.787109 0)"/>
      <use xlink:href="#DejaVuSans-72" transform="translate(131.787109 0)"/>
      <use xlink:href="#DejaVuSans-7a" transform="translate(172.900391 0)"/>
     </g>
    </g>
   </g>
  </g>
 </g>
 <defs>
  <clipPath id="pdd284edd55">
   <rect x="57.6" y="41.472" width="357.12" height="266.112"/>
  </clipPath>
 </defs>
</svg>
